/* XPM */
static char *arrow[] = {
/* columns rows colors chars-per-pixel */
"50 50 204 2 ",
"   c #010101",
".  c #060709",
"X  c #07080B",
"o  c #0A0B0D",
"O  c #0C0D13",
"+  c #110E11",
"@  c #0F1014",
"#  c #0E1119",
"$  c #131215",
"%  c #191415",
"&  c #14151B",
"*  c #19181A",
"=  c #1B1A1D",
"-  c #231B1B",
";  c #1A1B24",
":  c #1B1D25",
">  c #221E22",
",  c #1E2025",
"<  c #1F212B",
"1  c #252123",
"2  c #2B2424",
"3  c #22232B",
"4  c #29272B",
"5  c #2D2A2C",
"6  c #322A2B",
"7  c #352A29",
"8  c #3A312E",
"9  c #252933",
"0  c #272A34",
"q  c #2A2C35",
"w  c #2B2E39",
"e  c #322D33",
"r  c #392F30",
"t  c #2F3239",
"y  c #343234",
"u  c #3A3333",
"i  c #33333B",
"p  c #3A353B",
"a  c #3B3939",
"s  c #3D3B3C",
"d  c #413635",
"f  c #463936",
"g  c #433C3C",
"h  c #4A3D3C",
"j  c #3F403E",
"k  c #46413F",
"l  c #4C413E",
"z  c #52423E",
"x  c #343641",
"c  c #363943",
"v  c #3A3B44",
"b  c #3C3E49",
"n  c #433D42",
"m  c #483E42",
"M  c #3F4143",
"N  c #3E414A",
"B  c #3D4352",
"V  c #444344",
"C  c #4C4343",
"Z  c #42444C",
"A  c #4C444A",
"S  c #4A4848",
"D  c #4D4B4B",
"F  c #534544",
"G  c #554946",
"H  c #544C4B",
"J  c #5A4D4B",
"K  c #56514E",
"L  c #5C514E",
"P  c #434652",
"I  c #484652",
"U  c #464953",
"Y  c #4C4C53",
"T  c #4B4E59",
"R  c #554D52",
"E  c #4D5155",
"W  c #4E525C",
"Q  c #555453",
"!  c #5C5453",
"~  c #5A5957",
"^  c #53555C",
"/  c #5B5B5B",
"(  c #604F4E",
")  c #63524E",
"_  c #6A564E",
"`  c #635452",
"'  c #675655",
"]  c #645A56",
"[  c #6A5A56",
"{  c #645C5B",
"}  c #6B5D59",
"|  c #715D57",
" . c #715E5A",
".. c #5F605E",
"X. c #64615D",
"o. c #6D625E",
"O. c #74635C",
"+. c #79665E",
"@. c #5B5D62",
"#. c #5A5D67",
"$. c #5F6263",
"%. c #5C636D",
"&. c #636363",
"*. c #6B6462",
"=. c #6C6866",
"-. c #646569",
";. c #66696B",
":. c #6C6C6C",
">. c #736662",
",. c #7B6661",
"<. c #736A65",
"1. c #7C6B64",
"2. c #736D6A",
"3. c #796D6A",
"4. c #6C706D",
"5. c #76726E",
"6. c #7B726D",
"7. c #6A6E71",
"8. c #6E7176",
"9. c #6D737B",
"0. c #737473",
"q. c #7B7572",
"w. c #7C7975",
"e. c #73777B",
"r. c #75797E",
"t. c #7C7C7B",
"y. c #816E66",
"u. c #84736A",
"i. c #83736C",
"p. c #827572",
"a. c #827A76",
"s. c #8A7C74",
"d. c #837D7A",
"f. c #8B7E7A",
"g. c #7F817E",
"h. c #84817D",
"j. c #8C837D",
"k. c #94867B",
"l. c #AF9578",
"z. c #C09D72",
"x. c #C4A176",
"c. c #C5A379",
"v. c #767C83",
"b. c #7A7E83",
"n. c #867F80",
"m. c #7E8285",
"M. c #7E8489",
"N. c #848482",
"B. c #8A8582",
"V. c #8C8985",
"C. c #858788",
"Z. c #85898C",
"A. c #8B8C8A",
"S. c #928B85",
"D. c #968A86",
"F. c #928E8A",
"G. c #8F918D",
"H. c #95928D",
"J. c #99938D",
"K. c #8A8D91",
"L. c #8D9092",
"P. c #949592",
"I. c #9A9692",
"U. c #969995",
"Y. c #9B9A95",
"T. c #96999A",
"R. c #9D9D9A",
"E. c #A5988B",
"W. c #A39A95",
"Q. c #A99D91",
"!. c #A19D9A",
"~. c #9EA19D",
"^. c #ADA393",
"/. c #AFA393",
"(. c #A2A39E",
"). c #ABA499",
"_. c #A4A5A2",
"`. c #A9A6A3",
"'. c #A5AAA5",
"]. c #AAABA6",
"[. c #A7ADA9",
"{. c #ABAEAA",
"}. c #B1AFAB",
"|. c #ACB1AC",
" X c #B1B2AD",
".X c #B9B3AA",
"XX c #AFB5B1",
"oX c #B3B6B1",
"OX c #B5B9B4",
"+X c #B8B9B5",
"@X c #BABBB5",
"#X c #BBBDB9",
"$X c #CEB28E",
"%X c #C2BEBC",
"&X c #BEC1BC",
"*X c #D3C0A8",
"=X c #C4C2BD",
"-X c #C3C5C1",
";X c #C9CAC6",
":X c #D5CEC3",
">X c #DAD1C6",
",X c #D2D0CE",
"<X c #D5D4D3",
"1X c #DAD9D7",
/* pixels */
"p & E / 9.v.%.e.r.8.E 4.r.8.m.M.m.E 8.8.e.M.m.4 T 9.v.9.^ m.m.r.9.C.^ V & K.-.e.Y M.v.m.Z.:.$ Z Z @ ",
"N * @ M ;.%.k ;.4.@.M %.:.8.:.&.E E 8.5 V @.^ y o / ;.$.M r.v.;.8.:.i $ * = -.U y t.E U ^ s t Z O y ",
"P v.8.Y r.M.G.OXoX|.-.R.|.|.|.V.w.4.|.G.=Xe.m.Q 8.|.R._.Z.'.XXoX[.|.5.&.u =.[.[.;.N.V m.b.8.#.N.8.Z.",
"U m.m./ ;.r.~.'.'.|.4.e.P.~.'.Y.V.$.~.~.'.[.(.:.~.'.G._.C.&X[._.~._.g.=.].3.~.R./ y [.T.A.:.@.e.g.N.",
"q ^ 8.Q C.m.:.U.~.G./ G.G.4.R.(.j...(.P.N.g.P.{ R.(.~.~.X.U.~.P._.'.:.N.U.U.N._.~ H.(.~.A.:.7.N.m.P.",
"@.;.C...0.A.d z g.N.h.V.R.U.(.[.'.&.Y.R.~ t._.2.I.[.|.|.5.&.U.P.J._.h.S.{.{.A.Q l R._.[.`.H.q.'.~.T.",
"Z #.m.8.].X.2 A.OX[.V.(.'.'.&X|.|.h.'.B.k _.|.h.[.|.|.[.H.OX|.oX{.|.L.-X{.{.[.Y.J OX|.[.'.V.h.[.~.Z.",
"= T M $ ;.@X0.oXoX|.=.P.&X_.|.|.(.=._.j =.oXXX5.XX|.|.].g.&X|.~.[.|.A.oX|.|.|.|.5.|.|.|.(.w.t.|.K.L.",
"T #.@.S 8 t.&.C : ~ <.! t.~ t.V.J.Q ;.:.h.D ! a J._._.~.=.0.W.d.H.!.2.F.(.'.~.(.] S.a.(.!.5./ g.-.b.",
": p ^ N.|.|.H.2.`  XP.~.'._. X|.{.0.@X'.-X~.2 H '.[.[.'.U.OX{.#X[.OXH.-X|.[.[.[.j.OXH.~.'.A.G.~._.L.",
"T D #.w.|.[.Q d.|.[.h.'.~.j.=X|.'.2.[.~.(.X.Y.=.|.'.[.'.B.&X|.|.|.|.N.G.|.'.'.[.w.|.|.5.|.V.Z.~.Z.e.",
"3 c 3 5 / G 2 >.w.0.H G ] V s / X.g 6.q.} 6.w.4 &.t.g.0.V 2.Q V t.0.C 8 &.0.t.w.C q.5.;.S u 5 p t S ",
"K.M.> 2.#X*.n =XoX&XG.'.OXY.F.2.J.d.{.'.=XXXOXL _.oXoXoXB.u.G :.oXOXY.(.OX|.'.|.H.&XoXoXoXY.t.B.! ] ",
"E t v.0.t.=.I.OXY.~.h.(.oX~.@XR.= t.oX_.OX[.'.g.[.oX'.'.:.2 O.{.|.|.C.=X|.'.~._.w.|.oX{.[.w.Y.'.W.2 ",
"@ e.^ + q.{.!.|.&X].w.G.{._.`.H J K |._.].(.].<.[.].|.h.u q. X(.|.|.0.j ~._.].|.5.'.'.(.I.w.X.{.J.6 ",
"6 ! y - 2.F.B.J.D w.~ =.I.o.6 F.q.- / h.V.6.H.h.(.X.d.d.;.F.j.a.S.Y.o.J :.B.B.V 2 =.k.F.H.j.G 5 w.w.",
"r ( y.2.~.U.B.W.w.OXV.(.XXg.~.{.|.J H.~.-XoX+X%X<X#X+X,X#X#X[.OX|.[.A.R.OX'.R.P.a OXoX{.(.R.5 V.{.K.",
"2 ' } ] H.R.B.*._.'.g.~..X(.OX{.(.0.'._.{.{.oXoX,X,X,X,X}.+X{._.|. Xg.@X|.'._.'.6.|.'.].G.S t.|.T.R.",
"> 2 t.} r F.C q.X.S.0.w.(.~.~.w.l *.J.~._._.}.`.,X1X1X,X}.!._.P.(.{.4.k._.'.R.t.C J.(.H.*.w.:.(.T.R.",
"-.@.P s Y.'.F.'.[.|.j.'.'.'.&X(.*.A.[.'.-XY.oX%X1X<X<X1X%X#X[.+XR.'.V.=X{.'.'.B.s oXR.Y.OXY.H.OX~.L.",
"I v.& u [.|.V.w.U.'.g.~.[.~.XX'.(.Q  X'.|.'.oXOX1X,X,X1XoX@X[.[.].'.V.|.'.'.U.U.w._.F.].{.N.N.{.[.R.",
"# + 6 g Q :.S e.0.&.G Q 0.~ 4.g.a 1 &.0.&.N.5.] }.;X;XH.A H Q D m.N.8 X.j.h.t.h.s H &.! / s y { Y Z ",
"G ` 6 1 ) <.1.k.u.u.u.'.&X~.=XOXG.6 j.I.;XoX Xa.@X:X;XJ.f k !.{. X@XJ.{.oX;XoXOXd.E.i.f.u.s.=.j.,.u.",
"G 1 ' f.E.j.+.s.1.y._ (.'.~.|.~.~.~ j.A. XY.'.d.).$X$X.Xd.H.(.{.(.(.V.oX'.OX~.(.q.j.j.y.1.O.6.k.6.O.",
"6 m k.q.S.J.k.k.O.y._ (.'.(.&X(._.6.'.h. X@X'.a.^.z.c./.j.].'.].{. XJ.oX'.w.(.'.h..X6.y.y.O.p.H.j.1.",
"> 8 f = K ,.[ u.y.| z 6.V.j.S.S.w.~ a.S.d.d.h.H E.z.l.k.J 5.k.w.h.a.] d.J.w.5.w.K s.a.,._ - R 3.>.} ",
"| ,.f.X.>.1.[ (.(.(.q.~.Y.o.}.'.`.=.R.I.(.I.'.*.E.x.x.^.p.S ~.Y.!.q.1 h._.`.V.J J _.(._.q.J ] i.} <.",
"i.' } ] _ 1.k.(.F.(.<.Z.(.(.(.(.!.w.{.Y.@X}.(.5.Q.z.x.^.h.(.(.(.{. Xq.oXY.(.~.R.G `._.Y.Y.) } }  .F ",
"7 F 2 s u.1.O.Y.J.j.*.S.J.H.).H.6.o.(.~.!.Y.H.L ^.x.x.k.<.).'.J.I.Y.&.A.{.(.(.!.{ V.H.I.k.} ( ` J m ",
"u o.p.! j.S.3.u.J.J.6.a.k.w.j.I.J.{ h.k.J.S.W.o.l.c.c.Q.6.J.Y.j.P.f.q.J F.Y.R.!.*.8 j.!.Q.B.] 3.[  .",
"G J | >.) +.s.`.F.W.6.8 m.~.&X).(.g.oX(.oX~.(.q.^.c.x.^.H.|.(.'._.'.V.A.(.!.~.(.w.K C H.J.d.} O.+.m ",
"7 | +.] ) 1.[ s.s.i.o.F.Y.F.{.~.S.w.~.~.oXJ.(.:.^.c.c./.h.].(.'.(.(.h.}.~.~.~.~.5.(.h.d.J.o.` ( _ f ",
"+ 2 h d l 8 2 d G h d V H h S ~ o.C <.5.o.2.6.3.^.x.x.Q.6.{ <.=.*.*.J 1.6.1.3.3.l >.K y k 2 8 6 $ 7 ",
"+.) * r ) D.q.j.6.k.6.J.Y.~ H. X{.q.{.'.&X|.@X@X>X$X$X>X#XoX{.`.].}.B.oX{.|.|. Xj.J.(.Y.J - ` J L ` ",
"h 6 *.r ' O.G } u O.O.(.(.a.t.(.H.h.~.~.|.(.).(.;X$X*X*X(.{.!.P.Y.(.h.#X~.(.(._.q.).H.s.l 7 C o.+.2 ",
"+ 7 G 2 h % % } _ ` h a.F.h.f.h.w.K H.J.F.h.V.~ `.;X-XW.{ B.H.a.F.S.X.q.V.V.V.w.C h.<.- l 2 d J h % ",
"h ' o.' { ' 2 1 { J K a.F.d.J.S.p.{ h.B.J.S.3.! J.}. X:.= 6.f.t.<.H F a.d.w.j 0.~ ,.<.] ! 2 K ` F d ",
"n G ' J F +._ ` 2 J G I._.F.Y.J.u.X.Y.P.(.J.s.3.Y.}.J.I.>.6.j.f.q.J  .}.F.N.j.k.` u.` ` z L J [ )  .",
"> J _ h m J J ,.,.% % B.I.S.E.k.O.*.V.V.J.F.,.} Y.R.!.j.L X.) s.i.} } J.J.<.S.s.z L d u p.) J _ ) G ",
"q x R h d m u ' ` } - g >.} ' ] ] 8 g 6.[ _ >.d o.>.<.] 6 6 C G } =.h [ } <.>.[ 1 $ u H F % C _ n R ",
"x I T G G  .,.O.K ` h R ` A ' A V f ` A ,.R n d (  .| J m ! R / A m p ' [ [ ` h 1 ) } y.G m F ! T U ",
"i b : : > n ` ' G h 6 p A I G n c 6 A ` F n n > m ( A A r n ' A m n 4 e ` F F - 8 L ` ` m > ; R A P ",
"; 0 3 + R m e p n V * 6 n p i p 3 1 p c p d 0 + u p x e * i c a p i ; p > % $ a - y e x & - o i e b ",
": b T T W b W #.^ T v Z I v T #.Z w N v %.#.n x T x n I x P v T W Y c 9.A i W T y ^ ^ ^ T e i I x %.",
"& 3 w w 9 c 9 U x w 3 & n : U 0 9 3 c 0 P 0 w & < b 0 9 t B N x v 0 0 w c 0 3 0 : 9 w c 9 9 x I < w ",
"Z 0 O X : B O < w : X & : # ; : # . w : < & O X ; w ; # X , & ; ; # O x ; 0 3 O . & x : ; O # ; @ : ",
"  . & :     * O 0 v x       O P o t c 3 . * i   : .         ,     =     X y 3 ; o 3   .     . & 3 @ ",
"      .     @   . X O     O . O N . o o           .   . X v X   . X     q X .         o   9   # * O ",
"                  .       U                 .                         . X             .           X ",
"                                                .                                                   "
};
