/* XPM */
static char *fd77fd88f75246a1be82cd0f8239ae0cvZBLwWB2OM0bgacN[] = {
/* columns rows colors chars-per-pixel */
"19 20 5 1 ",
"  c None",
". c gray89",
"X c #D0A26A",
"o c #CDC9C5",
"O c white",
/* pixels */
"                   ",
"                   ",
"                   ",
"                   ",
"         .         ",
"        .X.        ",
"         X         ",
"         X         ",
"         X         ",
"         X         ",
"         X         ",
"         X         ",
"         .         ",
"        .o.        ",
"        o.o        ",
"        . .        ",
"                   ",
"                   ",
"                   ",
"                   "
};
