/* XPM */
static char *item[] = {
/* columns rows colors chars-per-pixel */
"60 60 247 2 ",
"   c #010101",
".  c #060609",
"X  c #07080A",
"o  c #0A0A0C",
"O  c #0C0D12",
"+  c #0D031A",
"@  c #100F13",
"#  c #160819",
"$  c #13151B",
"%  c #181618",
"&  c #28091C",
"*  c #350D1D",
"=  c #27181A",
"-  c #3B181A",
";  c #313911",
":  c #170922",
">  c #191726",
",  c #1A1C23",
"<  c #1C1932",
"1  c #251B27",
"2  c #301528",
"3  c #1F212A",
"4  c #1E2036",
"5  c #2B2424",
"6  c #23242C",
"7  c #282629",
"8  c #362B2B",
"9  c #322B2C",
"0  c #3A312F",
"q  c #272936",
"w  c #2B2C34",
"e  c #342E37",
"r  c #2E313A",
"t  c #3B3333",
"y  c #373639",
"u  c #33343C",
"i  c #3C353B",
"p  c #481B19",
"a  c #5A171E",
"s  c #691C1E",
"d  c #52261A",
"f  c #712E17",
"g  c #76281C",
"h  c #490E21",
"j  c #491624",
"k  c #581823",
"l  c #681B24",
"z  c #761D21",
"x  c #4F292F",
"c  c #473A3A",
"v  c #433A3C",
"b  c #672321",
"n  c #772C2A",
"m  c #3F5410",
"M  c #60581D",
"N  c #657709",
"B  c #4B413E",
"V  c #594333",
"C  c #2E2E45",
"Z  c #343441",
"A  c #373844",
"S  c #3B3C44",
"D  c #3B3D49",
"F  c #472D43",
"G  c #453B43",
"H  c #3E414B",
"J  c #4D4444",
"K  c #44444B",
"L  c #484748",
"P  c #4C444A",
"I  c #534543",
"U  c #574847",
"Y  c #544C4B",
"T  c #5B4C4C",
"R  c #54504F",
"E  c #5D514E",
"W  c #474855",
"Q  c #4B4B53",
"!  c #554D54",
"~  c #4E5159",
"^  c #5B5453",
"/  c #54555A",
"(  c #585758",
")  c #6C494E",
"_  c #6A5E44",
"`  c #63524E",
"'  c #635452",
"]  c #695A56",
"[  c #6C5B55",
"{  c #645B5A",
"}  c #735D59",
"|  c #767848",
" . c #69615E",
".. c #73625C",
"X. c #79655D",
"o. c #495261",
"O. c #565963",
"+. c #6D5A62",
"@. c #5D646B",
"#. c #5A6672",
"$. c #646464",
"%. c #676668",
"&. c #6B6B6C",
"*. c #776A66",
"=. c #6E7169",
"-. c #78726E",
";. c #656973",
":. c #6A6D73",
">. c #6D7376",
",. c #747372",
"<. c #7B7473",
"1. c #767778",
"2. c #75797C",
"3. c #7B7C7C",
"4. c #85351A",
"5. c #9A3915",
"6. c #8A2625",
"7. c #873A23",
"8. c #8C3034",
"9. c #88363C",
"0. c #B33123",
"q. c #C43C1B",
"w. c #974912",
"e. c #AF4F09",
"r. c #B65615",
"t. c #987316",
"y. c #B56D0D",
"u. c #964A27",
"i. c #91482B",
"p. c #A5592C",
"a. c #B36A33",
"s. c #CE4F0E",
"d. c #EA5B05",
"f. c #CE7005",
"g. c #F56900",
"h. c #E87002",
"j. c #F57600",
"k. c #D05332",
"l. c #E25C2F",
"z. c #C37936",
"x. c #A04F4F",
"c. c #956A51",
"v. c #AC7148",
"b. c #86736C",
"n. c #88736C",
"m. c #867A75",
"M. c #847E7A",
"N. c #D16B4C",
"B. c #E57955",
"V. c #728408",
"C. c #7E817E",
"Z. c #969717",
"A. c #D1910E",
"S. c #EC8601",
"D. c #F58600",
"F. c #EC920D",
"G. c #F69602",
"H. c #EFA60F",
"J. c #F9A601",
"K. c #FAB903",
"L. c #D1892B",
"P. c #C8833B",
"I. c #EA9924",
"U. c #DEAA22",
"Y. c #FAC602",
"T. c #FDD80A",
"R. c #FAD031",
"E. c #B98650",
"W. c #A29D5E",
"Q. c #889368",
"!. c #88817D",
"~. c #93857C",
"^. c #CC924E",
"/. c #DBA65A",
"(. c #F2B44C",
"). c #E0956F",
"_. c #DCAE6A",
"`. c #E6B86D",
"'. c #F8CF55",
"]. c #F1D16A",
"[. c #FCE565",
"{. c #757A81",
"}. c #7A7E82",
"|. c #847F81",
" X c #7D8283",
".X c #7D8389",
"XX c #838483",
"oX c #8C8582",
"OX c #8A8986",
"+X c #84888A",
"@X c #8C8D8B",
"#X c #938C88",
"$X c #8E928C",
"%X c #94928D",
"&X c #98938C",
"*X c #8C8E91",
"=X c #8C9899",
"-X c #949492",
";X c #979895",
":X c #9A9A95",
">X c #9B9D9A",
",X c #A9968C",
"<X c #A39C98",
"1X c #8FA29D",
"2X c #94A099",
"3X c #9BA59B",
"4X c #9DA89D",
"5X c #A2A29D",
"6X c #A4A99D",
"7X c #B2B09E",
"8X c #949CA0",
"9X c #9AA5A4",
"0X c #9DB2AD",
"qX c #A4A6A2",
"wX c #A9A6A3",
"eX c #A5AAA4",
"rX c #AAABA5",
"tX c #A7ADA9",
"yX c #AAAEAA",
"uX c #B3ACA7",
"iX c #A9B3A8",
"pX c #ACB2AC",
"aX c #B3B8AD",
"sX c #ABB7B3",
"dX c #B6B9B4",
"fX c #CFA299",
"gX c #D4B394",
"hX c #ECA487",
"jX c #BFC6AD",
"kX c #B9C2B7",
"lX c #F1DA91",
"zX c #D3C5AF",
"xX c #C2C3BB",
"cX c #C3CABB",
"vX c #D8DABB",
"bX c #E5CBB9",
"nX c #C6CCC5",
"mX c #C9D3C7",
"MX c #D7D9C7",
"NX c #D6DACF",
"BX c #CEE1D2",
"VX c #E5E6DA",
"CX c #E8E9DB",
"ZX c #F5ECD2",
"AX c #EFEFE1",
"SX c #F3F3E5",
"DX c #F8F7E7",
/* pixels */
"S 7 7 @./ ;..X#.%.;. X>.@.Q 2..X>.>.+X XL  X>.>.C.>.{.:.w @.;.+X2.>.L 2..X;..X}.+XL O.$ @.XX$.{./ .X:..X X.X.X$ r &.L o ",
"@.$ % % C. X2.%.~ 2.2.&.&.2. X{.{.}.@X{.K yX;.i / .X X&.L @ :.2.>.3.~ +X X>.2.@X.XS o . @ &.:.$.P >XC.>.2.2.>.Q Q S o u ",
"7 ;.Q 3 ~ :.2.@X1.eX@XXX%.,.C.eX3X$X,. .H :X3XY @X}.y P %.K ;X*X*X>X~ 1.9X@XrX9X%Xi I = u <.>X}.$.&.:.y @.2.( S {.:.P +X",
"O.}.>.;.S :.2. X@X2XsXpX=XXXeXeX;X%XOX#XR >X9XqXtX2XXX4X%.>XeX1.6XdX%.pXyX9XdX-XeX1.<.R t rX;X8X1.K L *X3.C.+X( $.>.3.:.",
"H 2.@X&.$.:.>.$XeX3XpXeXOX$. X>XeXpXqXoXL +XeX4XdXdXdX*X-X4XqXqXqXyX,.pXyXeXdXqXeX,.1.>XwX,.wXrX&.w wXyX3X XOX@.;.OX*X@X",
"w H %.( ( C.C.1. .;X@XOX&.,.3XOX$.;X:X&XL 3X;X@X1.OX3.|.-.-X>X>X>X;XK $X-X+XqX5X3X( OX-X:X%.>X-X{ <.;X>X;XOXM.%.}.+X}.@X",
"@.Q 1.C.L ,.qX= ` 9 -X<.-XOXOX>X%X-XeXyX{ wX<X<X$.Y :X<XoX;XtXwXrXdX^ R %X3.<X$XqX=.M.5XqX$X3Xt I $X<XeXrXwXwX*.qXqX8X-X",
"Q :.#.2.%.eX,.% 0 eXpXpX5XwXtXeXyXkXyXaX<.dX%XM.L #XyXrX%XpXyXtXeXyXm.pXpXeXmXyXpX!.nXtXyXtXyX$Xc dXyXtXtXqX5X1.qXqXdXXX",
"3 O.;.~ i 3.C.@XC.kXiXrX%X!.eXiX5XpXrXdX&.yXeX%.&.pXrX3X;XrXyXrXrXyX!.pXyX5XdXqXyXXXdXtXeXtXtXpXM.<XyXeX9X5X&X%XpXpX$XXX",
"O 7 w O   $.!.( y C.XX3.L ^ -XOX( 3.}.&Xc ,.L % J OX+X*.$.<X;X;X*XOXP XX%X!.oX-X%X^ OX:X:X-X;X$X{ <.-X;X%X!.-.7 ,.1.K :.",
"O.{.;.,.%.J -X>X..0 @ 3.5X .%X-X<.:X3XpX$.;X-X-X;X{ ( c <.5XyXyXyXdX&.%XrX%XqXwXpXm.wXrXpXeX6XeX!.#X!.&XrXuX5X1.*X;X$X+X",
", r 7 >.3.pXpXrX%.E -.dXpX3XeXeX-XrXdXaX-.uXdX3XxXyXP 9 @XtXtXtXyXpXM.iXpXyXnXkXpXXXnXpXtXiXiXiXOXaXqX!.wXqXqX;XqX>XtX*X",
"W y L @.C.pXtX3.U &XpX6X3X3X3X3X3X3X3XVXdX3X2XcXZXSXSXAXiX4X3X3X3X3XCXaX3X3X3X3X3X3X3X4X3X3X2X3X3XyXpXm.$XyXeX3.eX>X2.1.",
"u @.L % ( @X=.5 I 6X3X2X3X3X3X3X3X3X4X4X4X3Xe % y.].F._.CXDXcX4X4X4X9X6X3X4X6X3X4X3XcXmX3X3X3X3X3XM.:X3X%.C.( 9 :.~ @.1.",
">.;.i 5 $.;XT = M.&XqX4X3X3XaXmX3XtXNXCXVXzXL.A.r.r.S.y.x xXAXVXCXVXCXCXCXCXCXCXCXaXeXeX3XmXkX3X3X&X:XqX;X-X-X$.=.5 1 ` ",
"{..Xu H XXpX-.c wXyX5XeX3X3X6XjXiXcX( Q v.`.I.(._.y.d - + A W W W W P W W L W W W iXkX3X3XaXiX3X3XpXiXpXpX3XrX%.3XrX` Y ",
"u 6 {./ %.Y OXrX;XeX:X2X4X4X3X3X$XO.> | L.z.F.t.V V @X-X-X*X}.;.{.#.#.#.#.{.8X*XD o.*XnX4X3X3X3X3X>XrXrXwXaXoX-XqXaXm.5 ",
"o %.;.7 @ <XrX5X4XeXkX4XjXcX3XaX4X% M U.].P.w._ @.!.sXsXdXBXBXmXnXnXnXnXsXsXsXsX8X{.>.-XkXjXNX4X3X:XwX6X:X;X%XR 5XuXoX= ",
"5 L v % % -.m.oX-.<.L $X1X4X4XcXxX= A.G.I.I.- O.iXNX0X9X9X9XsXnXnXnXnXnXsX0X9X9XNXsX#.C VXkXCX6X3XL <.M.m.oX!.] 5 L $.&.",
"8 ` ` n.( rX3X@X#X{ !.4X3X4XiXcXxX= g 4.4.y.- < ~ 1XdXnXBX8X=X=X=X8X8X*X=XsXnXkX*Xo.4 Z VXiX3X3X3XpXyXtXeXqXyX] t rXsX@X",
"9 b.' ` =.-X:XoX#X[ iXiX3X4XVXmXxX= f.H.f.e.* 6 4 < C W 1XsXmXVXVXVXVXNXcX=X#.C > 4 4 C CXuX3X3X3XaXdXpXrX5X;Xy 5XpX-X-X",
"= 1 c U c <.M.$.5 R OX$X4X4XaXkXxX1 A.f.H.f.= > C W o.o.{.#.;.;.#.{.;.{.;.#.W o.o.C < Z VXyX3X4X3X<.OX!.$X/ 9 ( +X*X2. X",
"P % %.<.$.c @X<.^ :X-.3XiXkXkXcXxX= f.H.F.f.% + : 2 n 8.9.9.9.9.8.9.9.8.9.9.9.n 2 : : Z VXaXxXdX3X#X6X3Xb.oXwX$.qXeX9X+X",
"#.+Xw r y rXrX>XM.3XeX4XkXSXAXcXxX& w.e.w.e.& * k 8.k.k.k.fXbXMXnXbXbXzXN.k.k.k.8.k * C VXnXDXmX3XpX>X>X5XdXdX-XyXdX9X;X",
"W =Xy o ' tXyX:X^ %.3X4X3XcXMXnXxX# w.e.e.e.& 2 l 8.k.l.l.).hXhXhXhXhX).B.l.l.l.8.l * Z BXkXMX4X3X-XOX>XyXpX>X3.eXdXtX-X",
"O > % 9 &.3. X%./ 1.<.3XeX3X6XvXxX= y.f.f.e.& x ) x.B.B.B.B.B.B.B.B.B.B.B.B.B.B.x.) x Z VXjX4X1XiX^ =.=.$.1.L 9 1.}.~ ( ",
"c c 5 o t 5 ,.] { -.*.aXxX4XcXMXxX: f f 4.e.= O.tXBXAXSXZXZXZXZXDXDXDXDXZXDXDXDXNXtX@.Z CXvXjXjXVX*.E m.*.` ~.7 { T  .{ ",
"v c c } B ~.c ..~.X.| 2X4X9X4XcXxX= w.f.e.w.& O.8XsXNXNXN.N.N.B.DXDXDXDXDXZXDXDXBX0X#.u VXiXjXjX4X6Xm.b...m.n.oX~.m.b.X.",
"{ 9 c ` OX<X5Xb.-.X.b.~.kXNX4XkXxX: & = 1 # + & 4 7 < 1 & : n B.AXDXDXCX).x.mXDXBX0X#.C CXiX4X4X3X..b.~.X.X.n.-.!.#XX...",
"9 9 X.!.=.~.,Xm.b.X.X.&XeXkXVX>Xq # z uXdXF z ~.gXy.z * r.zXn.x K MXQ.E.).s.x.AXBX0X#.6 6XBXCXvX3XaX!.b.X.n.b.*.&X&Xb...",
"5 B V B @ *.m.b.*.b.n.$X3XaXCX%.p p.fX(.c.n ,X].R.A.a n `.].I.z.f ` =.x.k.q.x.VXBX0X#.7 W.Q.=.;.3X!.&Xm.b. .5 R <.M.X.*.",
"` c -.<.J {  ...B &X&XiXiX2X-.f a.'.lXH.p 5.bX[.Y.f.& r.lXI.J.G.f.4.p k z z ..CXmXC.$.| Z.N ; r jX!.OX&X&XU *.' *.} E ' ",
"b.] [ *.U ` -.b.6X!.>XNXkX@.p s.F.(.T.H.V L.(.R.K.L.c I.(.F.D.D.S.f.f * x &.aXkX} x M Z.m V.m H CXyX5X<X>X:Xc ] E ..*.*.",
"E X.` t J ' } n.!.&X&XcX|.- w.S.D.D.F.'.].[.H.G.H.].].'.F.D.h.f.s.e.s s d R 4X9 # N V.m V.N m L CX-X:X5X:X:X~.*.` *.] = ",
"= 9 5 @ E ....[ ..~.C.G _ E.7.u.5.u.f.H.J.J.S.S.G.K.H.J.S.f.e.4.a a a - o f A.H.b = ; N Z.; %.VXSX%.m.!.m.} } E B U = I ",
"B *.b.m.^ &X,X&X^ #X6XK p p.v.E.W.).^.a.r.r.r.y.r.y.h.h.f.4.g 4.s f d = Z.`.gXw.& + % d d b x &.CXY ^ rXuXuXuX .m.m.} ..",
"U U T } ' ` [ n.<X&X&XG - u.^.a.^.].lXv.c.v.c.v.c.p.r.a.7.a k 4.4.s d e.Y.[.ZX7XZ.t.Z.y.t.r.5.n }.^ 9 |.:X&X&X!.T b.*.c ",
"0 X.X.` E ` !...b.~.|.A p 7.p.^.L.^.`.`.`.`._.lXlXgXp.gXx f 7.g g * p j.Y.[.ZXZX[.T.Y.Y.Y.j.s.6.1 #XOX{ #X&Xm. .U ..[ 0 ",
"= v ` T Y ..E  .t -.m.e - 7.u.p.z.P.P././.^.`.`.E.E.u.E.x g g s s * p j.Y.T.R.ZXZX'.K.J.G.g.d.6.6 %.:XM. .-. .^ [ E = [ ",
"L 5 5 0 I = ^ ^ c 9 -.q - 7.w.p.a.a.P.^./.^./.`.`./.i.^.b l l s a & p j.G.Y.T.T.T.K.G.G.g.g.s.6.1 { I -.=.= % % ^ % y R ",
"} X.5 o 9 X.b.b.-.' E e p n 4.i.u.a.z.P.a.P.a././.^.i.p.h a l l a & * q.g.J.Y.J.K.G.D.g.g.q.q.6.4 #X<X&X!.` = { ' T [ 0 ",
"c , { E t [ ..U I G c e & l b 4.u.u.a.p.P.P.P./.^.^.i.7.h a l k h & * 0.d.j.D.G.G.G.j.g.s.0.0.6.1 -X:X#X*.c v B B m.[ 5 ",
"@ = B I 0 U % o I U b.P 2 & h b 7.i.7.7.p.a.^.^.^.^.i.7.h s k h & # & l s.d.g.j.D.j.j.d.0.0.6.k K b.!. .8 ` 0 t [ [ c @ ",
"0 E { { R  .` 5 @ 5 $.m.O.2 & * p k b l g i.a.p.a.^.7.4.h h * & : : : + k 5.d.d.g.g.d.s.0.z h 4 ~.{ *.-.^ { 5 = E ` v e ",
"L ` ' } i ` b.[ c ^ B ,X6X+.2 < 1 4 & & j d d n i.a.7.b * + : q C F F 2 : * z s.q.s.q.0.l & : L zX!.` *.} T c $.[ } T [ ",
"9 Y ] ` U U U ..B B 0 7XvXjXM.M.!.<.G 6 < 1 < j k d k 2 < A +.|.m.|.|.m.q 1 2 z z z z s + : Q &XvX~.X.V J ` n.T U _ T ' ",
"7 e U U 5 v [ ..0 X...6XVXvXMXvXvXvXvX:X%X|.|.! Z C r A <.zXvXvXvXvXMXvX#X|.<.Z e e Z C e -.6XvXvXy 9 % E ..[ { ` } U ` ",
"w e P J 0 t 0 5 B E U #XxXSXDXDXSXCXvXAXAXSXSXSXSXSXSXSXDXDXDXSXDXSXAXAXSXSXDXSXDXSXSXSXSXZXVXvXVX7 % B Y v % 9 ] I v K ",
"S Q K ! J E [ } X.E ' ' ' ] ] P ! T P G v ' ] P *.P P G T [ } *.T *.9 { ! P *.! G e ..} [ ..` U 9 B } X.X.T ! I T ! O.W ",
"q W Z 1 w w U } [ ' I G i v S ! G ' G S 5 i Y T ] L v e 0 G ) [ G G 9 y T P +.G S 7 v L I ' I @ 5 [ U ..{ J i 1 i ! ! W ",
"A , ,   @ e G c w v v L 0 w G Y G u i G = P P T e G i 7 9 i v e G G 5 G ! L i S v % 3 J 0 % O I c v t G y 1 % o w L u H ",
"$ W O.L S %./ ! L ~ ~ W K y R ( G W ( S 7 u W D / / K A 9 Q ~ Q P P , u ! G ! / y y ~ o G w Q ! t y K ~ ~ w U 7 e W W O.",
"O 3 A D S D w C ~ H H H H y A 6 r H H H e A r r ~ H H A A D q 6 Z H q H q Z O.H Z q ;.@.7 q D D w W H Z D W Z r Z q D H ",
", w > q w 6 D , H H Z 6 r O r A 3 H 3 q > r H 6 H r 3 r $ , D r 3 A q A H 3 o.C q 3 q C H $ q 6 3 q 3 D A 3 A A D H > 6 ",
"~ H O O O , o.$ 3 q Z 3 O , $ > $ 3 , $ . $ Z 3 3 > O O O 3 D 3 > $ o 3 $ $ w $ > o W > r 3 $ @ . $ 3 D 3 > $ O 6 , @ 6 ",
"  O   6   . o   . 7 W W w     o . 3 3 . $ A ~ w .   A @   r @ .   .     3 $   . .   .   q H % X . u . o     .     O A , ",
"      3 X     $ q   o 3 S         . W H % r $ . o o     . @   . .   . u @     % %     . . , % O       o .   %   o H , $ ",
"                    o         , , o   $ . .   @                       3       .     . S $                   6 .     3 . ",
"                              $ $         . .         .                                                 .               ",
"                                                                                                                        "
};
