/* XPM */
static char *exit[] = {
/* columns rows colors chars-per-pixel */
"60 60 240 2 ",
"   c #010101",
".  c #060609",
"X  c #07080A",
"o  c #0A0A0C",
"O  c #110D0E",
"+  c #0E0717",
"@  c #0C0D12",
"#  c #130B19",
"$  c #0F1117",
"%  c #131214",
"&  c #13151B",
"*  c #1A1819",
"=  c #231D1D",
"-  c #2A1F1D",
";  c #1B0D22",
":  c #1A1C23",
">  c #181A26",
",  c #241D24",
"<  c #371C30",
"1  c #1F212A",
"2  c #242124",
"3  c #2B2424",
"4  c #22242C",
"5  c #2B292C",
"6  c #332B2B",
"7  c #362A2B",
"8  c #3A312F",
"9  c #282A36",
"0  c #2B2C34",
"q  c #372A35",
"w  c #2E313A",
"e  c #353235",
"r  c #3B3332",
"t  c #33343B",
"y  c #3C353B",
"u  c #3A393C",
"i  c #441F35",
"p  c #442A3B",
"a  c #572A39",
"s  c #443739",
"d  c #433A3C",
"f  c #4A3D3D",
"g  c #543537",
"h  c #67393A",
"j  c #733C3D",
"k  c #4A403E",
"l  c #51423B",
"z  c #6D4239",
"x  c #76493C",
"c  c #2E344C",
"v  c #353744",
"b  c #363943",
"n  c #3B3C44",
"m  c #3B3D4A",
"M  c #562C41",
"N  c #443C42",
"B  c #493842",
"V  c #563846",
"C  c #713847",
"Z  c #723649",
"A  c #72374B",
"S  c #3E414B",
"D  c #3F4451",
"F  c #444445",
"G  c #4D4443",
"H  c #4D4947",
"J  c #44444B",
"K  c #4B4449",
"L  c #4B4B4B",
"P  c #534543",
"I  c #574847",
"U  c #554C4C",
"Y  c #5B4C4C",
"T  c #54514F",
"R  c #5D514E",
"E  c #454753",
"W  c #4B4B53",
"Q  c #4A4D5A",
"!  c #554D53",
"~  c #4E5158",
"^  c #5C5453",
"/  c #54555B",
"(  c #595858",
")  c #684A4A",
"_  c #794742",
"`  c #63524D",
"'  c #635452",
"]  c #6A5653",
"[  c #645A55",
"{  c #6B5B55",
"}  c #645C5A",
"|  c #6B5D5A",
" . c #725C57",
".. c #725E59",
"X. c #66625D",
"o. c #6B615D",
"O. c #73625C",
"+. c #79645D",
"@. c #7C685F",
"#. c #4C4F61",
"$. c #535462",
"%. c #595A67",
"&. c #635E64",
"*. c #5E6269",
"=. c #5B6271",
"-. c #646364",
";. c #6C6462",
":. c #63646B",
">. c #65696C",
",. c #6B6868",
"<. c #6C6B6B",
"1. c #746662",
"2. c #776A66",
"3. c #7B6B64",
"4. c #736D6B",
"5. c #74716D",
"6. c #7B726E",
"7. c #656972",
"8. c #6B6D73",
"9. c #6D7275",
"0. c #69767A",
"q. c #6E7479",
"w. c #707070",
"e. c #737372",
"r. c #7B7573",
"t. c #767875",
"y. c #7B7976",
"u. c #72757B",
"i. c #75797C",
"p. c #7C7C7B",
"a. c #90543F",
"s. c #854945",
"d. c #8D5748",
"f. c #92514F",
"g. c #985A49",
"h. c #9A5652",
"j. c #A75A54",
"k. c #A85B51",
"l. c #966A57",
"z. c #A8684C",
"x. c #A96754",
"c. c #AF6C51",
"v. c #B86658",
"b. c #BA7757",
"n. c #857169",
"m. c #84746C",
"M. c #89756C",
"N. c #867873",
"B. c #837A75",
"V. c #8B7C74",
"C. c #837D7A",
"Z. c #C36C55",
"A. c #C46D59",
"S. c #CA7659",
"D. c #CC745A",
"F. c #D37B5B",
"G. c #D4795A",
"H. c #D37962",
"J. c #7E817E",
"K. c #8F8276",
"L. c #85817D",
"P. c #8C837D",
"I. c #94857D",
"U. c #BB8669",
"Y. c #D4845B",
"T. c #DB845E",
"R. c #E48B5D",
"E. c #E8915F",
"W. c #C68366",
"Q. c #D5906B",
"!. c #E58E61",
"~. c #E99364",
"^. c #D2A27E",
"/. c #6E7582",
"(. c #757B81",
"). c #7B7E83",
"_. c #817F88",
"`. c #7D8283",
"'. c #7C8489",
"]. c #838483",
"[. c #8C8682",
"{. c #8B8985",
"}. c #83848A",
"|. c #868988",
" X c #8C8D8B",
".X c #938B85",
"XX c #998C86",
"oX c #928D8A",
"OX c #8E918E",
"+X c #94928D",
"@X c #9B938C",
"#X c #8C8C90",
"$X c #8E9294",
"%X c #949492",
"&X c #9A9692",
"*X c #959995",
"=X c #9B9A95",
"-X c #949B99",
";X c #9B9D9A",
":X c #A29283",
">X c #A0968F",
",X c #A29A94",
"<X c #A29D9A",
"1X c #93A29F",
"2X c #9DA19C",
"3X c #A2A29D",
"4X c #ABA39C",
"5X c #939DAB",
"6X c #8EA2AA",
"7X c #9CA3A2",
"8X c #A4A5A2",
"9X c #A9A6A3",
"0X c #A5AAA5",
"qX c #AAABA6",
"wX c #A6ADA9",
"eX c #AAAEAA",
"rX c #B1ADA9",
"tX c #A7B1A9",
"yX c #ACB1AC",
"uX c #B2B3AC",
"iX c #ABB3B3",
"pX c #B3B5B1",
"aX c #B5BAB4",
"sX c #BABDB8",
"dX c #BCC1BB",
"fX c #C1C4BB",
"gX c #C5CBC4",
"hX c #C9D3C9",
"jX c #D7D9CC",
"kX c #D9DDD2",
"lX c #D8E1CD",
"zX c #DCE4D7",
"xX c #E2E5D6",
"cX c #E4E8D8",
"vX c #EBEBDB",
"bX c #F1EFDD",
"nX c #ECF0DE",
"mX c #F3F2DE",
"MX c #F4F4E1",
"NX c #FAF9E3",
/* pixels */
"n 4 4 *.( 7.'.=.:.>.`.9.*.W i.'.8.0.}.`.L (.q.0.i.i.).9.4 %.8.'.(.0.L q.'.7.'.`.}.F %.& :.].:.p./ ].9.'.(.}.|.$ w <.E @ ",
":.& * * J.`.q.>.~ `.i.9.>.i.`.J.(.`. X(.F yX>.n / `.`.>.L % 8.(.9.i.T |.(.i.(.#X`.n O . O >.8.%.J 7Xi.0.i.i.9.W L S X e ",
"4 :.W 1 W 8.J.|.t.3X|.].>.9.J.0X2X X5.X.F ;X2XT  Xp.u H ,.J ;XOX%X;X/ t.7X XeX7X+Xu G = e y.-X).:.<.<.u *.u.( S p.>.L }.",
"%.`.q.>.n 8.i.|.{.1XaXtX*XL.0X0X=X*X{.oXT 1X2X2XeX;X`.2X:.;X0Xt.3XpX>.yXeX7XpX*X0Xt.t.U r eX%X7Xe.L F $Xp.p.|.( :.9.i.8.",
"n i.#X>.>.>.q. X3X2XyXtX|.-.`.;X0XyX3X{.L |.0X2XsXpXpX#X%X2X0X8X8XyXe.yXeX0XdX0XwXe.t.=X0Xe.0XqX4.0 0XyX2XL.|.*.8.|. X#X",
"0 S >.( ( J.J.p.X.*XOX X<.e.2X{.-.*X=X+XF 2X=X|.t.{.).C.4.%X;X;X;X=XF  X+X|.<X2X2X^  X&X=X-.;X%X( r.=X-X-X|.C.,.).}.`. X",
"*.~ t.J.H e.3X= ` 6 +Xt.*X[.[.;X+X+XwXrX[ 4X3X<X;.U =X<X[.&X0X0X0XpX^ T +Xp.<XoX0X4.B.3X9XOX2Xr P oX<X9X9X9XqX1.8X8X;X$X",
"W 9.7.q.-.0Xe.* 8 0XyXyX3X9XwXeXtXsXtXpXy.aX+XL.G OXyXqXOXyXeXeXwXeXB.yXyX0XhXyXwXL.gXtXwXwXeX Xf pXtXwXwX0X3Xy.0X8XyX].",
": $.7.~ u p.J. XJ.dXtXtX XL.0XyX3XyXyXyX,.wXqX:.e.eXqX2X&XyXtXqXeXeXL.yXeX3XyX0XeX].aXwXwXwXeXyXC.<XeXwX7X3X@X%XyXtX X`.",
"@ 0 0 @ . *.L.^ r J.L.J.H ^ %X|.( J.J.+Xd e.L * k |. X4.;.=X*X*XoX XK ].+XL.[.%X+X^ [.=X*X%X&X X} r.+X*X@XL.5.5 e.p.F 9.",
"%.i.8.8.-.G %X=Xo.8 O J.8X| oX%Xt.&X2XpXo.&X%XOX%X( } s r.3XeXeXeXpX,.+X9X+X8X9XyXB.9XqXyXqXqXeXP.oX[.+XqXqX4Xt.OX*XOX|.",
": 0 9 e.p.pXyX9X;.R 2.aXeX3XwXeX*X0XpXpX6.yXaX7XgXeXK 3  XeXwXwXeXiXC.yXyXyXhXsXyX].gXtXyXwXwXwX{.pX8XC.3X0X0X%X7X2XwX#X",
"W u J *.J.yXwXp.U &XyXtX=XqX7X;X{.pXyXyXe.pX9X2X8X<.| ;X XyXwXwX0XeX8.pXyX0XpXuXwXe.;XtXwXwX0XwXL.yXyXp.+XtX0XJ.0X;Xi.i.",
"t *.L * (  X4., k 4X2X*Xp.o.' C.H |.*X XU XX;X<Xy.[.=Xy.L 3X;X3X=XoXP ;X*Xe.].8X=XT r 9.-X%X2X*Xo.r.*X2X-.J.( 6 8.Q :.t.",
"q.7.u - -.&X^ = L.@X3X8X,Xy.;X0.Q ].`.)._.#Xu._.#X_.}.}._./ }.}._.}.#X*. X_.u.:.}.p.=.*.8X;X3X8X[..X=X0X*X+X%X:.<.3 2 ` ",
"(.'.w S ].yX4.f qXtX3XaX3X8X3X> J.mXcXaXjXbXMXNXbXNXbXMXbX;XbXbXNXMXNXNXvXMX;XxXvXkXE n 0X8X3X0X{.yXyXpXuX2XqX-.3XqXR Y ",
"t 4 i./ ,.T {.qX*XwX;X+X&X;XeX9.bXrXmXtXdXcXjXzXzXlXcXkXgX0.hXzXzXzXkXcXcXlX'.hXcXuXvX>.eX0X%X0XL.=XwXqX8XpX[.+XqXrXV.2 ",
"o :.:.5 O =XqX3X3XwXaXtX Xp.qXu.NXzXX.t.q.`.*.>.q.u.i.).0.%.i.q.i.i.q.=.q.(.8.|.>.nXcX>.qX8XeXeXy.*X9X3X=X&X+X( 3XqX.X= ",
"2 K u * * 6.C.P.6.p.P <.( d ].8.MXzX) l.^.Q.l.f.W.~.W.W.W.W.W.W.H.Q.W.) U.^.Q.d.~ vXbX/ y.4.5.r 6 d r.L.C.P.[.^ 6 k -.>.",
"r ` ` M.( qX2X X.X[ _.uXeX7X-X8.bXzX) W.Q.Y.z.f.S.S.W.~.Q.T.H.F.~.H.!.s.U.b.U.x.Q vXvX7.eX8X3Xp.3 yXqXqXwX8XyX' r wXpX#X",
"3 n.] ] e.%X=X[..XX.uXsXqX8XeX*.lX7X< j.v.b.C a A A Z Z Z Z Z Z Z Z Z i h.v.h.h.v fXhX7.yX;X8XqXy.uXaXyXwX3X*Xe 2XyX$X$X",
"3 , f I s r.C.X.- T P.p.,.;..X/ yX'.+ h C a i # # ; + ; # # ; + + ; + ; ..h _ a > 9X9X! oX#X|.|.[ 5.{.L. X^ 7 } |.OXi.].",
"J * &.r.o.d  Xy.( =X6.&X=X6.;X8.jXkXq v.b.g.s.i Z A < Z a a A < p A V M ^.v.v.j.E vXkX,.wX8X8X&.s P.3X3Xr.].8X;.8X9X7X|.",
"=.}.0 0 u eX8X=Xp.2X0XtX3X8X2X9.vXzXp v.R.S._ s.v.D.C D.s.C H.h j A.g._ ^.A.A.f.E vXxX8.eX0X8X{.8 uX2X2X3XsXpX%XyXaX7X-X",
"E -Xt o ^ qXyX*X( ;.2XtX*X=X0X9.NXzXa v.G.G.j k.D.F._ !.c.d.S.g.x G.z.h.^.T.D.v.Q bXbX7.qX0X X2X[.OX{.=XtXyX2Xy.0XpXwX%X",
"@ > * 6 <.p.J.<.T t.y.J.<.( ].9.NXkXp v.v.Z.s.k.v.R.x ~.Z.d.A.z.x Y.a.g.^.S.D.j.Q bXbX( .Xe.r.J.L T 8.4.X.t.L 5 i.`.~ ( ",
"f f 3 o u - e.[ } 4.3.R P.,.OX9.MXkXp G.Z.Z._ f.F.Y.x A.Z.g.A.f.x Y.g.h.^.R.!.k.E nXvX:.3XyX3X3X5.o.R C.2.R I.3 [ Y | [ ",
"y f 8 O.f I.f O.I.+.@.N.@.4XyX9.vX5X< Z.G.Z.s.d.c.T._ T.F.g.A.z.x E.g.s.^.D.F.x.v aXlX:.qXgX3XqX[.4XV.m.O.V.M.{..XV.3.+.",
"{ 6 d ` {.,X4Xn.3.3.3.+.3.<X8Xv i.#.< D.G.Z.s.*.*.Y._ F.S.d.Z.x.x c.u.E ^.S.v.v.> /.(.Q qXyX3X0Xp.o.V.I.O.@.M.2.[..X1.+.",
"6 6 1.V.;..X,XK.m.3.@.M.+.oX8Xq.vXkXq v.Z.Z.s.c c z._ T.R.d.D.c.z z.D c ^.T.A.v.N nXkX7.2X,.3X3XP.uXV.m.@.M.N.1.XX@XB.O.",
"2 l l k * 1.m.m.1.M.m.3...1.&Xq.NXzXB j.D.Z.s.< s b.x Y.R.d.D.c.h b.7 9 ^.H.~.v.V vXxX4.rXX.&X.X,.y..XN.n.O.- T 6.L.1.3.",
"` f 6.6.H [ o.o.P oX+XoX} t.+X0.NXkXM j.D.v.j g.D.D.z Z.v.j D.x.x F.z.d.^.D.H.j.#.NXvX7.=XL.X.7 ^ L.{.&X+XH 2.[ 1.o.) ^ ",
"m.] { 1.H ` n.@.4X{.=X3XL.4.2X8.NXzXB v.F.A.j A.A.G._ G.Z.C v.z.x A.g.g.^.H.Y.v.#.nXbX8.;X8X9XC.- qX3X<X;X&Xs o.Y O.3.3.",
"Y 3.` u P ` O.M.{.+X+X3XoX=X=Xq.MXzXq v.D.A.s.f.G.D._ R.Z.x G.s.z E.g._ ^.H.b.j.#.vXbX8.<X8X=X3XB.{.=X3X=X=XI.3.` 1.' , ",
"= 7 3 O ^ O.O.] o.I.y.3.1.X.L.9.MXzXp v.A.A.j s.Y.F.x ~.S.j A.k.x F.z.h.U.~.D.j.Q mXkX7.%X XoX[.} ^ B.L.C.O. .R f P - P ",
"k 1.m.N.^ @X&X@X^ .XqX9X<XB.P.q.vXkXq h.k.h.h Z c.k.a h.k.a f.d.g k._ _ b.j.j.f.Q vXvX8.rX9XrXeXC.d ^ rXrXrX4X1.V.V.| O.",
"Y I Y O.' `  .M.<X&X@X&XoX3 d u.cX6XK @XI.:X1.n.:X:X:X:X:XXXXXI.:XI.XX] I.:X@XXXB iXcX8.3X2X;X8X{.R 5 ].=X+X>XC.Y m.3.s ",
"7 +.O.` Y ` V.O.m.V.I..Xn.6.=XS /.%.a l.Y.Q.a.s.R.D.F.A.D.G.S.R.Y.G.Y.C U.W.b.x.1 7.u.~ 8X2X2X3Xp..X{.[  X@XV.[ Y O. .8 ",
", s ] Y Y O.R o.e 3.N.3.3.4.=Xi.MXhXI d.W.c.x h.E.E.F.v.v.v.v.v.v.F.T.s.z.x.W.d.B cXvX:.3X=X=X3Xt.-.=XL.} 6.o.} { Y * } ",
"G 3 3 8 G = ^ ^ d 6 5.| 4.^ r 8.NXzXB < p V p B V V V V V p a V V V V q f g q < $.MXvX%.@X.X.XN.o.| P e.1.= * % T = y Y ",
" .+.3 o 6 1.M.m.6.] Y [.m.<X8X8.cXuXxX7XdXzXNXbXxXbXMXvXvX0.zXvXNXvXNXNXvXjX7XgXkXpXvX:.8X9X3XpX+X+X3X*XL.` = [ ] U { r ",
"f = } ^ r { ..I G k f 3.m.=X*X=.9.zXxX7XdXcXvXxXvXvXxXcXhXi.cXvXvXvXzXcXvXzX-XgXkXjX7.$.<X9X=X8XB.@X@X.X3.f f k k V. .2 ",
"@ * P l 8 Y * X G Y 3.O.` r.+Xc 9 =.$.v b %.%.%.$.$.#.$.E 9 %.$.$.$.#.#.=.%.v Q $.Q > m &X&X&X X[ B.P.o.3 ' 8 8 ] { f O ",
"8 ^ ( } R [ ' 3 O 3 ,.-.,.} [..X2.r.oX+XP ^ e.p.P.{.B.2.d y.oXoXC.& 6 s r.;.4.B.U 9 &.}  XF d r.( ` 1.5.R } 3 = R R s q ",
"I ' ' ..s ` m.{ 8 ^ l k +.+X&X8X&X3X=XK.` 3X3X2XqX=XXXm..X;XyX=X&X{.r P.@X{.,Xo.7 1.rX=X+X;.&XoXO.V.' 3. .Y k | { O.I { ",
"5 U ] R U I Y  .P l r R l [.=X3XI.+XI.m.o.4X XL.<XP.I.3.N.=X3X=X<X@X} } 3.1.XXI.^ ` 4X&XN.,.oXK.R V.+.I G R m.R Y ] I ] ",
"5 q I I = s { ..8 +.O.% - 5.=X@XK.XXI.+.r +XP..X+X.X6.O.B.&X&X&X.X3.r ` P o.oXR n.I oXP.I.@X[.3.I 3 6 % R O. .[ ` ..I ` ",
"0 t J V 8 y r 3 G R I | 6 * k O.I R R o.3 k G o.{ R ( R G Y [ } } k 2 % f u ` ^ ;.r R l o.X.[ ' = * * k U d * 0 [ G f F ",
"n W J ! P Y  ...O.R ' ' ' } } I ! U B K y ' ] K 2.U V N Y } ..+.Y 1.6 } ! U ;.! n q ..1.{ O.` P 7 P | +.+.Y ! P Y ! %.E ",
"4 Q v 2 0 0 P ..] ] I f y d N ! B ' B n 3 y U Y } N n e q f ] ] K d 3 y ! I &.N N 5 d B P ] P % - | I O.{ G n , n ! ! E ",
"b > 1   @ r B B 0 d d U 7 0 N ! n y n N : K K ! q N y 5 6 y s e y d 2 N ^ B y B N * 4 G q % O l f s d N y : % o 0 N e m ",
"* E $.F n :./ ~ E ~ W W F u W ( N E ( n 5 t E N / / J u 6 W Q Q W K : t ~ n ! / e u Q o F 0 ~ W e e F Q Q q P 5 t L E $.",
"$ : b m n b 0 v Q S S n J v b 4 w S D b w m t w Q m m v b m 4 4 w D w m 0 v $.E c 9 7.%.9 0 m b 0 D E v m Q v w v 0 v E ",
": 0 > 9 0 4 m > W S v 1 0 @ w b 1 S 4 9 : 0 m 4 E w 4 w & 1 m w 1 b 9 c D 1 $.9 9 1 9 w m & 9 4 1 9 4 m b 4 v v b D > 9 ",
"Q S @ @ @ > #.& > 9 w 1 @ : & > & 1 > & . & v 1 1 > @ o $ : m 1 > $ o 1 & & 9 & > X E > 0 1 & $ o & > m 1 > & X 4 > $ 4 ",
"  @   4   . o     0 E Q 0     o   1 4 . % m E 0 .   b $   t @ .         1 $ . . .   o   9 S * o . w . X     .     @ u > ",
"      1 o     & 9   o > n         . E S * 0 & . o o     . $   . o   . t %     & *     X X : & o       o .   *   o S : & ",
"                    o .       : 1 o   * . .   $                       1             . n &                   1 .     1 X ",
"                              & *         X           .                                                 .               ",
"                                                                                                                        "
};
