/* XPM */
static char *exit[] = {
/* columns rows colors chars-per-pixel */
"50 50 235 2 ",
"   c #010101",
".  c #060709",
"X  c #07080B",
"o  c #0A0B0D",
"O  c #0C0D13",
"+  c #130D13",
"@  c #0E1116",
"#  c #131215",
"$  c #14151B",
"%  c #1A171A",
"&  c #241C1C",
"*  c #1F0C20",
"=  c #1A1A25",
"-  c #1B1D25",
";  c #260E26",
":  c #251A24",
">  c #31192D",
",  c #3A1B33",
"<  c #1F212A",
"1  c #1D223A",
"2  c #252123",
"3  c #2B2324",
"4  c #22232B",
"5  c #29272B",
"6  c #2D2B2C",
"7  c #322A2B",
"8  c #352929",
"9  c #38312F",
"0  c #252933",
"q  c #272A34",
"w  c #2A2C35",
"e  c #2C2E39",
"r  c #352B35",
"t  c #2F3239",
"y  c #343234",
"u  c #3A3333",
"i  c #33333B",
"p  c #3A353B",
"a  c #3C3A3B",
"s  c #41292E",
"d  c #46263B",
"f  c #442A3C",
"g  c #433636",
"h  c #433C3C",
"j  c #4A3D3C",
"k  c #5C3238",
"l  c #67373C",
"z  c #763D3E",
"x  c #4B413F",
"c  c #52423E",
"v  c #74453C",
"b  c #2B3048",
"n  c #363743",
"m  c #3A3B44",
"M  c #3C3E4A",
"N  c #443C42",
"B  c #4A3943",
"V  c #553044",
"C  c #6B3B42",
"Z  c #723D42",
"A  c #3E4148",
"S  c #3D4352",
"D  c #4C4343",
"F  c #42444C",
"G  c #484748",
"H  c #4B444A",
"J  c #524544",
"K  c #544846",
"L  c #554B4B",
"P  c #5B4D4B",
"I  c #5C514D",
"U  c #434552",
"Y  c #484652",
"T  c #464953",
"R  c #4B4C54",
"E  c #4B4E59",
"W  c #554D52",
"Q  c #4E5159",
"!  c #555453",
"~  c #5C5353",
"^  c #52535C",
"/  c #5B5959",
"(  c #5B5B5C",
")  c #674648",
"_  c #794544",
"`  c #63524E",
"'  c #6A564E",
"]  c #74514C",
"[  c #635452",
"{  c #675655",
"}  c #655A55",
"|  c #6B5A56",
" . c #645B5B",
".. c #6B5D59",
"X. c #725D58",
"o. c #5F605E",
"O. c #64615E",
"+. c #6E625D",
"@. c #74635C",
"#. c #79665E",
"$. c #575966",
"%. c #5B5D63",
"&. c #625E62",
"*. c #5E6366",
"=. c #5F6473",
"-. c #636364",
";. c #6C6463",
":. c #6C6867",
">. c #62636A",
",. c #66696B",
"<. c #6C6C6C",
"1. c #736662",
"2. c #746A65",
"3. c #7A6A66",
"4. c #7C6B64",
"5. c #746D6A",
"6. c #78726E",
"7. c #656B72",
"8. c #6B6E72",
"9. c #6E6E70",
"0. c #6E7377",
"q. c #6D737B",
"w. c #737373",
"e. c #7A7573",
"r. c #7C7A76",
"t. c #73767B",
"y. c #75797D",
"u. c #7B7C7C",
"i. c #863F48",
"p. c #874A48",
"a. c #954D4A",
"s. c #865347",
"d. c #995A4C",
"f. c #995653",
"g. c #A6564E",
"h. c #A65752",
"j. c #B35E53",
"k. c #976D59",
"l. c #B16D4D",
"z. c #A96653",
"x. c #A96851",
"c. c #B86755",
"v. c #BC7452",
"b. c #84736A",
"n. c #83736C",
"m. c #88746A",
"M. c #827572",
"N. c #827A76",
"B. c #8B7D76",
"V. c #847D7A",
"C. c #B07D67",
"Z. c #C26D58",
"A. c #CC745A",
"S. c #C87858",
"D. c #D37B5D",
"F. c #C67B63",
"G. c #D77F60",
"H. c #7F817E",
"J. c #84817D",
"K. c #8B827D",
"L. c #948379",
"P. c #BA876D",
"I. c #A58B78",
"U. c #D6875D",
"Y. c #DA825E",
"T. c #E38A5F",
"R. c #C88C68",
"E. c #DB8662",
"W. c #E58B61",
"Q. c #E79365",
"!. c #E5A170",
"~. c #767C83",
"^. c #7A7E83",
"/. c #867F80",
"(. c #7D8285",
"). c #7E878B",
"_. c #838483",
"`. c #8A8582",
"'. c #878987",
"]. c #8B8985",
"[. c #848589",
"{. c #848A8C",
"}. c #8B8C8B",
"|. c #958A84",
" X c #938E8B",
".X c #8F918D",
"XX c #94918D",
"oX c #9A938D",
"OX c #888D91",
"+X c #8B9493",
"@X c #949592",
"#X c #9A9592",
"$X c #969996",
"%X c #9B9B96",
"&X c #9C9D9A",
"*X c #A2968E",
"=X c #A39A94",
"-X c #A19D9A",
";X c #95A19B",
":X c #9EA29D",
">X c #A3A39E",
",X c #A8A39D",
"<X c #8F9CA6",
"1X c #A4A5A2",
"2X c #A9A6A4",
"3X c #A6AAA5",
"4X c #AAABA6",
"5X c #A7ADA9",
"6X c #ABAEAA",
"7X c #ACB1AC",
"8X c #B0B1AD",
"9X c #B2B3AE",
"0X c #BBB6AF",
"qX c #B3B6B1",
"wX c #B5BAB5",
"eX c #BBBBB5",
"rX c #BABCB9",
"tX c #CE9D82",
"yX c #DCA984",
"uX c #BDC1BC",
"iX c #C4C2B5",
"pX c #C4C4BA",
"aX c #C4C9C5",
"sX c #CED4CA",
"dX c #D7D9CD",
"fX c #D5DBD3",
"gX c #DDDDD2",
"hX c #E2DFD6",
"jX c #DCE3D6",
"kX c #E2E4D5",
"lX c #E4E7D8",
"zX c #E5EADA",
"xX c #E9ECDA",
"cX c #EEF2DF",
"vX c #F2F4E1",
/* pixels */
"p $ Q ( q.~.*.y.H.0.E ,.H.8.(.{.H.Q 0.0.t.).H.5 E q.~.q.! (.(.y.0.{.Q A % .X>.t.R (.~.(.{.7.$ F T O ",
"A $ O A ,.*.F ,.,.%.A *.7.0.8.-.Q R w.6 A *.Q y O ( ,.%.A y.y.7.0.<.p + % % >.T y H.R R ^ a y A o y ",
"U (.8.R y.'..XwXwX7X-.:X7X7X7XL.e.,.7X.XuXr.H.! w.7X&X1X{.5XqXqX7X7X9.-.u :.5X5X,.(.G H.^.w.( (.w.{.",
"T (.(.( 7.y.;X1X1X7X9.w.+X>X>X;XK.*.1X:X1X7X>X<.:X3X.X1X'.uX5X1X:X>XJ.:.3X5.:X&X/ y 5X$X'.<.*.t.H._.",
"w ^ 9.! [.[.<.$X:X.X( .X.X<.%X:XJ.*.,X.XJ.H.$Xo.;X:X>X:Xo.@X:X@X1X3X:.J.$X$X_.>X/ XX:X:X'.9.w.[.(.$X",
"*.,.'.o.6.'.g c H.J.J.].&X$X>X6X3X:.;X:X~ H.>X5.oX6X6X7X5.:.@X@X#X1XJ.XX6X3XXX! c :X3X3X4XXXe.2X:X$X",
"A %.(.0.5Xo.3 '.wX5X].:X5X>XuX7X7XJ.3XJ.x >X7XJ.6X7X7X5XXXwX7XwX3X7X.XaX6X6X3X%XP wX7X5X3X].J.3X&X{.",
"$ E A # :.eXe.qXqX9X:.%XuX1X7X7X,X:.3Xa ,.qXqX6.7X7X7X7Xr.uX7X:X6X9X'.qX7X7X7X7X5.7X9X7X>Xr.u.7X.X+X",
"E $.%.G 9 u.;.x < / 2.~ V./ r.}.oX! <.<./.L ~ p oX2X1X&X:.e.=X/.XX-X2.|.1X1X>X>X} L.e.,X>X6.( y.>.^.",
"< p ^ '.6X7XXX5.` 7XXX:X3X1X9X7X6Xw.wX1XaX-X3 ! 3X5X5X5X#XwX7XrX5XwXXXaX5X7X5X5XJ.uXXX>X1X].@X:X1XOX",
"R R %.r.7X6X! V.7X3X_.1X:X`.pX7X1X5.6X:X-X .%X:.7X3X5X3X'.rX7X6X7X7X_..X7X3X3X5XH.7X7X6.5X.X'.:X{.y.",
"4 n 4 6 ( G 8 ;.H.r.L L 5.<.'.;X%XJ.,X,X#X2X2Xw.}.6X6X,XJ.XX:X}..X2Xu.} <.0.u.u.D e.w.:.G y 6 a w G ",
"{.).: <.eX:.h pX7XuX@X>Xt.S 9X7X[.qXeX6XqX6X9X9X^.9X9X9XeX6XqX9Xy.9X4Xb (.7X5X9XXXeXqXqX9X&Xu.K.~ ..",
"Q y ^.w.u.:.#XwX%X;XJ.:X,.uXiXjX;XlXxXvXgXvXlXgX(.gXkXcXkXvXkXkX+XjXeXeXH.1X:X>XH.7XwX4X6Xr.%X3X*X8 ",
"@ t.^ O r.6X>X7XuX3Xe.@X0.zXdX'.q.$X{.q.{.).).).>.OX).).).~.{.OX(.(.gXdX'.:X7X5X6.3X,X>X#Xr.O.4XoX7 ",
"6 ~ u & 5.|.K.oXK H./ +.-.zXjXs.k.P.!.p.C.Q.F.F.F.F.F.R.R.) R.R.k.k kXgX8._._.D 3 :.K.XXXXK.L 6 e.y.",
"8 ` 4.6.:X$XK.=Xr.wX}.1X7.zXjX_ I.Q.U.p.c.c.F.A.F.c.Z.F.A._ F.R.C.B gXgX{.2X&X#Xu eXwX3X>X;X8 ].4X}.",
"3 { ..[ XX%X'.+.,X3Xu.&Xw.+Xy.; Z Z V % ; ; ; ; ; ; ; ; ; * _ Z _ * {.OXy.2X1X1Xe.7X4X5X.XG u.7X&X:X",
"3 : u.+.9 XXD e.O. X6.r.8.jXfX, c.a.i., V , d , , V , d d > tXF.c.> lXgX[.2X&Xu.D |.,X.X+.r.<.>X&X&X",
"=.%.F a &X3XXX>X5X7X`.1X8.gXjXf A.T.g.Z c.p.h.a.l G.l g.h.k tXW.c.d gXdX[.3X3X'.g wX&X%XwX%XXXwX;XOX",
"T ~.% u 6X7X].H.@X3XJ.:Xq.xXjXV A.Z.j.a.S.x.S.h.s.Y.a.l.l.p.yXY.A.f kXlX(.1X$X$Xr.1XXX5X6XK._.5X5X&X",
"# O 6 h ! <.G r.w.-.K ! ( xXzXB D.j.g.p.S.x.l.A.s.D.s.l.l._ yXW.D.s zXkX<.V.V.V.h R O.! o.a y o.R U ",
"J ` 7 3 ` 2.4.L.b.b.b.1X^.xXaXf W.Z.g.a.S.x.l.A.s.U.s.S.d.v yXA.D.f sXdX{.aXqXwXJ.*Xn.K.n.L.:.K.1.b.",
"L : | V.#XK.#.B.#.b.' 1X7.OX$.d G.Z.g.V ] l.v.v.s.Y.d.S.) B yXj.A., =.OX~.eX:X1Xe.K.L.4.#.@.6.L.n.@.",
"8 D L.M.oXoXL.L.@.b.' =Xq.xXfXf D.Z.h.b M d.v.D.s.Y.d.S.a 1 yXS.A.r hXfX/.e.1X1XJ.0Xb.4.n.X.r.XXB.b.",
"2 9 g $ P 2.} b.b.X.c 6.-.xXzXB Z.c.h.s _ f.l.A.s.D.d.l.v 3 tXW.Y.V lXhX/.u.5.V.! e.B.4.` & L 4.+...",
"| 4.B.-.2.4...>X1X>Xe.%X8.xXjXV A.Z.a.d.S.p.v.c.l Y.d.l.l.) tXW.G.r xXgX[.2X`.L L ,X,X1X6.P } 6.X.4.",
"b.' ..} ' #.L.>X X-X5.'.8.kXjXf A.D.g.h.S.p.v.Z.v D._ S.d.C !.W.G.f lXlX^.-X>X%XK 1X,X%X-X` +...X.H ",
"8 c 3 u n.4.@.:XoXK.;.|.>.xXjXV Z.Z.g.l E.p.v.c.Z G.d.v.v.l R.Q.Z.B kXkXXX-X,X:X .'.oX#XL.X.` [ L B ",
"u @.N.! K.L.5.n.#XoX6.N.( jXfXV j.g.i.C Z.Z a.z.l z._ p.d.l C.F.c.f kXgX/.%X%X-X;.u ].=X-X].} 5.| X.",
"K P X.1.` #.B.2X X=X6.u R dX<XW |.I.C...I.I.I.I.I.I.I.L.I.] L.I.|.B <XsX^.&X:X>Xr.! j XX XB.| X.4.J ",
"8 X.#...` 4.| N.B.n.|  X&.~.7.C s.P.G.p.Y.Z.h.h.h.g.D.D.Z.v R.C._ k 8.t.q.:X:X>X5.&XK.J.oX@.[ ` ` p ",
"+ 3 j g J 7 3 g J J g h G kXjX) ) d.p.z h.z.f.f.f.f.f.f.h.k a.f.K d lXgX .6.5.2.B 1.! 9 x 2 9 7 # 8 ",
"#.[ # u I |.M.K.6.K.e.oX,.xXiX7X7.5XpXpXeXpXpXpX$.7XpXpXpXpXuX5X8.7XeXkX'.6XqX9XK.oX,X%XP & } L P ~ ",
"D 7 ;.8 ' @.K ..u @.+.:Xy.,.dXkXOXzXcXlXxXzXlXfX(.lXlXcXlXlXxXzX+XkXdX0.t.,X>X>Xe.,XXXN.x 7 x +.#.8 ",
"+ 8 J 7 j % # ..' ' x N.&.b $.^ w T %.%.E $.^ U r $.$.^ Y E $.^ n $.Y = -.`.].r.D J.#.& c 3 g I j # ",
"j } +. .[ { 3 3  .P I M.XXV.oX XN.O.K.].#XXXn.~ `.XXXXO.% e.K.N.4.~ K B.V.t.D w.} 2.#.O.I 3 ! ` K u ",
"h K | P K 1.' P 3 I K %X1X X=XoXb.O.%X@X,XoXM.4.%X3XXX#X2.6.K.K.M.K X.7XXXK.J.L.` n.` ` c P P | [ X.",
"4 P ' j B ` P 4.#.# # K.%X].*XL.X.+. X].oXL.1...%X&X&XK.I +.` N.n...|  XXX2.|.K.c L h 9 b.` I ` P P ",
"w p W h g j u { [ +.2 h @...[ ..O.6 x 4.| &.1.g +.2.1.} 7 7 D K ..:.D | } 3.2.} 2 # u P K % D ` D W ",
"n Y R K P X.1.1.I ` h P [ H { H N g [ H 4.L N g ` X.X.P B ~ W  .H H p | { X.{ j 2 ` X.4.P N D [ R T ",
"i M = - : j [ } K x 7 p H Y K N m 7 H [ K m m : B P J H r h  .H B h 5 w ` J x & 9 I ` ~ B 2 - R H U ",
"= q 4 + W N 6 p N G # y N p i p 4 2 i p i h 6 + r p n y # p m i p u % m : % # p 3 y y m $ & X i t M ",
"- A Q E E M E =.^ R m F Y m E $.F e S m >.$.N n E m A U a U A E E Y n q.G i Q E y Q ^ Q E r i Y i =.",
"$ < e t q m 4 T n w 4 $ F - T q q q n w S w t $ 1 M w q t S A t M w q e m q 4 q - q e n w e i U < e ",
"A w O . - S O 4 e - . $ $ $ = = @ . q < < $ O X $ w = @ o - $ = = O O b $ q q O . @ n 4 $ @ $ = @ % ",
"    $ <     $ O q m n       O U X t n 4 . % t   < .         <     %     X t q % O q           $ < $ ",
"            @   . X o     @ . @ A . o O               . X m X   . o     w X           o   q   $ % O ",
"                  .       T                 .                         . .             .           X ",
"                                                .                                                   "
};
