/* XPM */
static char *wall[] = {
/* columns rows colors chars-per-pixel */
"60 60 225 2 ",
"   c #06060A",
".  c #06060C",
"X  c #0A0711",
"o  c #0C0C13",
"O  c #0F0E1A",
"+  c #100D1B",
"@  c #0F1016",
"#  c #101116",
"$  c #13131C",
"%  c #16181E",
"&  c #1A1A1F",
"*  c #151422",
"=  c #191625",
"-  c #171921",
";  c #1B1B25",
":  c #191729",
">  c #1D1C2A",
",  c #1F1D32",
"<  c #201F2C",
"1  c #211E32",
"2  c #1F202A",
"3  c #22232D",
"4  c #27282D",
"5  c #242333",
"6  c #292635",
"7  c #262834",
"8  c #2B2B34",
"9  c #252539",
"0  c #29253C",
"q  c #27283B",
"w  c #2C2C3B",
"e  c #2E313D",
"r  c #32333D",
"t  c #37383E",
"y  c #2B2744",
"u  c #2D2D42",
"i  c #312F46",
"p  c #2F3141",
"a  c #323344",
"s  c #373846",
"d  c #3B3C44",
"f  c #35344A",
"g  c #36394A",
"h  c #3A3C4C",
"j  c #3C3D52",
"k  c #3A3855",
"l  c #403F4D",
"z  c #403F55",
"x  c #3E414B",
"c  c #3E4154",
"v  c #3F4358",
"b  c #44454D",
"n  c #494A4D",
"m  c #424454",
"M  c #464954",
"N  c #4B4C54",
"B  c #43455B",
"V  c #48465F",
"C  c #464A5B",
"Z  c #4B4C5C",
"A  c #4D525F",
"S  c #525457",
"D  c #52535D",
"F  c #474764",
"G  c #4B4D63",
"H  c #4C4D6A",
"J  c #504D66",
"K  c #4D5263",
"L  c #4E536A",
"P  c #525564",
"I  c #555A64",
"U  c #5B5C64",
"Y  c #52556B",
"T  c #585769",
"R  c #555A6C",
"E  c #595C6D",
"W  c #545671",
"Q  c #555B72",
"!  c #5A5E73",
"~  c #5A5C7A",
"^  c #5C626E",
"/  c #576075",
"(  c #5D6274",
")  c #5D647A",
"_  c #5F687C",
"`  c #62646C",
"'  c #696A6D",
"]  c #626574",
"[  c #636A76",
"{  c #696C73",
"}  c #62657C",
"|  c #646A7C",
" . c #696D7C",
".. c #6B717C",
"X. c #74767A",
"o. c #76787B",
"O. c #5E6981",
"+. c #626681",
"@. c #656C83",
"#. c #676B87",
"$. c #6A6D84",
"%. c #667086",
"&. c #6C7384",
"*. c #6C758A",
"=. c #6D798D",
"-. c #727584",
";. c #757A83",
":. c #7B7E84",
">. c #72778A",
",. c #747B8C",
"<. c #797C8E",
"1. c #6D7991",
"2. c #747D92",
"3. c #7A7D93",
"4. c #777E99",
"5. c #7F8185",
"6. c #7D828B",
"7. c #758194",
"8. c #7C8394",
"9. c #7F8994",
"0. c #76839A",
"q. c #7B859B",
"w. c #7D8A9D",
"e. c #7F87A0",
"r. c #7E8CA1",
"t. c #7E90A5",
"y. c #84868B",
"u. c #85888B",
"i. c #818493",
"p. c #858B95",
"a. c #8A8D93",
"s. c #81869B",
"d. c #838A9B",
"f. c #898E9B",
"g. c #8C9196",
"h. c #87909D",
"j. c #8C929D",
"k. c #95989C",
"l. c #949A9E",
"z. c #838DA2",
"x. c #878DA5",
"c. c #8491A5",
"v. c #8B94A4",
"b. c #8E99A4",
"n. c #8594A9",
"m. c #8B96AA",
"M. c #8D99AC",
"N. c #9195A4",
"B. c #939BA5",
"V. c #9A9EA2",
"C. c #9196AB",
"Z. c #939CAC",
"A. c #999FAD",
"S. c #8996B2",
"D. c #8D9BB1",
"F. c #929DB2",
"G. c #989FB2",
"H. c #9CA1A4",
"J. c #96A0AF",
"K. c #9AA2AC",
"L. c #95A2B4",
"P. c #9BA3B3",
"I. c #9DA9B5",
"U. c #96A5BA",
"Y. c #9AA6BA",
"T. c #97A9B9",
"R. c #97A9BB",
"E. c #9CAABB",
"W. c #A2A6AB",
"Q. c #A5A9AC",
"!. c #A3A9B5",
"~. c #A4ABB4",
"^. c #A9AEB4",
"/. c #A3ACBB",
"(. c #ACB2B6",
"). c #A4B1BC",
"_. c #AAB5BB",
"`. c #ABB3BC",
"'. c #B0B2B5",
"]. c #B1B6BA",
"[. c #B5BABE",
"{. c #9DACC1",
"}. c #A2AEC1",
"|. c #A8AFC3",
" X c #A5B2C2",
".X c #AAB4C3",
"XX c #ADB9C4",
"oX c #AEBBCA",
"OX c #B1B7C3",
"+X c #B2BBC4",
"@X c #B2BDCA",
"#X c #B7C1C6",
"$X c #B5C2CD",
"%X c #BAC4CC",
"&X c #BEC9CE",
"*X c #B4C3D1",
"=X c #BBC6D2",
"-X c #BDCAD4",
";X c #BECED9",
":X c #C3CBCF",
">X c #C3CDD4",
",X c #C0C7D8",
"<X c #C2CED9",
"1X c #C5D1D6",
"2X c #CAD4D7",
"3X c #C4D3DC",
"4X c #C9D5DC",
"5X c #CDD9DE",
"6X c #C6D6E0",
"7X c #C9D6E1",
"8X c #C7D8E1",
"9X c #CBDBE2",
"0X c #CFDEE8",
"qX c #D1DEE4",
"wX c #D2DEE9",
"eX c #CFE0E4",
"rX c #D3E1E5",
"tX c #D9E4E7",
"yX c #D6E4E9",
"uX c #D9E6E9",
"iX c #DDEBED",
"pX c #DFEEF0",
"aX c #E0ECEF",
"sX c #E1EFF1",
"dX c #E2F0F2",
/* pixels */
"V.V.V.V.X.o.H.H.g.l.V.W.S u.H.C u.V.o.Q.` V.H.l g.l.l.H.n a.l.H.H.' y.V.H.V.o.X.H.N g.l.{ ' y.V.o.X.H.V.u.H.H.k.N H.H.H.",
"P.9X8X3Xb.K.9XeX8X9X9X9Xj.%X7X| @X9XtXtXB.XXXXm :X5X3X-Xs K.9X5X4XK.#X5X5X9X#XXX3X..v I :X1XB.>X] ^.eX9X9X9X5XeXg.-X5X9X",
"d.6X-X3X).XX3X;X8X8X7X-Xp.9.8.P 3X;X8X;X9XE b e $X3X-X! ; K.9X6X4XP.=X8X;X;X#X( ..9.uXH.P.-XP.x e _.;X3X3X8X9X-Xl.8X6X;X",
"v.6X9X9X).Z.5X3X8X9X6X7Xf.g.8Xp.,.3X8X8X3X! oXU C | v.4X;.a P.9X8X~.$X4X3X8XM.j.8X3X3X5X .f b.9X).#X3X3X9X8X8X;Xj.6X6X6X",
"Z.3X;X3X_ =.oX;X-X;X*Xe.h E.*X3X$.9.XX$Xv.N.oXP 4X] @X-XA  XY ,X&.* J.<X6X*X,.v. X-X6X3X<XT XX XE 8.*X-X;X*X*X1.Z @X=X1X",
"K Z T G 8 2 H B f 0 j O.: 1 F W B O : F B f F $ +.C.5 w o G &.+ y o : i k k 5 $ k L Y } v.z.u k 5 : B Z 9 a F L * Z P J ",
"+XaXaXaX].$ P r e d 3 P # 4 N 5 a D # m e * s X l Z $ ; d b h $ N b d 8 1 D b d Z 5 M A b N * 7 3 ; P 8 w d g M X.aXsXsX",
"v.-X6X3X_.L /.}.( a d.).[ v.M.-.Y.E.] P.&.d..XI Z.s.G d.Y.F.z.&.U. XE.w.} F.).E.M._ E.E.E.m.( /.b.(  XI.B c .X{.j.7X7X;X",
",.3X;X3X).B F.m.( U ( c.^ C %.R =.n.C @./ R z.j ! @.r.&.j Q _ x d.@.L _ F ,.<.G @.G &.2.H #.Y =.d.L L.c.R A =.n.g.;X6Xn.",
"8.7X8X8X<.6 $.j .X*XE. .$ q.M.t._ g c n.q.; | R R _ G *.q.n.w.j *.r.L.r.g v 1 2.n.r.L : 0.r.z.B 9 a | K oX$XJ.h o.9X,.+X",
">.C.C.b.w B q.J.{.R.M.a X c.c.w.8.a B c.%.L z.O.q.Q $.m.r.r.7./ m.r.c.w. ._ > x.t.0.1.= c.r.0.Y a } w.I. XU.c.+ 3 z i.M.",
"l u O < ; ; f R w.0.C C c q.c.w.O.n.B ) 2.} L +.q.w.h m L 1.} c *./ Q / p c | 4.n.w.) Q | 1.2.F.7.8 h ( q.2.f ( ; U 5 + ",
"g F 5 H 1 p ~ h q 5 $ L 5 B O.k ~ #.$ * 0 H $.f @.$.5 Y f Q _ 5 : @ ) =.w ) u m _ g +.u + 0 f 1.B h +.0 9 : 5 h = J e 0 ",
"U b   h 8 X ( y.6.-.N V.7 + w > 9 j 5 h w : h 5 R ....[ ; N ..{ { d K &.[ ] q w B q g 5 p 0 > i O $ ] 6.:.I :.;.# { 8 # ",
"z.m.B P.<.h D.1.n.q.7.R.| L D.E.F.$XL.9XP.} $XK.4XdXdXdXv.>XdXdXdX[.f `.dXiXXX=X5X>X=XL.OXZ.Y.m.L B r.r.n.| R.R.D L.p.K ",
"0 p < j w $ H M.r.&.] 8.A n.-XrXiX9Xz.v.-XpXsX+XuXiXdXiXK.iXdXpX5X#XZ.uXdXtXrX%XuXaXaX4XaXsXqX<XF.2 W L.2.&.| 7.> s 5 > ",
"#XiXtXpXW.m c.G 2. X Xc X 2.1XuXdXsX@XtXuXsXsXsXsXuXsXuX~.iXuXtXsX#X5XiXpXuXdXdX>XpXiXiXsXsXuX3X>.K r.c G.{.Y.$ S uX>XP ",
"v.9X8X9XI.j r.^ d.z./ a s z.=XrXiXsX/.rXsXsXsXsXaXuXdX3Xd.5XiXiX5X8.>XiXpXpXsXsXpXuX.X>XsXpX9X@Xd.C n./ m.q.H r ;.6X3X=X",
"K.6X4X-XX.X $ : f 9 $ ] a L z.@X>XqX&.-X9XqX1XqX1XqX/.$.j ~.1X&XJ Y K.-X9XrXrXrX4X~.] 3X9X$X.X2.R $ $ , 0 > ; | ;.,X8X1X",
"8.6X;Xv.o N H.;.9 - 5.l.4 7 *.P.OXOXE (.B.B.OXT !.OX!.W.M l.(.i.W.` p..X+X+Xg.p.[.`.^.OX%X/.B  .` ` V.N 9 r j.6...-X8X9X",
"} d.>.P 3 b././.K 4 P.).) ( $XuXsXsX(.sX5X5XsXK.aXdXdXdXd.tXdXK.dX#X+XsXsXsX5X4XpXdXdXdXdX7XG.9 $ /.}.Y.& ^ ).R.D j.v.J.",
"$ O o $ ; A n.&.a.`.-.B 8 v.3XtXpXsXs.j.9XsXaX!.dXdXdXdXK.`.K.+XsX/.P 1XsXdX5X#XrXdXdXdXiXiXuXY.Y 2.M.| I.C.a c X > o + ",
"f N { h 9 =.).K R.D.L.K $ w.7XuXiXpXqXuXaXaXaXp.dXdXdXsX!.!.sXsXsX>X%X-.qXaX@X1XiXrXdXdXsXiXiX-X=.M /.L.R.D.r K.7 u U ^ ",
"d <XoXP.  c / x L.D.%.Q E q.XXqX>XiXsXsXaXuXaXd.iXaXtXaXA.5XsXsXdX#Xb.B 4XrX2X+XaXdXaXdXpX9X9X X=.: a q.R.D.5 | $ N rXoX",
"-.Y.L.T 6.# : $ ~ $.9 u 5 j 2.G.!.,X%X/..X%XG.a 9.`.XXv.f 3.E..X~.I u W _.`.] G P..X.XoX=X/.C.$.c p ) f _ @.* : d -.,.E.",
"$ H z s.$.S [.{ 5 0 Z K.N P XX1X4X2Xi.:X>X4X>XU #X>X>X:X' `.-X:X>Xy.W.&X>X>XV.l.5XB.>X>X4X9X1X).I e [.d 0 1 i.V.r @XG j ",
"' b y.p.U v.@XM.o w J x.L G.rXiXaXiXB.tXaXdXaXy.uXiXiXP.H.iXsXsXXX/.4XpXiXiX1XXX`.5XsXsXsXsXyXrXE.K XXA 6 > 8.z.r g.{ 5.",
"~.C..X7X!.G | h X.a.m E : c.8XiXtXpXK.4XaXqX2.Y dXwXdXdXK.uXpXpXpX&XXXuXsXtX1Xp.>XaXsXsX<XsXuX9Xv.q I M :. .Z H 6.eX/.3X",
"d.3Xq.s...:  .;..XE.m.2.5 x.<XiXpXpXOXdXiX.X.X~.dXtXiXsXb.tXrXpXpX&X&XpXpXsX=X:XsXpXiXsXdXpXiX3Xb.a ^ B.}.Y.w.*.6.8X3Xm ",
"v.9X7X9X( e R R D.D.) h.;.#./.<XyXiXv.iXtXA.4X3.yXiXaXiX8.| #XpXiXP.%XsX5XpX#X+XiXrX7XiXiXuX6XE.*.B m =.m.c.E @Xp.3X*X-.",
"Z.6X3X3X( 3 V.e Q H ] =X[ 3 C ^ N.v.u | <.! $.: _ >.,.-.5 m h ,.;.w Z -.8.3.b h ,.8.h.z.A.8._ B 5 b y.h R B !.E.> V } 4X",
"G P &.( ; 3.-XP N S $ P # ..] ! Y.uXf.iXaXiX%XZ iXiXiXaXy.j.iXiXaX^.:XiXiXaX+X! qXiXaXiXiX-X( ] ^ L.-Xd P s * + + } ( K ",
"W.(.(._.a.e _ w E.Z.p. X^ 5 B E.tX9X/.sXiX4X<.Z sXsXsXsX-.T 1XsXsX%X5XaXiXdX&X@.-X#XrXsXsXiX`.v 5 C ) h oXE.> m N [.(.].",
"G.9X3X4X).e =.x B O.@.m.( R  XuX1XaX~.9X4XK.V.s.dXiXqXsXN.+X<.rXqX8.5X9XuXiX4XH.V.9XiXiXsX4XpX.XW m *.w ( 2.: s ;.9XeX4X",
"q.9X3X3XI.R q.Z ..G *.n.R e..XyXaXaX^ $.tXtXiXd.rXrXsX/.i !.] `.,.T :XiXiXiX&X3.qXsXiXqXpXsXwXoXq.( q.s <.q C.D.f.*X;X8X",
"F.9X3X9X~.> u > L.4.u @.2 p ) 4.x.C.h E | v.>.q | 8.<.T i b w s  .g T ,.8.s.m c ,.8.q.v.P.x.4.W a : ; B Z.} j ! { ;X8X9X",
"m.9X1X9X/ ; a.r 1 u * $   B E.9XpXpXz.sXsXpXqXT -XsXsXpXB.-XsXsX|.B.:XsXsXiXb.%XsXsXaXaXsXsXqX/.K r u.2 : r = X   f @X8X",
"h E | A * a /.K K /. Xf.G 7.;XuX-XiX@XsXpXpXiX`.sXqXpXpX`.qXdX9Xi.-.-XsXsXsX9X5X3XsXsX4XsXsXiX<X4.G /.r &..XY.8.3 h a } ",
"m p + m f a q.g ) t.r.%.F #.`.eXuXiXP.iXpX5XaXz.iXsXpXpXZ.9XsXqXsX].>XsXsXsX-X%XsXsXN.9XaXuXqX|.,.F q.3 $.z.q.$.C W 1 > ",
"$ y > k X $ P 8 u C v A o 9 %.b.G.oXZ >.P.OXA.g &.A.G.v.a | v.A.Z.H ] C.J.v.I K Z.,.H ~.+XG.v.#.0 ; D > f M B h   f , 1 ",
"K.c.3 p.{ ..@XXX| h b.$XI | 3XiXiXiXrXuXuXuXtX{ 5XtXtXtXo.:XtXtXtXl.].tXtXrX^.(.uXy.tXtXtXqXiX3X,...$X/.R B oX).s #X| 8 ",
") *.h q.) *.F.L.^ I ( Z.^ J.eXeXiXdXdXdXdXpXsXf.#X4XsXaXP.rXdXdXdXP.-XdXsX-X_.%X`.rXdXsXdXsXaX9XP.C U.n.D A 7.D.c 1.| m ",
"X.y.:.u.b g x.v E.oXY.] % 8.9XeXpXpXuXdXiXpXpXs.=XsXtX/.] iXqXaXdX:X4XtXuXsX1Xv.-XdXdXdXsXiXsX4X8.v 7.G ).XXm.h 2 6.6.;.",
"P.9X9XrXW.2 W m.R.L.z.e ; n.;XuXuXdX`.uXuXpX/.m qXiX$X$Xj.tXdXsXqX%X3XrXiXiX-X%XsXdXdXiXpXiXuX,Xv.e / J.E.D.7.o ..5X9X8X",
"9.6X8X8X~.a R v ) ) w / P | E.-XyXiXq.9XuXqXE H 4XaXB.9X|  .5XaXtXN.OXuX5XrXb./.dXrX9XiXuXuX;XY.$.g W j ) ( 9 2.5.;X9X9X",
"C.3XqX/.9 $ p r a 3 $ C @ : L ] b.v.; T <. .C 7 T *.C h 4 8 P | >.g C w./ ..e 7 =.&.z.q.h.P T P 9 * j u q ; 5 c @ &.3X3X",
"v.4X`.B.{ w Z.b.E.Z.6.XX^ K Z.| E..Xb v.>.Z.E.E.M.P.B &. X/.m.( E. X/.Y...E.b.A J.] E.).{.h d .Xv.h v.L.P.<. XE.I -Xh.3X",
"$.s.^ s.7 p 1.c.D.K ^ D.( K %.R w.m.C @.R E z.B j } q.q.@./ ) c m.%.R ( K M.7.v | G 7.2./ | K | z.h =.M.n.x 0.F.e b.^ *.",
"X.` b 5.S = $.>.*.L.v.A $ q.M.r./ B C v.7.> _ _ 1.K 1.) c c.w.h ] q.L.r.=.B B 7.n.w.L : v.r.v.G > g *.@.w.Y.p.p 4 y.r { ",
"`.wX&.qXB.+.m.L D.U.n.q . c.c.r.0.q c n.%.R t.O.w.1., T j r.%.Y D.r.c.z.r.G - q.r.r.2.* t.t.*.] h *.b.G /.L.q.o :.eX>Xp.",
"F.}.h >.M : T c Q @.a J m | z.7.} t.k Q 1.@.L / w.*.s.c.Q *.q.h ) ! w.r.=.$.*.L z.2.+.E Y O.w.S.1.> } p #._ 5 @.6.8X8XK.",
"w ~.oX<X!.o > * k 9 $ j o ; g 3 c B X 3 9 f F * a w q G 3 h j $ * X w g < F > $ s 5 z r ; 8 5 L 8 $ & 5 f = 3 q { ;X$X=X",
"b.9X5X4Xb.8 E.R X o ] ).C ,.C.P.r s.m oX/.q d.5 z..Xm 3.P. Xm.w B.h 9.$X] Z ( E s.~.P.}./..Xm <.T ! P.r $ X A.m.:.3X3X4X",
"( *.2.@.s : m q ! Y 5 } e w k R i ) ; P Z q F * f K 0 H G F f 7 ) g f R a B a < 0 B j G Y k w } m 5 m > 4.0 m F 8  .@.,.",
"a 3 ;.~.o.o._.[.p.H.V.N % y.^.i.; t g._.(.(.].d W.(.D K.V.(.^.6.8   g.].^.^.^.N 8 e W.^.^.^.P 3 o y.].+X6.(.Q.Q.N ^.V.< ",
"c.Z.J.-X_.A.3X6X8X9XXXqXp.%X;Xv.1XiX*X;X8X9X$X{ $X3XC 7XwX9X6X).pX..+X3X4X3X*XwXsX5.;XqXwX8X-.9Xl.!.8X9X6X3X$X=Xj.<X*X2.",
"..&.6.L.~.).-X3X8X4X8X;X6.).E.! 6.<X9X6X8X3X$X[ XX,._.v.8X8X;X6X8XB.XX1X3X3X8X8X-Xs d.6X7X6X^ P.w.#X<X6X;X8X3X;Xg.oX2.$.",
"T | =X..5 } 2.;X XoX*X7.B ; &.B : -.9.Z..X$X2.a 1 ( 3XZ.c.J.*X.X! > @.c.3XZ.M.p.v   a L.v.( < 5 3  .z.;XE.-X).0.7 a $XC.",
"r = = 1 * < W F i f h L O O i * * > : k f j G   : y k F , q H i a   9 G j j 8 < 9   : < 5 y + w a 9 H B y v F f . 1 * > ",
"l.; ; ; ; * 5 ; : 7 > 1 - $ ; - ; 5 ; $ - 2 > 2 2 > % ; 2 - > > 2 - : 5 - * $ ; % 2 $ ; 3 ; ; $ - - 1 = % ; 1 > % % ; ; "
};
