/* XPM */
static char *wall[] = {
/* columns rows colors chars-per-pixel */
"50 50 245 2 ",
"   c #03040E",
".  c #0C050E",
"X  c #14050E",
"o  c #1B040E",
"O  c #1E080F",
"+  c #050715",
"@  c #0B0612",
"#  c #060916",
"$  c #0D0A15",
"%  c #0C0D1B",
"&  c #140611",
"*  c #1B0512",
"=  c #140B15",
"-  c #1C0B14",
";  c #130D1A",
":  c #1C0D1A",
">  c #0F121F",
",  c #1B1117",
"<  c #14111D",
"1  c #1B131D",
"2  c #23030E",
"3  c #2B030E",
"4  c #31030F",
"5  c #220512",
"6  c #2C0412",
"7  c #230B15",
"8  c #2C0A14",
"9  c #2A0518",
"0  c #240D1A",
"q  c #2B0D1A",
"w  c #340513",
"e  c #3B0513",
"r  c #370B17",
"t  c #24131D",
"y  c #2A141B",
"u  c #2C191E",
"i  c #34151D",
"p  c #3C131D",
"a  c #0E1322",
"s  c #0F1729",
"d  c #141423",
"f  c #1B1622",
"g  c #1C1925",
"h  c #151828",
"j  c #151A2B",
"k  c #11192C",
"l  c #1B1C2B",
"z  c #2E0F23",
"x  c #221523",
"c  c #2B1521",
"v  c #231A25",
"b  c #2B1B23",
"n  c #231D2B",
"m  c #2C1C2B",
"M  c #381725",
"N  c #331B24",
"B  c #3C1B23",
"V  c #32162C",
"C  c #331D2A",
"Z  c #251D31",
"A  c #1C2234",
"S  c #1D263A",
"D  c #23212D",
"F  c #2D2328",
"G  c #2B222C",
"H  c #342226",
"J  c #3C2226",
"K  c #33242C",
"L  c #3C242B",
"P  c #34282D",
"I  c #3A2A2E",
"U  c #242433",
"Y  c #2B2533",
"T  c #2C2935",
"R  c #262638",
"E  c #242A3C",
"W  c #2B2C3C",
"Q  c #362634",
"!  c #332A33",
"~  c #3B2C34",
"^  c #332D3B",
"/  c #3A2D3A",
"(  c #2B313E",
")  c #3D3135",
"_  c #34313C",
"`  c #3C323D",
"'  c #3C393C",
"]  c #440514",
"[  c #490818",
"{  c #560919",
"}  c #46131C",
"|  c #5B181E",
" . c #660B18",
".. c #770C18",
"X. c #68121E",
"o. c #73121D",
"O. c #451A25",
"+. c #591826",
"@. c #52152B",
"#. c #691726",
"$. c #761925",
"%. c #6F1B32",
"&. c #47262B",
"*. c #57232E",
"=. c #432C33",
"-. c #4A2936",
";. c #552B34",
":. c #433235",
">. c #44343B",
",. c #47363B",
"<. c #4B3A3D",
"1. c #5A353C",
"2. c #533C3D",
"3. c #672735",
"4. c #752832",
"5. c #732936",
"6. c #1B2942",
"7. c #232D42",
"8. c #2B2F41",
"9. c #382E44",
"0. c #2C3243",
"q. c #2A354B",
"w. c #333443",
"e. c #3B3543",
"r. c #373947",
"t. c #3C3A45",
"y. c #343A4B",
"u. c #3B3C4B",
"i. c #293A53",
"p. c #333D52",
"a. c #3C3E50",
"s. c #333F58",
"d. c #412E45",
"f. c #443543",
"g. c #433B45",
"h. c #4C3C43",
"j. c #463948",
"k. c #523A43",
"l. c #6F384A",
"z. c #3E424C",
"x. c #3A4357",
"c. c #394A65",
"v. c #39516E",
"b. c #4B4244",
"n. c #43414C",
"m. c #484448",
"M. c #4A444C",
"N. c #534345",
"B. c #5C4547",
"V. c #554648",
"C. c #54494B",
"Z. c #5B4B4C",
"A. c #5D514F",
"S. c #444453",
"D. c #4B4552",
"F. c #464958",
"G. c #4B4D5A",
"H. c #554C53",
"J. c #564857",
"K. c #5C4E53",
"L. c #4B515C",
"P. c #5C5253",
"I. c #57565C",
"U. c #5C5459",
"Y. c #604A4C",
"T. c #694E51",
"R. c #764858",
"E. c #645354",
"W. c #685554",
"Q. c #645559",
"!. c #65595C",
"~. c #6C5D5C",
"^. c #70575A",
"/. c #735B5A",
"(. c #6C605E",
"). c #454E63",
"_. c #4D5263",
"`. c #495569",
"'. c #545563",
"]. c #595864",
"[. c #58576D",
"{. c #555B6C",
"}. c #5B5B6B",
"|. c #485A76",
" X c #685C63",
".X c #735F60",
"XX c #5D616C",
"oX c #5C6272",
"OX c #576579",
"+X c #6E6362",
"@X c #68666B",
"#X c #736463",
"$X c #776967",
"%X c #746B6B",
"&X c #7B716E",
"*X c #656873",
"=X c #646B7B",
"-X c #746C72",
";X c #7C7473",
":X c #787679",
">X c #84151F",
",X c #881B26",
"<X c #991C27",
"1X c #A01E2C",
"2X c #87232D",
"3X c #942731",
"4X c #AA2D35",
"5X c #C43A3B",
"6X c #9E2E42",
"7X c #883746",
"8X c #913349",
"9X c #8F4956",
"0X c #BC4F4E",
"qX c #A05564",
"wX c #806F6D",
"eX c #837775",
"rX c #847D7C",
"tX c #C35050",
"yX c #C76865",
"uX c #89817C",
"iX c #586B83",
"pX c #6B7485",
"aX c #6C788E",
"sX c #7A7B82",
"dX c #907F84",
"fX c #7D828B",
"gX c #768394",
"hX c #6F8BA6",
"jX c #858282",
"kX c #89878A",
"lX c #938B88",
"zX c #898B92",
"xX c #8B9298",
"cX c #979697",
"vX c #9B9DA2",
"bX c #9BA2A7",
"nX c #8FA7BA",
"mX c #A8A9AB",
"MX c #A6AEB1",
"NX c #AAB4B7",
"BX c #B2B8B8",
"VX c #E7B4A5",
"CX c #9DB5C3",
"ZX c #B1BEC3",
"AX c #B5C2C6",
/* pixels */
"`.L.p.w.E i.9.Z v.i.i.q.i.9.j.`.c.Z 9.V Y 9.l.-.3.l.J.|.v.x.).s.n U Z n ;.%.q } ; = q * d q.; M { 0 ",
"    + c > x.i.7.7.|.|.6.S l a.9.`.6.Z -.l.l.9Xf.R.8XK.pXaXG.).l.;.n m R.3X#.9 f z : Y d U y.; @.r * ",
"  + + ; % q.c.S s.hXi.7.8.u.J.|.iX7.Y 9X9Xj.J.! Q.R.pXMXBX'.}.9X+.M O.%.&.p x m x ^ 0.7.j l % * & # ",
"  s a a a S c.l i.c.S 7.8.Q Q aXaXzX[.qX5.xXvXzXvXmXxXMXMXfX:X%.*.O.f.V C y.*.O.W y.w.A l l 0 + % l ",
"A k ; d.; V Z k |.s.s.6.i.i.aXnXCXvXNX*X XZXZX-X~.bXbXMXcXfX;XU.!.x.`.j.[.0.C B R R m x n > < D & q.",
"6.a + j s z ; 7.iXs.h Z Q s.aXCXZXsXzXdX XZXNXxXNXBXBXBXMXkXmXMXfXOXS./ S.j.C u u.w.;.+.q d l Z 7 r.",
"+ % + 6.7.s k A 8.Z % h S R `.lXhXzXcXvXdXCXZXvXAXBXBXmXlX].cX%Xe.F.j.c eX;Xb._ e.1.0X .: d 1 f @.W ",
"# + # A A a A ; + R A Z d.9X8X3.zXvXmXdXxXMXmX XcXcXL.gXgXjXmX:XZ.8XI g.uXuX%Xt.T O.X.q C R U g = v ",
"# s % j a j j f j E 0.7.3.8X8X8X&.].sX X].bXbX@X:XaX].pXiXl. X9X1X2Xu b.+X~.>.T S.T b T m E Y F 7 &.",
"j k s A s a > j A ) G _ 3.[ %.6Xf.'.>.'.pXMXkX^.H.pX[.iXpXz 5...,XX.C n.rX~.Y.S.S.S.! w.W m n P p P ",
"% k a j > l 0.S y.W Y ( r #.#.z *.[.k.J.kXcXeXl.O.oXiX XpXC 5. .2Xe W I.rXeXP.t.n._ F K P N.D D : e.",
"% l a W A z.).S p.9.-.n ; z x u.j.=.d.j.%X:XjX-.y.J.iX{.}.T w X.$.} _ t.t.I.m.U.%X$XP.B.&.P.T < C r.",
"# j 1 0.w.y.F.n Z z z W ^ ^ u.oXJ.;.F.j.U.vX+X/ @.*.`.j.G.m e.U._.].XXXXXX'.I.$X#X&XP.E.2.~.g 1 ; n ",
"a h E y.w.z.L.z._.^ R ^ u.j.j.=Xj.j.d.9.h.%Xj./ J.'.].|.[.B.{.).).L.`.oX].XX].%X%X&XP./.Y.E.:.D < < ",
": l 0.a.r.z.F.I.oXM.R n w.f.e._.j.+.K.*X=X=XpXoXOXJ.'.`.l.=._._._.F._.L.G.M.' !.%X$XP.#XY.>.K ^ n @ ",
"* 7.w.e.z.z.F.oX=XL._.G.j.2XC w.Y V -XoXoX[.'.oX[.'.f.j. .&.e.S.z.].@X&X;XuXuX(.eXeX(./.Q.` G 1 ;   ",
", ( r.( S q.S n.x.x.c.).^ M ).F.f.m *X{.oX].-.~ D.S.^ <.#.N ~.lX%XlXwX&XlXlXuX&XeX#XV.W.P.G g x 1 = ",
"> j S S S 6.S q.x.x.).).y.u.u.;.f.Y @X@Xk./ D.K j.}.l.,.*.y B.^.&XY.k.$XlXcXeXZ.V.i ) P.j.` ! C *.-.",
"j S ( E S S S E x.q.L.}.U.dX-Xb f.! ;X;X>.-.9.j.k.S.j.,.4.i <.jX,.,.eXrXwXW.~.I H i P =./ T x 4.<X&.",
"s a 1 > ( z.r.XXXX@X:XsXrX%X#X~ >.K Z.+X:.} L d.2Xf.-.3.X.#.O.O.%X(.L p ;.~.wX$X#Xi H L h.P 1 r { N ",
"g U z.z.I.XX=XfX:X&XfXlXrX~.C.k.1.B &.@.L M *.L 2X7X$.5.X.,X{ 5 1.;.y N.W.rXrX(.E.u ~ P.U.j.M.T b D ",
"D ( z.c.OX=XXX:XkX].sX(.jXkXk.7X2Xx N M O.M } ,X2X4X3XtX4X2XO.p w - H.Q.A.+XU.) P.m._ ` ^ ` '.g.1 U ",
"1 ( z.L.XX=X=X@XfX%XkXjXjXrXM { } x -.#XZ.B +.$.<X<X4XyX1X .{ 8 p v P ~ h.~ g.` j.` / ` n v / ^ ; v ",
"F ( ' L.XXpX*X!.jX&XuXsXrX+X` 9 z c K f.B i 3 X.$.3X0XyX5X3Xo.o.] i b G P j.t.) f.` ! Q G $ $ n = X ",
"U r.z.F.=X=XI.+X-X:XuX:X;X(.P 7 C m K / / b M %.$.5XyXVX0X<X>XX.8 : n D ' ` ) H C.b.P F P 1 - $ B 8 ",
"l D _ D F.I.I.%XuX&XuX:X%X) N y c C &.) b.! 5 } o.4X<XtX....X.3 e y L J N.B.E.!.W.~.U.=.<.H f ; w X ",
"j E _ z.L.XX' %X-XI.@XU.@XXX' D.].D.F.t.^ ^ 7 [ { >X5X4X..o.} e 3 o u ) &.B.#X(././.P.>.&.P 8 t : < ",
"g T r.n.F.I.I.:XH.S.'._.G.F.S.u.u.t._ / n x * e  .o.>X>X . .{ 4 = >.~ u u 2.$X/./.#Xh.K K P C g   g ",
"D _ u.r.S.L.m.H.C / F.j.F.F.u.t.u._ T T P C * 3 ]  ...>Xe  .] e o t :.:.:.W.(.N././.b.Z.<.F t $ @ < ",
"D T u.y.( ) ' U _ U y.n w.t.D t.H.M.C.k.q : * e { {  . .[ ] ] 4 . u b u B.#X(.N.$X#Xk.Y.P F < @ = 1 ",
"h w.y.l n r B / w.g _ R K _ t.$X$XeXQ.K b = 3 4 e ] e { e e ] 2 7 :.:.} B B &.H A.B.P K , O | , D < ",
"l S A R f * 9 : n ^ -.5.5.c P wX&X&XE.h.<.- o o 3 ] ] { 3 3 3 o X , r 2 4 5 P <.T.Y.:.*.2 = 6 = d @ ",
"y x A l g & 5 f g V %.o.[ v ! $X&X&X#XH y * < = w e [ ] 3 * * o = 1 X & 2 [ 8 H A.P.P u 1 b / 1 ; . ",
": d l 0.y.x Z 0.Z 5 ] { q w.w.%XrX%Xh.B 9 g Z 5 ] 3 ] e w X & w & m I b 2 2 ,.J 7 u ~ <.>.L ~ T G o ",
"d ; l ( 0.v 7.y.q.: * : ^ ^ T ' C.,.- , = G ~ 8 6 { { 4 6 * 0 r * >.Z.Z.I I E./.P.>.) h.N.t , < < . ",
": q E y.p.R 0.p.7.g n < w.y.r.~ H - 1 N.) P.b r 3 ] ] w o & , 2 q C.P.W.B.A.A.m.P.) , F ! f N - X 8 ",
"& 9 m T 9.T u.y.x.y.u.r.r.y.z.Y n m H.!.(.E.N.6 2 w ] 3 X , = o w t ) P.b.2.W.B N.N.e.n.e.G r o $ g ",
"& 9 n x l 0.e.y.y.y.u.u.0.j.9.Y 0.M.g.~.$XQ.<., - 8 8 3 X :.u , 7 b V.~.#XE.+XP.Z.W.G e.Y f 1 w.1 < ",
"& : 7.p.0.R 0.w.0.^ ( K ^ G v M.!.C.E.T.+XE./.7 , u 7 w F :.H I i H P.(.#X+X+XW.V.h.v v ! n < f $ = ",
"% A R 7.g g / ! / K.!.j.>.~ ` Q.#X~.Q.$X$XZ./.P ) ,.I 7 H :.&.,.=.u h.+XA.P.(.P.b f v Y T K v T ; $ ",
"S S W R R 8.F / b ) / Q ~ f.Q E.#XQ.P.(.Q.>.A.N.b.Z.b.u J b.<.2.) t C.W.W.W.~.W.F T ! n < i = g ; ; ",
"E a j % A W b f.1 b x v G v n ,.P.P A.#X$XP.Y.=.2.2.C.K P N.:.N.J t <.~.(.#X$XN.v v n.1 = 1 1 $ $ # ",
"h % h < h l g n E Y n f U G ) >.!.C.E.;.E.!.E.2.k.2.<.:.H Z.L V.~ P t b ) b.>.^ x < M.D v D % < g $ ",
"h 8.l $ ; g ; l t 1 R R y i L F <.:.A.~.~.A.E.B.2.;.<.) t F 1 T _ g 1 1 u 1 Y : 7 u e.1 $ $ < - # @ ",
"l A % @ O.: & 7 e ; U l 1 { [ *.B I j.E.N.b.E.B.u O.=.H ! *XU v g 1 1 r 8 g F 1 x = v $ . N < y ; ; ",
": @ $ f = ; % & 0 1 v t = w w 4 ~ K.Z.B.C.N.b.J r #., u ^ n.= * u B t : - n.XXT t.t.T ; = u ! g g g ",
"O.X c ; j l w.^ w.E _ _ g * H >.,.K.<.b.O.i t w { 4.} , t g $ 1 &.~ b n.b.u.^ f e.D < . v 1 D 1 g % ",
"5 X & d U U l y m 0.0.U n.S.! b.Q.>.~ ` t H 8 ] X.{ | o 1 < $ Y n.! n.R G.E l < l @XD 1 8 D f < k a ",
"5 5 3.* l l ; 3.4.q g ; w.x.< b h.Q b G @Xn X 3 w o q r p - < f Y < n g > < $ @ U / < $ : h $ d a % ",
"@ & & : > l 7 ] { o ; $ h Z $ & O.* g D R < . = 7 = ^ * [ } @ > < = g g 9 . @ d < $ $ $ X % % . @ # "
};
