/* XPM */
static char *wall[] = {
/* columns rows colors chars-per-pixel */
"60 60 230 2 ",
"   c #15141B",
".  c #1B171A",
"X  c #1A151C",
"o  c #23191E",
"O  c #181823",
"+  c #1C1B23",
"@  c #1C1E29",
"#  c #241B22",
"$  c #2B1D25",
"%  c #251E2A",
"&  c #361E23",
"*  c #1E212A",
"=  c #2C2124",
"-  c #27252B",
";  c #23232C",
":  c #2B252A",
">  c #362628",
",  c #3D2B2D",
"<  c #232632",
"1  c #252B34",
"2  c #2A2B34",
"3  c #2A2C39",
"4  c #362D34",
"5  c #26313B",
"6  c #2D313C",
"7  c #3D3133",
"8  c #37363B",
"9  c #32343C",
"0  c #472B2B",
"q  c #512D2B",
"w  c #45352D",
"e  c #4D322D",
"r  c #56342D",
"t  c #462D32",
"y  c #4B3432",
"u  c #463638",
"i  c #423A3C",
"p  c #543531",
"a  c #5B3937",
"s  c #5C3B34",
"d  c #533C3B",
"f  c #63392A",
"g  c #643C34",
"h  c #693B33",
"j  c #4C423C",
"k  c #5B433A",
"l  c #684336",
"z  c #64423A",
"x  c #6C433A",
"c  c #734234",
"v  c #79483A",
"b  c #7A533B",
"n  c #2E3441",
"m  c #333642",
"M  c #3A3743",
"N  c #353A45",
"B  c #3A3C44",
"V  c #323649",
"C  c #353D4B",
"Z  c #3A3D4A",
"A  c #483C43",
"S  c #543C42",
"D  c #3B4147",
"F  c #3C424D",
"G  c #3D4553",
"H  c #3F4957",
"J  c #3E4B5A",
"K  c #4D4243",
"L  c #43444C",
"P  c #4D474C",
"I  c #44494E",
"U  c #554243",
"Y  c #5B4A45",
"T  c #584749",
"R  c #5A524C",
"E  c #424652",
"W  c #484651",
"Q  c #434A54",
"!  c #4A4B53",
"~  c #444D5B",
"^  c #494E5A",
"/  c #564D53",
"(  c #4D5155",
")  c #45515D",
"_  c #4A525D",
"`  c #535255",
"'  c #52545B",
"]  c #5A595A",
"[  c #684B44",
"{  c #794D42",
"}  c #62524B",
"|  c #6C5549",
" . c #765747",
".. c #6A5B56",
"X. c #755F57",
"o. c #746253",
"O. c #7B645A",
"+. c #475260",
"@. c #4D5562",
"#. c #4E5863",
"$. c #515663",
"%. c #535B65",
"&. c #5A5D63",
"*. c #555E69",
"=. c #585C6A",
"-. c #615F69",
";. c #5E6165",
":. c #56616B",
">. c #5A636D",
",. c #5C686F",
"<. c #5C6671",
"1. c #5E6A74",
"2. c #5E6A79",
"3. c #626365",
"4. c #6A6364",
"5. c #62666B",
"6. c #6A6469",
"7. c #63696C",
"8. c #6A6B6B",
"9. c #786A66",
"0. c #77716B",
"q. c #646A76",
"w. c #636C75",
"e. c #6A6E73",
"r. c #646E79",
"t. c #667177",
"y. c #6C7276",
"u. c #66727B",
"i. c #6B737C",
"p. c #6E797D",
"a. c #727374",
"s. c #7C7672",
"d. c #72767B",
"f. c #72797D",
"g. c #7A7C7C",
"h. c #814639",
"j. c #834B3B",
"k. c #88523C",
"l. c #875548",
"z. c #86614C",
"x. c #846958",
"c. c #977D5C",
"v. c #836C64",
"b. c #876F67",
"n. c #867469",
"m. c #937B6C",
"M. c #857B75",
"N. c #888379",
"B. c #958677",
"V. c #A78D77",
"C. c #6C7781",
"Z. c #6E7981",
"A. c #737B83",
"S. c #737B87",
"D. c #7A7E83",
"F. c #7B8285",
"G. c #768288",
"H. c #7C848A",
"J. c #7E898D",
"K. c #7F8B90",
"L. c #838484",
"P. c #888887",
"I. c #83868B",
"U. c #838A8D",
"Y. c #8A8B8D",
"T. c #948C84",
"R. c #8E918E",
"E. c #9B938A",
"W. c #848D92",
"Q. c #868B95",
"!. c #898D93",
"~. c #869195",
"^. c #8A9296",
"/. c #8E9897",
"(. c #8C9499",
"). c #8E999B",
"_. c #939593",
"`. c #999A95",
"'. c #91969B",
"]. c #939A9C",
"[. c #999D9C",
"{. c #A89887",
"}. c #A79E99",
"|. c #9BA19D",
" X c #B3A48F",
".X c #A7A49A",
"XX c #949CA1",
"oX c #9A9EA2",
"OX c #9DA2A3",
"+X c #9EA6A7",
"@X c #A2A5A4",
"#X c #A7AAA4",
"$X c #A2A6A9",
"%X c #A6A9AB",
"&X c #AAADAC",
"*X c #B2AFA7",
"=X c #AFB0A7",
"-X c #ACB1AD",
";X c #B7B4AB",
":X c #AEB3B2",
">X c #B2B5B3",
",X c #B5BAB4",
"<X c #B9BBB5",
"1X c #B6B9BA",
"2X c #BBBEBA",
"3X c #C1BCB0",
"4X c #BDC2BC",
"5X c #C2C4BE",
"6X c #C7C7BD",
"7X c #BFBFC1",
"8X c #BFC3C2",
"9X c #C3C6C1",
"0X c #C5C9C2",
"qX c #CACCC5",
"wX c #CCCEC9",
"eX c #D2CEC7",
"rX c #CED0C6",
"tX c #CDD1CA",
"yX c #D2D4CC",
"uX c #D8D7CC",
"iX c #CED5D2",
"pX c #D5D5D2",
"aX c #D7D9D2",
"sX c #DBDCD2",
"dX c #E7E6D9",
"fX c #F2ECDE",
"gX c #EDEDE3",
"hX c #F0EFE4",
"jX c #F3F2E3",
"kX c #F9F6E7",
/* pixels */
"  + 9 4 .         O X O                       X                                               .           .   - 2 4     ",
"' >XgXhXH.D 5.Y.e.y.Y.Y.Y.D.3.4.] U.!.P.Y.!.I.P.I.I.!.3.I.!.U.P.Y.!.L.;.!.!.Y.P.P.Y.!.Y.Y.Y.Y.U.Y.Y.;.N.P.8.D 8XhXfXR.2 ",
"B ,XjX=X=.@ 6 9 2 M m E M P 2 o 9 L L N Z Z Q Z M W ! 8 ! D 2 2 6 D I 8 I Q 8 N I 8 8 F I D D B F B 4 L 9 9 * R.sXjXP.< ",
"] dXkXfXu.+ m : $ C Z G =.5.8 t ! f.7.D.C.5.q.S.d.5.f.I y.I : # 2 ] y.! y.8.f.f.7.7.p.f.7.:.y.p.>.u : Q m 9 ; -XjXjXqX2 ",
"D.jXkXhXr.2 ' ..e 4.Z.J.'.7Xm.m.T.0XwX5X9X9X0X8X8XqX0XP.4X}.} y B.6X5XY.4X5X0X8X4X0X9X4X4X1X$X4X0Xn.k L.S.%.< >XfXkXaX9 ",
"&.jXkXdX>.m 7.9.c ..S./.:X1X{. X`.aXyXqXqXeXtXeX0XrX0XR.4X9XV.x 3X6X5X/.0XwXtXtXuXaXwXwX9X&X#X<XqXV.b B.(.w.2 @XjXkXuX1 ",
"%.dXkXhX,.9 7.n. .8.S.W.:X9X}.6X[.qXqXeXqXwXqXwX0X0X0X`.6X4XV.{ *X6X5X[.wXrXyXpXaXaXuXuXtX4X#X>XqX{.x. X!.,.1 &XkXkX5X2 ",
"` uXfXdX>.N y.n.| 7.C.J.:X>X`.#XY.5X0X5X9X9X0X9X9XqX4XR.,X6X XB.5X0X1X^.8X0X0XrXwXwX0X0XrX4X-X,X6XB.O.`.!.r.2 @XgXfX1X2 ",
"( 0XdXsX#.1 ` o.Y ] g.P.].D.3.I.;.@X@X[.OX$X@X].|.+X[.&.Y.].P.P._.[.I.] OXOX|.@X@X@X[.`.@X@X/.[.[._.&.g.I._ < |.dXyX%X2 ",
"B .XuX;XH 8 g.B.O.N.{.=XqX5X[.2X_.0XwXyXrXrXuXaX0XtXyX[.yXeX3X X6XrXtXOXaXrXyXrX5XqXyXqXrXtXtX8XrXtX[.>X-Xp.1 _.uXuXg.< ",
"F ;XeX5XI 1 3.N.o.k n.N.|.U.3.'.8.:X:X#X>X:X>X$X:X-X@X&.].-X*XM.&X&XP.3.&X:X&X&X-X-X`.`.:X>X+X:X&X@X8.I.).%.1 d.qXuX_.< ",
"L 5XhX6XQ D P. XN.B. X4X0X<X].8X_.uXyXaXrXtXrXqX0XrXuXR.qXeX<X*X5XrX9XU.aXwXqX0X0XeX6X#XrXtXtX0XwXaX`.,X1Xg.6 L.sXhX@X- ",
"I yXdXdX5.Z I..XB.V.*X6X4X6X#XpX[.wXaXqXyXrXyXaXrXqXwX_.qXqX0X;XwXwX0XoXwXrXwXrXqXrX6X5XtX0XtXqXwXqX|.2X&Xf.6 -XfXdX>X; ",
"_ uXkXsX=.C !..X{.V.4X5X4X4XOXiX.XqXqXyXyX0X0XwXqX0XqX`.0XqXqX;XrXwX0X].qXqXqXqX0X0X3X;X0XqXqXtXqXqX|.4X&XF.6 .XhXkX9X< ",
"Q 3XsXsX&.1 ,.[.a.0.|.:X-XU.a.|.8.&X-X&X1X:X>X:X:X,X+X5.!.:X*X0.>X:X^.;.&X:X&X%X>X;X`.`.:X>XOX>X>X-X8.g.OX' 1 =XdXsX&X: ",
"_ <XsXaX' m F..XB.E.4X6X0X4X&X6X_.0XeX0X0XtXtXpX0XqXyX_.eXqX<X{.5X0X4X_.yXwXqX0X5XqX6X5XrXtX8X0XwXwX$X1X%Xy.2 |.sXeXOX- ",
"^ 3XsXuX' 6 g.R.c.E.4X4X4X4X+X4X|.0X0XyX0XqX0XrXqX0X6X].0X0X4X X4X9X4X[.qX0XqX0X0X0X4X4X9X0X0XqX0X9XXX$X[.y.1 _.uXiX$X: ",
"~ 1X2X&X) m i.T.z.E.4X4X4X4X|.4X|.5X0X9X9X0X9X9X0X4X0X_.5X9X4X X9X9X4X].9X5X4X5X8X4X4X4X0X5X4X4X8X9X[.+X'.w.1 g.9X3X>X2 ",
"C R.2X<X' 6 w.N.b T.,X4X4X4X|.4X|.5X0X5X5X9X0X5X0X5X5X].5X9X>XE.5X0X5X[.5X4X4X0X4X4X4X4X4X4X5X4X8X9X].OXI.7.1 ].2X9Xy.< ",
"B g.8.L.L 2 5.g.x.T.>X4X4X4X|.=XOX5X5X0X0X4X5X5X0X4X0X[.4X4X4XE.4X4X4X|.4X4X,X4X4X4X4X-X4X4X4X,X4X4X].oXH.:.; e.Y.a.d.% ",
"N _..X_.Q < :.s.o.P.>X,X,X+X^.OXF.4X4X>X:X4X>X4X,X<X>XR.-X|._.M.|.&X-XU.:X<X4X2X4X-X=X=X<X,X,X>X>X>XF.!.S._ * ( &X&Xd.% ",
"F +X:X%X' O 6 i 7 K ;.p.t.] 9 8 : ] t.t.t.7.a.y.i.y.7.F &.,.;.:.w.=.( 9 ;.t.y.i.t.t.w.w.,.t.w.i.p.( m B ! < @ F.&X%X!.; ",
"~ ].XXXX$.1 q.v.| o.$X<X;X|.N.o. .B.&X+X%X$X-X:X+X$X%Xg.%X%XOX`.+XXX_.D.+XOX$X+X|.%X%X+X$X@X%X%X[.z.O.B.oX%.< H.XXoXQ.; ",
"F ).OX^.Q 5 5.9.o.9./.|.|.|.x.B.v.R.).OX].].).).].^.].H.OX]._.P.).).XXI.).'.).XX|./.^.^./.].]./.^.B. .P.(.q.2 e.XXoXH.< ",
"D ).W.W.Q 5 1.e.4.M.(.(.'.].M.E.n.)./.].).).).'./.]./.H.XX(.'.U.(.(.).I.(.(.XXW.U./.^.^.~.~./.~.!.B.o.R.!.q.1 e.(.!.Q.; ",
"N ~.).(.L < <.t.4.9.W.W.H.N.4.s.7.W.^.H.J.(.(.J.~./.J.i.G.~.^.f.W.W.H.q.W.W.W.J.U.U.H.H.~.~.F.U.U.M.} g.H.>.< e.'.'.A.% ",
"Z !.oX/.Q 1 ,.y...a.W.W.U.g.| M.q.!.^.W.W.!.(.Q.W.~.~.7.W.~.^.a.K.U.J.5.^.W.(.W.W.~.J.G.U.U.f.H.J.F.Y f.A.:.< e.oX'.C.; ",
"9 I.(.!.D 2 1.i.a.s.(.).).W.O.R.i.^.(.(.~.^.(.(.(.~.(.S.W.(.).U.(.(.!.D.^.(.!.~.~.~.~.J./.~.G.H.W.W.4.L.i.w.< ' (.(.r.+ ",
"3 Q.^.'.; 1 :.r.3.0.W.(.R.Y.a./.i.^.(.(.(.(.(.(.^.(.~.f.(.(.).J.(.(.W.f.~.!.W.!.~.~.W.W.~.~.~.W.W.H.8.g.u.:.@ ! oXP.] % ",
"M I.^.^.F * _ q.] 8.H.K.G.f.3.p.;.U.H.G.~.W.~.K.W.W.J.w.W.~.(.p.W.W.H.7.W.Q.J.J.K.W.J.H.~.K.G.G.J.H.3.y.C.@.* y.M.M.4.% ",
"m I.XXQ.Z * Q i.7.4.y.A.f.f.] 0.%.A.G.G.S.H.G.H.G.G.F._ H.D.S.q.S.D.C.' H.H.H.H.H.H.A.d.G.H.p.F.F.f.R y.w.Q * >.M.O.| @ ",
"V U.XX^.F 2 %.q.6.0.A.f.f.U.8.J.:.u.u.p.u.i.C.S.i.Z.A.q.H.i.p.w.i.y.A.i.K.J.!.H.J.F.F.i.A.A.Z.u.u.y.7.H.w.%.1 ;.M.n.6.% ",
"9 5.H.u.B 1 #.>.] 6.C.C.Z.F.y.J.:.u.u.u.u.i.u.A.t.i.f.w.A.w.A.p.i.u.i.y.K.S.W.!.W.H.S.f.A.A.u.u.u.u.,.A.2.' < Q s.F.$.# ",
"n A.Q.C.m < @.:.! ] r.i.C.i.=.i.#.u.u.2.1.u.t.,.w.u.t.:.y.q.w.>.q.q.w.:.S.S.S.C.H.H.A.i.i.i.,.<.2.r.%.w.,.) ; Q F.!.%.* ",
"m H.!.J.B < %.q.=.5.A.u.Z.A.R 9.' p.t.A.G.Z.G.i.p.f.G.' f.C.C.>.q.A.S.=.S.S.A.Z.A.A.C.i.u.A.i.C.r.A.$.i.t.~ * &.M.z.o.: ",
"m H.U.I.C 1 $.%.&.-.1.1.r.f.] y.%.p.i.w.1.2.u.u.1.1.u.1.C.r.<.%.<.,.i.>.q.q.r.2.<.1.r.<.<.2.r.>.1.r.:.w.:._ * :.g.n.| % ",
"m Z.J.D.C 1 $.:./ -.2.2.1.r.7.a.*.i.i.u.r.2.u.q.r.w.q.:.r.r.1.%.<.w.1.:.q.w.q.2.2.2.1.1.2.<.u.<.2.1.%.r.*._ * :.s.z.{ % ",
"6 q.J.d.N < _ *.! @.<.<.<.<.R ;._ q.w.>.:.q.1.>.w.<.<._ ,.<.<.@.>.>.:._ ,.,.<.<.2.1.:.:.<.,.1.:.:.>.' :.%.~ ; &.b.z.S # ",
"3 <.A.A.F ; E <.$.@.=.*.q.7.( 4.^ q.r.u.r.u.i.q.r.i.i.Q q.q.1.%.q.q.q.Q i.r.i.i.2.u.r.1.u.u.r.r.r.u._ 7.>.F * =.b. ./ @ ",
"3 ^ S.<.6 @ Q _ @.^ _ @.@.7.` 5.@.=.<.<.,.>.<.<.*.:.,.%.q.*.%._ %.%.w.%.>.=.<.<.%.:.1.#.:.,.,.:.:.>.%.=.) G + M { l.> # ",
"9 r.H.C.m ; G ~ G Q _ _ _ ` ] >._ <.<.<.<.>.>.>.>.<.,._ =.>.%.+.:.:.:.' >.>.>.>.,.:.:.:.<.<.:.:.<.,._ @.J D # g j.j.z . ",
": 3.D.r.N + Z ~ F H _ W Q / ( &._ <.<.=.:.<.<.*.>.<.=.^ >.<.%.^ =.:.:._ <.<.>.*.:.,.:.:.<.:.@.:.>.>._ _ J F + g l.l.h o ",
"4 6.0.S.D @ N @.Q ~ _ =.#.' j } Q >.,.>.>.>.<.>.*.>.w.F >.@.%.Q :.=.:.L <.:.<.<.:.<.:.*.:.>.+.<.#.:.H _ _ 9 . f j.j.x + ",
"> v 9.v.8 * G ~ Q Q ~ ^ ) } k | ! *.=.:.:.*.>.>.$.$.=.+.*.^ +.E _ _ *._ *.*.<.:.#.#.%.*.%.:.+.+.J ( ! ;.P u . h k.k.g + ",
"2 c k.O.7 @ M Q F G Q ~ Q T k k G *.%.*.*.*.*.%.%.@.$.H ^ +.Q ^ _ _ ^ H @.@.#.#.$.$.@.@.#.%.@.) Q P A ( A 7 X d l.j.g + ",
": k s { 7 @ C G Z G ^ ^ ( k s T H *.*.@.#.*.*.@.@.%.@.G +.^ ~ Z ^ _ ) Q %.$._ @.] ] ` _ *.%.P H Q U u P T t o s j.c h # ",
"2 R T } 9 O 1 ! Z G ) ` P U w I F ^ ^ @.+.$.@.@.@.@.%.V @.G ^ C @._ Q Z $._ $._ _ U j I @.#._ _ Q K u d d = X K } R Y + ",
"$ l { v > @ C E F F P ` P Y k / F ) _ @.+.+.@.@.^ +.$.^ %.) ) H ~ _ _ ^ ) ) @._ ) ~ ' Q Q ) @._ ~ U d [ k , . , v v r + ",
"> j.j.l., @ V W B G F K P K A ^ C ~ +.) +.J +.J ) ) J C H Q ~ Z ^ ~ Q C J ~ ^ ! ~ ~ J E ! ) ~ J ~ E y z d t X [ v c [ # ",
": c h.h.& + M E C F G E P A i ^ C J +.~ J +.+.+.~ ~ Q M G G ~ G ) ~ ~ C G ~ H E ~ ) H H Q ~ J J J P y a h , X r j.h.h + ",
": v j.h >   1 m 9 6 V V M Z : Z 6 C Z C C V C C Z Z F 3 C C C 5 C V Z 1 F C Z C C C m C i D G E M u A S p > . r h.h.g + ",
": h h.h > O M G C F Q H Q A u ! M J ~ ) +.J +.J W P P 9 E H G C H ~ H V G G ~ Q Q Q W L P R / T T g y x g 0 . r h.h.p X ",
"$ 0 v c > O M L Z L E H F L u G M H J J J ~ ~ Z I P S 8 C G E Z G H G B H H E ! I T Y T T S g S T d e z a t X e h.h 0 O ",
"$ 0 f f &   : S S Z J G H L w J V ~ Q A H G G E H k a 7 G F F C F H G N G E E F P z [ z x [ a p a a q g a :   y a a 0 # ",
"$ a q r & X , p 7 8 d 8 i 7 > 9 2 D A 9 Z C C 9 m u r = A A d 9 V C 8 4 B N Z u y s e p x p t t p y > w a > X 0 q y t + ",
"% q 0 q $   i v...X.b.v.b.v.} O.Y M.b.x.9.6.9.v.b.n.b.} b.v.v.v.v.v.0.Y b.b.v.b.b.b.n.b.b.o.X.v.9.b.R 9.x.i   t q q t O ",
"% 0 0 0 #   $ p p z c z j l k [ f x U A M 4 u A d p z k v v x a z c v d h v c l c v z [ u A g a g h p g r $   > 0 t , O ",
"; 7 o > ;   # 0 > 0 h r a z q c q z Z C V 1 m n M u g r l g u < A e s e r f h c r s M 9 M S A S p g e a 0 $   9 , & 2 O ",
"@ + . + O   X X . . $ = = : # $ # : % + % + O * + ; # # # = + . # o o o # # o > o # X O # % % % # % # # X     O + X % O ",
"    X           X X   X                                               X               X       X X X             O       "
};
