/* XPM */
static char *exit[] = {
/* columns rows colors chars-per-pixel */
"60 60 243 2 ",
"   c #010101",
".  c #06060A",
"X  c #08070C",
"o  c #0A0A0D",
"O  c #110E0F",
"+  c #0D0412",
"@  c #0C0D12",
"#  c #140A15",
"$  c #170A17",
"%  c #1C0D1B",
"&  c #0F1117",
"*  c #171517",
"=  c #13151B",
"-  c #1D121D",
";  c #220E1B",
":  c #24121D",
">  c #2B141D",
",  c #251C1D",
"<  c #36181E",
"1  c #1A0C20",
"2  c #1A1C23",
"3  c #1A1824",
"4  c #241423",
"5  c #2B1522",
"6  c #241C23",
"7  c #2C1A23",
"8  c #2A1D2A",
"9  c #321623",
"0  c #331B24",
"q  c #3B1C23",
"w  c #381D2A",
"e  c #3A1E31",
"r  c #1F212A",
"t  c #282527",
"y  c #23242C",
"u  c #2C232C",
"i  c #34232D",
"p  c #3A2628",
"a  c #3B222C",
"s  c #332B2C",
"d  c #3B302F",
"f  c #282A36",
"g  c #2B2C34",
"h  c #392634",
"j  c #342C33",
"k  c #3B2B33",
"l  c #2E313A",
"z  c #3C3333",
"x  c #33343B",
"c  c #373639",
"v  c #3C343B",
"b  c #481E1F",
"n  c #451E28",
"m  c #471E32",
"M  c #44232B",
"N  c #462628",
"B  c #4A252C",
"V  c #4C2B2E",
"C  c #532B2D",
"Z  c #58282B",
"A  c #56312E",
"S  c #472833",
"D  c #4D2C33",
"F  c #572633",
"G  c #532C33",
"H  c #5B2C33",
"J  c #4D3335",
"K  c #43343B",
"L  c #493538",
"P  c #443A3C",
"I  c #4B3B3D",
"U  c #533332",
"Y  c #5D3233",
"T  c #57393A",
"R  c #65332D",
"E  c #682D35",
"W  c #643434",
"Q  c #6F3130",
"!  c #6A3434",
"~  c #683837",
"^  c #633B3B",
"/  c #6B3D3A",
"(  c #733B35",
")  c #763838",
"_  c #4A413E",
"`  c #5A433D",
"'  c #65423D",
"]  c #6C423D",
"[  c #75443B",
"{  c #363743",
"}  c #363943",
"|  c #3B3C44",
" . c #3A3E49",
".. c #453B44",
"X. c #4B3B43",
"o. c #553C43",
"O. c #543F53",
"+. c #653D41",
"@. c #3E414B",
"#. c #4C4345",
"$. c #44444B",
"%. c #4C434A",
"&. c #494748",
"*. c #524443",
"=. c #52454B",
"-. c #594848",
";. c #5B4C4C",
":. c #51504F",
">. c #5D504E",
",. c #464853",
"<. c #4B4B53",
"1. c #544B54",
"2. c #594B54",
"3. c #4E5158",
"4. c #5C5353",
"5. c #585659",
"6. c #6B4A44",
"7. c #684847",
"8. c #744B44",
"9. c #784845",
"0. c #63534E",
"q. c #77514C",
"w. c #684E52",
"e. c #635452",
"r. c #6A5553",
"t. c #625956",
"y. c #6B5B55",
"u. c #64565B",
"i. c #645B5A",
"p. c #6B5C5C",
"a. c #775A57",
"s. c #68605D",
"d. c #73625D",
"f. c #7A645D",
"g. c #494F61",
"h. c #575762",
"j. c #685E61",
"k. c #705E64",
"l. c #5E6268",
"z. c #5C6470",
"x. c #6C6362",
"c. c #676668",
"v. c #746662",
"b. c #776A68",
"n. c #776F6E",
"m. c #686C73",
"M. c #6F7377",
"N. c #777676",
"B. c #7C7C7C",
"V. c #893B2E",
"C. c #863A36",
"Z. c #963E3A",
"A. c #86463C",
"S. c #984639",
"D. c #99543F",
"F. c #A84938",
"G. c #AE5139",
"H. c #B7573A",
"J. c #844B43",
"K. c #964944",
"L. c #8A5548",
"P. c #96584A",
"I. c #865B54",
"U. c #955B51",
"Y. c #A55745",
"T. c #AF5848",
"R. c #8A6459",
"E. c #986952",
"W. c #986658",
"Q. c #BB694B",
"!. c #AA6A55",
"~. c #866B65",
"^. c #88746B",
"/. c #957168",
"(. c #997668",
"). c #877B76",
"_. c #A87867",
"`. c #AB716B",
"'. c #B37A66",
"]. c #C4704D",
"[. c #C17F67",
"{. c #7E817F",
"}. c #9D806F",
"|. c #88847C",
" X c #96857A",
".X c #A98979",
"XX c #B28770",
"oX c #BA8978",
"OX c #E79D57",
"+X c #C99279",
"@X c #DBA477",
"#X c #7A7D82",
"$X c #7E8384",
"%X c #878685",
"&X c #8B8B85",
"*X c #8C8C8B",
"=X c #938B84",
"-X c #988D88",
";X c #8E918A",
":X c #94938C",
">X c #98928B",
",X c #8C8F93",
"<X c #939392",
"1X c #9B9A97",
"2X c #B78A84",
"3X c #A59389",
"4X c #B99889",
"5X c #A29B96",
"6X c #B79A93",
"7X c #9DA19F",
"8X c #B4A58F",
"9X c #A8A49C",
"0X c #B7A799",
"qX c #A7A9A5",
"wX c #B5ACA5",
"eX c #ADB1AD",
"rX c #B5B3AC",
"tX c #B5B9B3",
"yX c #C49386",
"uX c #C69988",
"iX c #CCA891",
"pX c #D9BA9B",
"aX c #E9B88D",
"sX c #C9B5A8",
"dX c #CEBAAA",
"fX c #BFC0B0",
"gX c #CBC8BB",
"hX c #D0C8B3",
"jX c #D6C8B8",
"kX c #E5CBB0",
"lX c #E6D4B7",
"zX c #D2D3C8",
"xX c #D7D6C9",
"cX c #E3DBC9",
"vX c #E3DFD3",
"bX c #DDE1CF",
"nX c #DEE4D7",
"mX c #E5E2CC",
"MX c #E2E4D4",
"NX c #E3EADC",
"BX c #E4EEE3",
"VX c #E4F1E5",
"CX c #E6F5EA",
/* pixels */
"| y t l.5.m.$X0.K.Y.P.t.R.).*X X^./.A.W.>X>X=X;X1X1X/.5X<X X_.<X7X).1X>X*X=X=X5X<XJ.W.*X*X;X%Xf.).A.Y.Q.9.$X%X= l m.<.o ",
"c.= * 2 {.$XM.L 9.`.S.I R.^.|.W.q.^.6.W.^.|.%X|.|.>X3Xb.*X;X1X;X)..X%X:X&X%X;X%X|.v.I.%X#X%X~.R.b.Q K.a.! B.M.<.<.c . c ",
"y z.<.2 <.m.#XX.D D ) X 4 3 4 % % 0 - 4 4 8 4 8 6 4 * i ..| v | 8 - 4 % 4 8 6 4 4 $ 4 ; % - 3 - $ R Y M Y M.5.| B.m.<.$X",
"h.$XM.m.| m.#X8 : > < 0 w $ % - n J.Z Y h u - : , - $ 3X4XoX4X6X).$ - 5 $ % u 6 Y Y ( E $ # : % H > 6 5 % #X*X5.l.M.B.m.",
"} #X,Xc.c.m.M...d.[ A * ; : 0 % - <.. + + 4 w 8 w i h 4XaXkXaXOX/.j h n 8 w 6 $ + . j 8 # % 0 : $ W c.c.| %X%Xl.m.%X*X*X",
"g | c.5.5.B.#X<.^.}.[ > 4 < a w : =XU ;.*.n.n.n.I.=.2.(.aXaXOXOXb.5.u.~.x.n.b.*.2.` v.=.5 a q w $ ) =X%X1.%X).c.$X%X$X*X",
"l.3.M.{.<.n.9X2.^.(.] 9 ~ G 9.E 0  XN ` *.d.v.c.r.%.#.t c c U P 8 1.2.;.p.k.d.` ^ B q.o.D +.H +.q ! (.v.5.qXqXb.7XqX7X<X",
",.M.m.M.c.qXn.<.:X.XD w ) ( S.9.M >XT .X4X4X8X0X6X.XXXsX0XwX9X0XrX'. X0X9X0X4X9X:X^ e.4.+.K.H P.B N _.).5.qXqXN.qXqXeX$X",
"r 5.m.3.v {.{.5.*X8X^ 0 M V U o.7 1X-.-.4 4 4 4 3 - ; * : : : - 4 : - 2 9 4 3 : 0.;.p.u.N ` M T 5 R >X X2.5X1X:XeXeX,X%X",
"o g f @ . 5.|.5.;X9X7.> V N ) R C 5X-.#.+.) ) C.! ~ ) E Q Z E ) ) Q ) W S.) ! H r.4.u.a.Z W B G % W :X/.4.|.n.t M.N.$.m.",
"z.M.m.m.c.#.<X1.;X;XJ ; A.[ P.J.A 9X;.2.C.F.m M 6.~ / Z ] T 6.] 6.6.+.9.T Y G.) x.t.y.p.) U.H Y.p N &X&X1.eX9XN.,X<X;X*X",
"2 j g M.#XtXeX2.&X:X7.q A.( S.A.M  X*.X.Z.Z 9.iXzXzXsXU.sXgXzXgXzXzXoXdXzXgX8.S.u.e.r.y.( D.Z P.q ! ;Xa.#.qXqX;X7X7XqX*X",
",.c $.c.{.eXqXh.&X;X6.9 q M C N w =X>.u.Z.S.uXzXsX0XgX6XxXnXdXzXdXzXuXsXdXVX_.F.b.s.4.4.n V p M ; ( %XW.7.qXqX{.qX7XB.M.",
"x c.<.* 5.*Xn.5. X|.6.p A.( L.A.Z 5X;.;.Z.`.lX2XK.`.`.uXoX2X2XoXK.2XK.K.U.VX(.F.n.y.s.a.) S.W D.B ! ).^.r.|.5.s m.3.l.{.",
"M.z.| , s.<X4.<.0.7.] N P.L.I.L.n -X-.y.C.`.vX2X`.vXBXvXK.K.cX+XT.CXiXT.CXCX_.) &Xs.5.7.8.W.+.E.U ( q.7.5.<X<Xc.c.t t >.",
"#X$Xl @.%XeXn.u.J i Y : 8 0 M 0 q =X' 7.F.`.CX2XZ.K.sXBX`.`.NX+XT.CX0XQ.VXcX}.F.b.5.p.e.> 0 < u $ ] w 0 7.7XqXc.9XqX>.-.",
"l y B.5.c.:.%Xa.!.}.A > ! R D.[ Z =X( 6.G.'.NX2X!.CXCXnXK.K.vXyXT.VXiXT.CXBX_.F.~.t.4.7.R K.Y A.a M !.F.A.rX%X:XqXeX}., ",
"o l.m.t & 1XqXr. XXX] M A.[ D.A.Z b./ 6.F.XXBX+XT.!.yXuX2X`.2XyXQ.VXiXQ.BXBX`.H.b.t.*.o.( Y.W G.n [ .XQ.L.1X:X4.9XeX&X2 ",
"t &.K * , n.).p.;XXX] < C A ' Y > k./ 6.G.W.pXpXyX+XpXuXcXcXyXpX+XBXkX@XBXNX`.G.v.0.X.I N ] N ] 5 Q 8X.XL.|.|.t.t _ l.c.",
"s 0.0.^.5.qX7Xt. XXX] : V b R Z 0 w./ 6.F._.NXMXBXVXBXBXBXVXBXCXjXBXBXpXdXCX^.F.f.' D M p R < T - ! >X;Xc.9XeXt.c qXtX;X",
"p b.r.r.n.;X1X4. X!.' R G q.W a.H './ 7.) I.pXxXBXvXCXBXBXBXBXBXhXcXVXxXNXVXR.Q a.8.P.J.8.[ [ Y C [ =X&Xx.9X<Xc 7XeX<X<X",
", t I -.L N.{.5. X3XL , q B V U $ 5 C I Z._.NXBXNXBXBXBXBXBXVXBXsXMXVXVXMXxX_.H.=.~ 0 ; N A > N : q &X&X4.4.s 5.&X;XB.$X",
"<.* x.N.s.P &X:.|.|._ O 0 5 q : ; 4.W 7.Z.!.nXbXcXBXBXBXBXBXBXBXnXVXVXnXNXxXI.H q.) v k : 0 > 0 # V B.;X&.%XqXc.qXqX7X$X",
"l.$Xf f v eXqX*.^.^.A < K.( D.P.q |.( T S.U.xXkXkXBXBXBXBXBXBXBXBXNXBXVXlX@XA.S.q.[ u.=.[ Y.^ Q.M Y R.^.-.tXtX,XeXtX7X1X",
",.,Xc o t.eXeXT S.) 9.q ~ Y 9.q.M `.[ 7.( [ +XpXaXlXBXlXBXVXBXBXBXVXVXnXpXQ.( Q a.( P.Q 7.8.G +.7 6.L.V.Q eX1XB.qXeXeX,X",
"& 2 * s c.{.%XI ~ Q G : V C N A : U ~ T R.q.[ D.[.@XkXmXNXmXVXVXBXVXVXlX@X~ R.q.q.] A > 9 Y > ~ 5 0 K.Z Q N.:.s B.{.3.5.",
"#.I , o z , n.j 4 4 % > A C ] ^ b ' V K _.'.A.H.aXpXlXcXlXNXmXVXBXBXmXaX'.] ^.^.` Y C M Z [ M ! 4 : 7 w > ;. Xt t.7.s.t.",
"v I z f.I -XP j S X.0 5 A T [ 9.q *.W C a.y.T ) '.+X@XiXhXjX+X@XbXxXhXXX) ~ U M ' ~ j k R J.U ' 5 a P K 6 ).^.&X|. Xb.f.",
"t.s _ 0.&X5X9X=.R.J.J > p D V I , v.W U e.e.>.I.+XuX`.W.'.'.wXiXqX9X0X8X+X-.q.G ' ] _ z S X.M T > n f.8...b.^.n.|.-Xf.f.",
"s s v.^.c.=X5X%.R.q.o.9 9.G A./ p d.W J t.4.*.( W.W.) C.S.S. X=X|.|. X XP.a +.k ] ' _ #.D C.B 9.M Y ~.8.X.^.^.v.>X>XN.f.",
", *.` _ = v.^.<.6.a.] A E./.9.I.( oX[ U ..k k h w.+.Z R W +.u.j.i.4.7.2.I 5 ^ h 6./ _.P.7.I.I._.' / a.7.#.y.t ;.N.|.d.f.",
"0._ n.N.%.u.i.=.1.8 9 : w q M w > < ^ J i 4 k F f.).%X-X>X>X5X).W b ' a.Z i T k ] / > : 0 B q m > : s p &.-.b.e.v.d.0.4.",
"^.t.y.v.*.0.n.1.).%.N ; $ $ ; % ; J./ I O.2.D H.pXbXbXVXnXbXnXVXjX_.sX@XF.~ X.K 8./ ! n $ % ; $ # Z #.j.&.1XK s.;.d.~.v.",
">.f.0.P *.y.d.:.%XN.V % G M ( D > u ^ C % ; n S.pXnXNXVXVXNXVXlXMXuXhXiX].R 5 4 6.^ = : M / n Y 7 b i.|.%.1X Xb.0.v.e.6 ",
", s t O 4.y.d.%.s.;.Z 5 ^ C [ ^ 0 j.L S E Z U.iXlXzXmXmXVXVXBXnXcX8XhXG.Z.+.W E ;.^ P K H 8.C 6.a Z L x...d.y.>._ -., ` ",
"_ d.^.).4.>X5X4.X.a ~ < M A T L 7 v.I I Z I.sXsXfXfXgXbXBXnXnXaXxX+X!.S.Y.3Xa.F ;.T X.I S I G D : ! J N j.wXwXx.).).s.d.",
";.*.;.d.0.0.d.=.b.v.M + - 5 B B p x.L ..E [ ).3X7X5X9XwX0XtXeX8X`.S.) C.I./.9.F 2.L I I q a M > + < x.c.*.>X>X|.;.~.b.L ",
"d f.d.0.>.0.).=.N.v.U ; D S ~ D p v.z X.E C.P.!.Q.Q.Q.Q.].E.Q.Q.Q.].Q.Q.D.Y.Z.E -.I &.#.B Y B ^ $ F r.N.%.>X).y.-.f.y.d ",
", K 0.0.-.d.>.=.n.0.B > ^ T q.7.i b.S K n ) Z.C.H.H.H.S.G.Y Y F.G.H.H.H.V.S.) F o.K P =.T q./ 8.> Z L N.%.n.s.t.s.>.* i.",
"#.t t d #., 4.%.b.~.W ; % % 0 % i N.k S m E R M , i : A.V.F.S.S.[ - 8 4 N ! E F X.S <.=.% ; 0 4 # ! a.b.%., * * >.* P >.",
"y.f.t o s b.).%.b.9.! > a M D S 0 N.k K E F B R 9.A.U.n ) Z.Z.C.p L.J.L.E F E C.o.v %.=.0 M M G - ! a.n.#.e., i.t.>.y.z ",
"_ , s.4.z r.a...b.b.E : 0 7 9 5 7 N.i K F F G 5 ( L.5 J E +.+.! U 9 K.( 4 +.F E ..h $.X.> 8 5 p $ E a.b.K P P _ _ ).y., ",
"O , *._ d ;.- j b.f.B $ a n G a 5 n.w v F n D 7.M C F +.E E H ! 7.U Y B 7.W M H X.e ..%.5 h n S % n q.r.v 4.d d r.y._ * ",
"d >.5.i.;.i.4.j i.q.Y - a e X.h 4 n.8 j m m S +.5 $ +.+.E E E +.^ ( $ 5 +.F F B X.w %.X.7 S S J 1 H q.r.i i.u , >.0.z j ",
"#.e.e.s.z 0.^.v -.C C % 4 : ; ; : j.u i e F Z q 0 B + E H E H E F # S 5 > n F w i i ..K $ ; ; 5 $ F ^ L u ;._ s.y.d.;.y.",
"s =.r.0.-.-.;.l U ^ q $ % $ % $ 4 -.i 0 w M B G ^ ^ F H E H F E G H W E F F m 0 M S s z # # $ - $ w ^ T 7 ;.^.>.-.r.;.0.",
"s j -.-.t L r.8 a S < 9 a 5 < $ > w.f 4 i w F m F E F F F G G B F E D F D F h h h h K S # ; > e a 5 M w 3 a.y.y.r.y.` 0.",
"g j #.#.j c z 7 o.T b $ B : < > e Z 1 # # % 5 % 4 4 7 4 4 1 1 4 9 4 5 4 7 % $ # 1 1 M n 8 4 0 q w q M Y K P * s t.#._ $.",
"| ,.$.1.*.7.y.j -.o.D e.p.O.2.u.5Xn 8.I.9.I.J.I.U.U.L.J.J.L.L.q.J.U.J.U.L.L.P.P.J.L.[ ;.N.-.o.r.j.U U 7.h 2.4.*.;.2.h.,.",
"f ,.x y g g =.[ i : % T ^ L.p 2.u.9.L.P.L.U.I.W.R.(.~._.'.R.!.W.R.W./.!.L.W.J.W.L.I.q.] j.X.0 K J 8 % h Y #.v 6 | 1.1.,.",
"} 2 r   @ k P X.j v P %.s j ..1.{ c v | 2 =.=.;.c ..v u s z K x | P 6 $.2...v | ..2 y %.k * o -.X.K v ..x 6 & o g %.x  .",
"= ,.h.$.| c.5.<.$.3.3.,.$.c <.5.%.%.h.| u x $.$.5.3.$.} s <.3.<.<.%.2 x 3.$.:.5.c c <.o $.g 1.<.c c $.3.3.g *.s j ,.,.h.",
"& 2 } } | } g } 3.@. . .$.x } f l @.@.@.f | x l 3.@. .{ }  .f y } @.f } g } h.@.} f l.g.y f | { l @.@.{  .,.x l } f } @.",
"2 l 3 f g f  .3 @.@.} y l @ g } r @.r f 2 l @.y @.l y l 3 2  .x r } f  .@.r g.} f y { { @.= f f r f y  .} f } }  .@.2 f ",
"3.@.@ @ o 2 g.& r f } r @ 3 = 3 & r = 3 . = } r r 2 @ o @ r @.2 = = o r = = f = 3 . ,.2 f y = = X = 2  .r = = @ y 3 & y ",
"  @   f   . @   . g @.<.g     o   y y . &  .,.g .   | &   g @ . . .   . r & .   .   .   f @.* o   { . . . . .     @ } 2 ",
"      r o     = f   o 3 |         . ,.@.* l = . o o     . &   . .   . x &     = *     . . 2 = O       o .   *   o @.2 = ",
"                    o .       2 r o   2 . .   @                       r               | =                   y .     r . ",
"                              = =         . .         .                             .                   .               ",
"                                                                                                                        "
};
