/* XPM */
static char *open_exit[] = {
/* columns rows colors chars-per-pixel */
"60 60 248 2 ",
"   c #010101",
".  c #01050D",
"X  c #07080B",
"o  c #0A0A0D",
"O  c #110E0F",
"+  c #050611",
"@  c #080813",
"#  c #0C0B14",
"$  c #130C14",
"%  c #1C0E17",
"&  c #140F18",
"*  c #0F1117",
"=  c #141115",
"-  c #1A1416",
";  c #14141B",
":  c #1B131C",
">  c #1A191B",
",  c #210F16",
"<  c #251216",
"1  c #24141C",
"2  c #2B141C",
"3  c #231C1D",
"4  c #2B191C",
"5  c #35161E",
"6  c #341B1D",
"7  c #37201C",
"8  c #191823",
"9  c #1B1C23",
"0  c #291722",
"q  c #231C23",
"w  c #2B1B22",
"e  c #241D29",
"r  c #351B23",
"t  c #3B1823",
"y  c #3B1B23",
"u  c #1F2124",
"i  c #1E212C",
"p  c #222225",
"a  c #23242C",
"s  c #2A2729",
"d  c #2A252C",
"f  c #382327",
"g  c #332B2D",
"h  c #392D2D",
"j  c #3B312F",
"k  c #282A35",
"l  c #2C2B34",
"z  c #322C34",
"x  c #372C36",
"c  c #2E323A",
"v  c #343236",
"b  c #3B3434",
"n  c #34333B",
"m  c #3B353B",
"M  c #393839",
"N  c #3B393B",
"B  c #48201E",
"V  c #441C25",
"C  c #511F29",
"Z  c #432525",
"A  c #4B2425",
"S  c #432925",
"D  c #46272A",
"F  c #4C242A",
"G  c #432A2C",
"H  c #552628",
"J  c #5B252B",
"K  c #542A2B",
"L  c #5C2C2D",
"P  c #50302C",
"I  c #472A33",
"U  c #542A34",
"Y  c #453537",
"T  c #433A3C",
"R  c #4A3C3C",
"E  c #573738",
"W  c #63292D",
"Q  c #68292B",
"!  c #752E2E",
"~  c #68332C",
"^  c #79332C",
"/  c #6A2C32",
"(  c #722E30",
")  c #673936",
"_  c #783834",
"`  c #4B403D",
"'  c #544139",
"]  c #734028",
"[  c #69463C",
"{  c #794439",
"}  c #2F2A42",
"|  c #373643",
" . c #363943",
".. c #3B3B44",
"X. c #3A3E49",
"o. c #433C43",
"O. c #453949",
"+. c #623441",
"@. c #3E414B",
"#. c #454245",
"$. c #4C4445",
"%. c #44444B",
"&. c #4B454A",
"*. c #4C4B4B",
"=. c #524443",
"-. c #574948",
";. c #5C4D4C",
":. c #51504F",
">. c #5D514E",
",. c #464953",
"<. c #4B4B53",
"1. c #554D55",
"2. c #4E5156",
"3. c #555354",
"4. c #5C5454",
"5. c #54545A",
"6. c #5A595A",
"7. c #654A48",
"8. c #7A4B43",
"9. c #63524E",
"0. c #695348",
"q. c #775548",
"w. c #664A53",
"e. c #635453",
"r. c #675754",
"t. c #6C5B54",
"y. c #635D5B",
"u. c #6C5D5B",
"i. c #755B56",
"p. c #69615E",
"a. c #7E6B55",
"s. c #73625C",
"d. c #7A645C",
"f. c #494F61",
"g. c #555862",
"h. c #655D63",
"j. c #5E6268",
"k. c #5C6470",
"l. c #646363",
"z. c #6A6462",
"x. c #666769",
"c. c #6B6669",
"v. c #6B6B6B",
"b. c #746762",
"n. c #776B67",
"m. c #7A726C",
"M. c #686C73",
"N. c #776E70",
"B. c #6E7377",
"V. c #747373",
"C. c #7C7472",
"Z. c #757879",
"A. c #7C7C7C",
"S. c #84382C",
"D. c #963C2F",
"F. c #853331",
"G. c #893A32",
"H. c #943E32",
"J. c #983F31",
"K. c #894435",
"L. c #964736",
"P. c #9C4333",
"I. c #97543E",
"U. c #A44533",
"Y. c #A94632",
"T. c #A84A36",
"R. c #A9513D",
"E. c #B3533C",
"W. c #87584A",
"Q. c #8B5A4E",
"!. c #955847",
"~. c #A95C46",
"^. c #B45944",
"/. c #98634B",
"(. c #886659",
"). c #986856",
"_. c #A3674B",
"`. c #A56A55",
"'. c #B16E52",
"]. c #876B63",
"[. c #906A60",
"{. c #86746A",
"}. c #977968",
"|. c #847B74",
" X c #857A76",
".X c #8A7C74",
"XX c #917D75",
"oX c #A97964",
"OX c #B97C67",
"+X c #C36F54",
"@X c #C87D67",
"#X c #7E817F",
"$X c #AB815F",
"%X c #86827B",
"&X c #8C8479",
"*X c #8B857C",
"=X c #9C8977",
"-X c #988778",
";X c #938A7E",
":X c #A38B76",
">X c #AD8A73",
",X c #BA8976",
"<X c #C9856D",
"1X c #CB8872",
"2X c #C89578",
"3X c #7A7D82",
"4X c #7E8384",
"5X c #868686",
"6X c #8D8982",
"7X c #8B8C8C",
"8X c #928C83",
"9X c #9A8E85",
"0X c #959186",
"qX c #9C9284",
"wX c #96938B",
"eX c #9A968A",
"rX c #9B998C",
"tX c #8D9092",
"yX c #939492",
"uX c #9A9A97",
"iX c #A3988A",
"pX c #B4998A",
"aX c #A39C93",
"sX c #9EA09D",
"dX c #A8A498",
"fX c #B7AF99",
"gX c #B4AC9B",
"hX c #9CA2A2",
"jX c #A3A5A3",
"kX c #A5A9A4",
"lX c #AAABA7",
"zX c #B1ADAA",
"xX c #ADB1AD",
"cX c #B8B5A4",
"vX c #B6B9B5",
"bX c #C89983",
"nX c #D39C87",
"mX c #D5A388",
"MX c #D5AB98",
"NX c #D2B6A6",
"BX c #E2BEB1",
"VX c #D8C8B4",
"CX c #E6C6BB",
"ZX c #CFD3C9",
"AX c #E3DBC9",
"SX c #EDD7D1",
"DX c #E7E0D2",
"FX c #F3EFEB",
/* pixels */
"..a a j.5.M.4X}.' (.{.&X}._.I.A I.&X&X&X*X6.C.&X`.$X:X&X;X&X&X;X-X`.`._.'.$X-X:.6X%X&X:X!.P }.&X%X8Xe.{ ] 5X4X; c M.,.X ",
"x.; > > #X4XB.).E m.M M j j h S j M M v M z M M v ` N o.o...o.o.o.R ` b h v b l b M M M D f h b M M #.W.[ V.B.2.*.@.X v ",
"a k.2.u :.M.3Xi.n.> < - O 6 5 h z.z.p.v.x.c.l.v 9XnXnXmXnXnXnXnXnXnXnXnX{.l c.c.c.v.c.h.q 4.c.z.-.r ; 1.|.B.6.N A.x.<.4X",
"g.4XB.x.@.M.Z.(.r.0 ) H 6 ! W 0.rXrXrXrXrXrX0Xo.pX<XFXCXnX<XBXMXnXFXFXnXXX| wXeXeXrXrXV.E qXrXrX>X/.E p.C.4X7X5.j.B.#XM.",
" .3X7Xx.l.M.B.&X&XY ).{ B K ^ s.eXrXrXrXrXrX8X#.pX@XSX@X^.SX@XMX@X1XBXE..Xm rXrXeXrXwX6X=.eXrXrXiX=X{.V.*X5X5Xl.M.7X7X7X",
"c X.x.6.6.A.%X&X&X-.-X!.A )./.e.0X0XrXdXrXrX0X..pX1XSX+X+XFX<XMX@X@XMX^.]. .wX[.qXrXrX}.=.eXrXrXeXeX=X%X8X6X4Xz.3X5X3X7X",
"j.:.Z.A.*.V.jX%X*Xp.eX/.A $XoX>.%X%XrXrXrXrX0X@.>X@XSXBXnX1XMXmX@X@XMXQ w.| 9XK.(.eXeX-XR =XrXrXrX:XaX].}.kXlXb.jXjXhXyX",
"<.M.M.B.l.kXV.m.Z.z.rX(.L .X-X$.0X#X0XrX;X:X0XM +.bXbX,XOX@X1X2X,XOXOXW.' x Q.~ [ XX;X(.w -XrXrXrXaX{.[ E kXdXZ.kXkXxX4X",
"9 g.M.<.M #X#Xv.p.x.rXq.) :Xn.p.8X7X|.C.s.C.m.E & ; & & & & $ = & & $ & # 1.n.c.h.N.V.B.z.m.z.l.dXaXrX(.[ dXrXyXxXxX7X5X",
"* k k # X j.%X;X%Xz.rX(.) :X#.=Xq.2X`.R.!.~.L.H._ U K U U L U K I V F U _ `.`.oX'.!.`.~.2X(.|.l 0XrXm.&X}.%Xn.s B.Z.#.B.",
"g.Z.M.V.l.` wX;X|.3.#X/.) :X#.,XG $ % $ $ $ o $ $ $ $ $ $ $ $ $ @ $ # @ $ $ O - % , w : $ f oXg ;XeXm.a.:XfXdXZ.tXyX7X7X",
"9 l k B.#XxXxX-X[ f q.).K -X&./.f @ o . . . . . . . . . . . . . + . . + . % E W.W._ K % # 1 `.l &X;X&X>.(.kXkXyXkXhXkX7X",
"<. .%.j.#XxXlX{ j ;.].).q.-X&.W.6 - r : . . . . . . . . . . . . + @ n g.dXMXmX'.G.G.F.1 : 4 W.k 6XwXQ 7 [ kXkX#XkXuX4XZ.",
"n x.*.> 6.7Xv.t.-.z.:X}.s.].I !.y Z f ; . . . . . . . . . . + @ 5XZXVXmX'.T.Y.Y.J.F.Q 5.v.D R.8 p.3.N B v #X6.g M.5.j.m.",
"B.k...3 p.yX>.n.p.4.;X0.R i.T I.6 F 6 : . . . . . . . . . + + 9 FX,XS.D.Y.Y.Y.U.U.H.W <.l r L.a |.{.}.t.p.tXyXl.v.s 3 4.",
"3X4Xc @.5XxXN.;X&Xp y.Y Y 4.p { 6 A D : . . . . . . . . . . . p AX'.L.L.T.Y.U.U.U.P.! x 8 3 L.v &XwX0X%X;XdXlXl.sXlX>.>.",
"c a Z.5.v.:.6X;X&Xp.:X8.0.qX..L.y H S : . . . + . . . . . . . p DX_.L.Y.Y.Y.U.U.L.L.! 0 # < L.v *XeX0X&X;XvX6XyXkXxX%X3 ",
"o x.M.a O uXkX;X{.v.rXq.r.0Xo.G.f K 6 = . . . . . . . . . . . p AXE.L.T.L.^ ) O.%.L F.y 2 < { v 6XeX0X%X8XwXwX3.dXlX;Xq ",
"p &.T - > m.|..Xq.b.eXq.s.0XM L.f L D ; . . . . . . . . . . . p VXE.U.L. .B.tXZXB.L F.V 3 1 R.c 6XeXiX&X-X%X*Xr.s #.l.x.",
"h 9.9.{.4.lXsXt.P v.eXq.=.v.x _ 6 A f % . . . . . . . . . . . p VXT.U.H.4XFX4XvXvXJ F.y 3 1 K.v 8XeXeX[ ) kXlXe.b lXvXtX",
"f m.r.0.V.yXuX(.s.p.rX(.E E 3 !.6 K Z & + . . + . . + + . . . p AX~.U.D.xXFXtXxXg.L F.V 1 < L.m 6XrX;X[ ~ kXyXM dXxXtXyX",
"p w R -.j A.%XqX&Xp.eX=X$X}.M L.6 H Z & . . + . + X X . . . . u AXE.Y.G.M.jXv.` E ( F.t 1 < L.v 6XeX(.a.I.3.g 6.5XtX3X5X",
"%.> l.C.p.M 8XeX%Xp.rX%XqX-XM ^ 6 A S $ . . . . + X . . . . . u AX^.Y.P.I L ] U.U.U.F.V 1 2 K.v 0X=XP ].~.*XkXz.jXkXhX4X",
"k.5Xk c M lXkXrX%X3.&X&XeX%Xn _ 7 F f - . . . . . X . X + . + u AXE.Y.Y.U.U.Y.Y.U.U.F.t 1 < P.l Z.{ L [ R.vXvXtXxXvXhXuX",
",.tXn o 4.lXlX{.0.p 3.` 4.#.> !.6 K D : . . . . . . . . . X . u CXE.T.Y.Y.Y.^ Y.U.U.G.5 1 < L.& M Y 7 [ !.cXuX#XkXvXlXtX",
"& 8 - g v.#X#X-X].p.:X}.pXqXv K.6 A S : . . . . . . X . . . . u VXE.T.U.Y.Y.R.U.Y.U.F.5 3 < { d &X:X`.) L Z.*.s A.3X3.5.",
"o.R s O M p V.}.].p.=X=XeX;Xn K.6 K S =   X . . . . . . . . . p AXR.U.P.U.Y.T.Y.U.P.F.t 1 2 L.l &X0X}.(.K.>.;Xs e.;.u.h.",
"m R j d.` =XY }.|.z.qX;XeX&Xn { 6 K S > . X . . . X . . . . . u AXR.U.T.U.U.P.U.D.G.F.2 % 1 L.l |.;XA.(.K..X{.6X6X.X].d.",
"r.g T 9.6XaXdX8.0.p.;X6X*X*Xn G.6 F S = . . . . . . . . . + + u VXE.K.S.U.U.P.L.! C E k z.h P.l |.*XA.[ B (.{.n.6X8Xb.s.",
"g g b..Xv.;XaX-.g y.;X0X%X&Xn _ r L S $ . . . . . . . . . . . u NXS.%XK T.K.E u.9XdX|.x <.r S.l %X*X|.7.{ {..Xv.wXwX{.s.",
"p ' ' ` = b.|.C.l.p.6X*X*X{.v K.6 F 6 = . . . . . . . . . . . p 2X^ 6.6XaXlX8Xy.g $ @ & 9 2 L.a C.6X|.s./.t.4 :.C.%Xs.b.",
"9.R m.C.*.r.u.|.p.l.*X*X(.W.v K.6 K Z ; . . . . . . . . . . . > 1XQ l.&.*.; . $ < B V : # < H.a C.&X|.n.(.-.n.e.d.p.9.4.",
"{.t.r.b.=.7.{.|.r.y.*X}.) +.Y G.4 A S : . . . . . . . . . . . - 2XQ 4.- , 5 W Q ^ S.! 2 1 , _ e C.8.+.l.|.uXY p.;.s.{.b.",
">.b.9.Y =.r.u.|.l.y.XX{ U L e 8.6 F S & . . . . . . . . . + . - 2XS.K H F.U.J.D.D.S.! V 1 , G.8 7.W +.z.C.rX;Xb.>.b.e.q ",
"3 g s O 4.u.i.|.>.-.i.L V D q / 2 F S : . . . . . + . . . . @ 1 2XP.U.U.U.U.T.Y.D.! Q 5 1 , F.9 U U K r.V.i.i.>.R -.4 =.",
"R b.{.|.4.wXaX0.P q G f d w : U 1 D Z : . . . . . . . + @ @ @ 3 mXY.U.U.Y.U.U.P.D.! Q t : % ) # w D 0 Y w.zXzXs.|..Xu.s.",
";.-.;.s.e.9.i.G h I XX=X:X8.t +.2 F Z ; . . + + . . @ @ # # # q MXE.U.U.S.^ U.H.H.! Q 5 1 , _ 1 { }.e.I z wXrX|.;.].m.E ",
"g d.s.9.>.9..Xu.=.l 1.5.5.O.q +.0 F S : . + + + + @ @ @ * & : d 2XT.U.L.T.T.U.H.( ( C 5 : : _ ; R ;.O.&.h.eX|.p.;.d.t.g ",
"w b r.9.-.s.>.z.&.: f 4 y d @ I 0 Z Z & . + + + @ # # $ & 9 e z 1XL.U.U.K.L.P._ ( ( W 2 8 % U @ f q q O.h.m.p.r.u.;.> u.",
"$.s p G $.3 4.z.&.; 0 : 0 : @ +.0 F Z $ . + # $ @ # $ ; e e e e 2XT.U.U.U._ G.! C / J 0 1 % +.@ 0 1 8 &.y.1 > = 3.> b ;.",
"i.d.p o g b.|.&.m 8 Z w f I $ +.4 L Z : @ # @ # & & 0 0 z z x l oXP.P.U.H.G.! ( / J C 2 1 : +.# I t f O.c.9.3 r.e.;.t.b ",
"T 3 p.4.Y r.i.O.m : Z 1 D h $ I 0 A f - # # & : e e e x }  .O.x oXP.U.J.F.! ( J Q J C : e 0 U # I r e x e R R T ` .Xt.p ",
"$ > ' =.h -.- 6.O.% w 3 w w # +.0 H S - @ & 8 e k z | } O.o.n z `.H.H.G.! _ / / W C t &.O.0 +.@ 0 w : o.O.e.h b r.t.R O ",
"b >.6.r.>.y.r.1.%.- r < w r $ I 1 A 6 @ # # 8 e e z k k n z z z Q.F.F.F.! W / W C V t O.} 0 U @ r t w | O.e.s 3 ;.e.Y z ",
"=.e.e.u.T 9.{.o.z 8 I w I I # I 0 t ~ [ ).`._.).OXoX`.`._./.!.[ ).! ( ! / W J U V V 0 a 8 : U @ I w d z z ;.R p.r.d.;.r.",
"g *.r.9.-.-.-.d e + @ + # @ + I : $ 4 r V f I Y x Y x h Y j j g ).F./ ( J U C t t r 0 . & & U + @ @ + 8 9 9.{.>.;.0.;.r.",
"s x -.-.3 R r.t r 1 5 r y t r ;.s.|.C.C. X.X|.&X.XXX&X*X%X&X%X6.Q.W / C F t t 0 w 8 $ @ @ n 1.O.t t r 2 t i.u.y.9.i.=.9.",
"k z &.=.v b b H J F J L Q +.7.) 0..X;X8X8XdXrXgXdXiXdXdXaXiX0Xb.i.C C C t 0 0 $ $ $ e &.h.N.w.8.) W L D H N - z r.=.o.#.",
"..<.%.1.$.7.t.vX|.u.E ~ _ 8.).(.Q.$XiXgXgXfXcXcXgXfXcXgXgXdXgXm.w.V V 0 % o # e 4..XiXaXqXQ.).W.) _ E C.8X;.4.=.;.4.g.,.",
"k ,. .e l l =.ZXZXZXVXhX&Xq.).,XfXfX,XfXcXcXNXcXcXcXcXNXcXcXcXC.O.8 @ & o.l.%XaXcXgXgXgXcX2X/.W.&XlXZXZXZX$.m q | 1.1.,.",
" .9 9   $ x o.R z m T *.x z o.*.Y b m o.> *.#.3.v o.N s v M N n | T q #.1.#.m o.#.9 p $.x - o =.E T N o.n q = @ l %. .X.",
"8 ,.g.#...x.5.2.%.5.<.2.#.N <.6.#.%.g...s v %.@.5.5.%.n g *.2.<.<.&.9 n 5.o.1.5.n n 2.O %.l 3.<.v v #.2.5.l =.g v &.,.g.",
"* 9 n X...X.k n ,.@.@...%.n  .a c @.@.@.c ..c c 2.@.@. . .X.k i  .@.k X.k  .g.,. .k k.g.k k X. .k %.,. .X.,. .c  .k  .@.",
"9 c 9 k l a @.8 ,.@. .i c # c  .i @.i k 9 c X.a ,.} i c ; i ..c i  .k  .@.i g.k k i c } @.* k k i a i X. .i  . .X.@.8 k ",
",.@.* O + p f.; u k  .u # 8 > 8 = i 8 ; . ;  .i i 9 o o # i ..i 8 = X i ; ; i 8 9 @ ,.i k i > O + ; 9 X.i 8 ; @ p 8 * a ",
"  *   a   . @   . k @.,.c     + . i a X = X.,.k     X.*   c # X   .   . i =   .     .   k @.; X X n X o .   .     *  .9 ",
"      u o     ; k   + u ..        X @.@.9 k ; X o o     X *   X .   o c =     ; ;     o X 9 ; O       o X   >   o @.9 ; ",
"                    o .       9 u o   u o     *                       p               ..;                   i       u X ",
"                              > >         X           X                             X                   X               ",
"                                                                                                                        "
};
