/* XPM */
static char *monster[] = {
/* columns rows colors chars-per-pixel */
"60 60 235 2 ",
"   c #010101",
".  c #060609",
"X  c #080808",
"o  c #0B0B0B",
"O  c #130D0C",
"+  c #12120E",
"@  c #0C0D12",
"#  c #120F10",
"$  c #0F1117",
"%  c #141313",
"&  c #1A1514",
"*  c #1B1A15",
"=  c #13151B",
"-  c #18191A",
";  c #1C1A1B",
":  c #2E1A14",
">  c #291C17",
",  c #231D1D",
"<  c #26221D",
"1  c #242B1D",
"2  c #36261C",
"3  c #1A1C23",
"4  c #181A25",
"5  c #241E22",
"6  c #281D20",
"7  c #1F2025",
"8  c #1E212C",
"9  c #232222",
"0  c #2A2423",
"q  c #2D2A24",
"w  c #23242C",
"e  c #2B2629",
"r  c #262A29",
"t  c #2C2A2B",
"y  c #372924",
"u  c #352B25",
"i  c #332C2B",
"p  c #392E2B",
"a  c #2E3427",
"s  c #383529",
"d  c #3B332D",
"f  c #353E2B",
"g  c #272A36",
"h  c #2B2C34",
"j  c #332D33",
"k  c #392E34",
"l  c #2E313A",
"z  c #333333",
"x  c #3B3333",
"c  c #33353B",
"v  c #3C353A",
"b  c #3B3B38",
"n  c #43251D",
"m  c #552B1E",
"M  c #70321F",
"N  c #4B2D23",
"B  c #512E23",
"V  c #48352B",
"C  c #573729",
"Z  c #433736",
"A  c #443A35",
"S  c #443B3C",
"D  c #4A3D3C",
"F  c #503E3D",
"G  c #743B25",
"H  c #39422F",
"J  c #3C4432",
"K  c #3D4339",
"L  c #59422F",
"P  c #494637",
"I  c #494E36",
"U  c #4C433C",
"Y  c #594735",
"T  c #5C543A",
"R  c #5A573C",
"E  c #6E4E37",
"W  c #66523A",
"Q  c #635B3E",
"!  c #55643E",
"~  c #343642",
"^  c #353943",
"/  c #3A3C44",
"(  c #363B48",
")  c #3B3D49",
"_  c #433B41",
"`  c #3E424C",
"'  c #444444",
"]  c #4C4443",
"[  c #4A4847",
"{  c #44444A",
"}  c #4C4B4B",
"|  c #534543",
" . c #574946",
".. c #544C4B",
"X. c #5B4D4B",
"o. c #4B5241",
"O. c #575647",
"+. c #5D514E",
"@. c #454853",
"#. c #4B4C53",
"$. c #554D53",
"%. c #4E5156",
"&. c #545353",
"*. c #5C5453",
"=. c #5B5856",
"-. c #54555A",
";. c #57585A",
":. c #5C5B5A",
">. c #655D44",
",. c #685B42",
"<. c #63524D",
"1. c #635452",
"2. c #695653",
"3. c #645A55",
"4. c #6C5B55",
"5. c #645C5A",
"6. c #6C5E5A",
"7. c #725C57",
"8. c #725E59",
"9. c #5C6543",
"0. c #596847",
"q. c #5E724A",
"w. c #5E615E",
"e. c #66654A",
"r. c #6A644A",
"t. c #62734E",
"y. c #656757",
"u. c #6A615D",
"i. c #73625C",
"p. c #79655D",
"a. c #7C685F",
"s. c #647453",
"d. c #6B7656",
"f. c #6D7C5B",
"g. c #727455",
"h. c #494F61",
"j. c #555862",
"k. c #665F61",
"l. c #5F6268",
"z. c #5C6470",
"x. c #646463",
"c. c #6B6563",
"v. c #686867",
"b. c #6B6966",
"n. c #63656B",
"m. c #65686B",
"M. c #6B6B6B",
"N. c #746662",
"B. c #726965",
"V. c #7B6B64",
"C. c #7B6C67",
"Z. c #736D6B",
"A. c #73716D",
"S. c #7C726E",
"D. c #656A73",
"F. c #6A6E73",
"G. c #6E7275",
"H. c #6D7379",
"J. c #707070",
"K. c #737372",
"L. c #7B7573",
"P. c #767875",
"I. c #7B7976",
"U. c #71767B",
"Y. c #75797C",
"T. c #7C7C7B",
"R. c #82462D",
"E. c #8B7554",
"W. c #857169",
"Q. c #85736C",
"!. c #89756C",
"~. c #867772",
"^. c #837A75",
"/. c #8B7C74",
"(. c #847D7A",
"). c #74845B",
"_. c #71805E",
"`. c #7F965E",
"'. c #7A8865",
"]. c #7E9065",
"[. c #7E817E",
"{. c #85926C",
"}. c #8C916C",
"|. c #8F8276",
" X c #84817D",
".X c #8C827D",
"XX c #94857D",
"oX c #8EA568",
"OX c #757A81",
"+X c #7A7E82",
"@X c #7D8283",
"#X c #7D8389",
"$X c #838483",
"%X c #8C8682",
"&X c #8B8985",
"*X c #84888A",
"=X c #8C8D8B",
"-X c #938B85",
";X c #988B85",
":X c #938D89",
">X c #8E918D",
",X c #94928D",
"<X c #9A938D",
"1X c #8B8D90",
"2X c #8E9294",
"3X c #949492",
"4X c #9A9692",
"5X c #959995",
"6X c #9B9A95",
"7X c #959B99",
"8X c #9B9D9A",
"9X c #A0968F",
"0X c #A39A95",
"qX c #A29E9A",
"wX c #9AA480",
"eX c #9EA19D",
"rX c #AAB58B",
"tX c #A2A39E",
"yX c #ABA39C",
"uX c #9EA3A1",
"iX c #A4A5A2",
"pX c #A9A6A3",
"aX c #A6AAA5",
"sX c #A9ABA6",
"dX c #A6ADA9",
"fX c #AAAEAA",
"gX c #B2ADA8",
"hX c #ADB1AC",
"jX c #B2B3AE",
"kX c #AEB4B0",
"lX c #B3B6B1",
"zX c #B5BAB4",
"xX c #BABCB8",
"cX c #BEC1BC",
"vX c #C5C9C4",
/* pixels */
"/ r w l.;.D.#Xz.z.m.@XH.l.} U.#XG.D.*X#X[ @XH.H.OXH.+XG.g j.D.*XOXG.} U.#XD.#X@X#X' j.= j.&Xn.OX-.#XF.#X+X#X#X= z F.@.@ ",
"l.= - ; +X@XU.m.%.@XY.F.z.[.@X[.+X@X*X[.' hXz.K -.#X+Xm.} O F.OXG.T.#.*X@XU.Y.=X#X/ O o # M.F.x.{ eXY.G.Y.Y.H.#.#./ o j ",
"g n.#.7 #.G.T.=XP.eX=X$Xv.G.[.aXeX>XK.6.` 6XuXO.=XT.b [ v.{ 7X2X>X7X-.P.uX>XdXuX,XS ] , z P.5X#Xx.F.F.b l.U.=.b Y.m.{ *X",
"j.+XH.m.` D.Y.$X=X7XzXhX5X@XaXaX5X3X&X,X&.7XuXiXfX8X$XuXv.8XaXP.aXjXm.hXdXuXhX7XaXP.P.$.v fX3X8XK.} ' 2X+X+X1X;.n.H.T.F.",
"/ +X1Xm.x.G.G.=XiXeXhXdX&Xl.@X6XaXhXeX&Xo.*XaXeXxXlXlX>X3XuXaXpXiXhXG.hXhXiXcXaXaXG.P.7XsXK.aXsXF.i pXfX8X$X$Xx.D.1X1X:X",
"h / m.=.=.Y.[.Y.x.3X>X&XM.K.eX&Xu.5X6X,X' eX6X*XP.*XT.(.Z.3X7X7X8X8X' >X3X$XeXeXeX=.:X3X5Xc.8X3X:.L.7X7X7X&XI.M.+X*XT.1X",
"l.&.P.+X} A.tX< <.i ,XL.5X&X%X8X>X3XaXhX5.yXqXqXc...,X%XB.I.=X=X=X2XU ' &X[.tX<XaXZ.^.tXaX>XeXx | :XqXaXpXpXgXB.iXiXeX2X",
"@.F.D.H.x.aXK.- s aXhXhXtXsXdXdXdXcXdXlXL.zX3X X] >X>X[ r z z z a z < w.eXaXvXhXdX XvXdXfXdXfX=XA lXfXdXdXaXiXP.aXaXhX$X",
"3 j.D.%.b T.T.=X XxXhXdX:X XaXhXtXhXhXhXM.fXdXx.v.>Xy.0 + O O O O O O d A.&XhXaXdX XxXdXdXdXdXhX(.tXfXdXaX8X<X,XhXhX2X$X",
"$ g h @ . x. X;.z [.$X[.[ *.3X*Xw.T.[.<XD F.o.; v ' < n N n n n n n n 2 9 o. X,X<X=.&X4X4X5X3X,X4.L.3X3X,X|.A.t G.P.{ F.",
"j.OXD.K.x.] 3X7Xu.d + T.tXu.,X3XA.5XtXjXu.3X>XG.&.< 2 I L C m B B B B N q K u.>XhXI.sXsXhXsXiXsX X:X%X,XsXsXtXP.2X5X=X=X",
"3 j h G.T.lXhXpXc.+.C.zXhXeXaXdX<XdXlXjXL.fXuX&.* n L 9.Q C C B N C C Y ! f r P.aX XvXhXfXdXdXdX-XlXpX(.aXsXiX,XuX8XaX=X",
"@.~ { n.T.hXfXT...9XhXdX6XdXuXeX&XlXhXhXA.>X&.p 2 N Y 9.Q L C B C C T 9.q.I f o.l.x.eXdXfXdXdXdX XfXhX^.,XdXaXY.aX8X+XY.",
"c n.@.- =.=XZ.0 ] tXeX3XI.u.1.^.[ [.>X&X} &.& : m C Y 9.! L C B C Y 9.t.q.0.0.1 < z d G.7X5XeX5Xc.L.5XeXn.[.:.z M.-.j.P.",
"H.D.v > k.3X+., .X<XiXiX0XI.qXqXZ.[ v.yX5.:.o : N C Y 9.Q L C C T 9.q.q.q.q.! 1 < &.(.3XuX7XtXsX X-X6XiX5X,X3Xx.v.0 9 1.",
"Y.#Xc ` $XjXZ._ pXdXtXzXiXiXaXzX6X0XZ.&.P v.+ : B L T 9.e.L L W q.s.q.q.q.q.! 1 7 =.zXsXaXtXtXiX=XjXhXhXhXtXfXx.eXfX+.X.",
"c w Y.j.M...&XfX7XaX7X3X4X8XlXsXqXgXfXz z A.% < C T q.t.e.L Q s.f.f.s.q.q.q.! 1 3 %.cXaXdXaX3XiX X6XdXsXaXlX%X3XsXjX/., ",
"o n.n.w o 6XsXtXiXaXxXfX=XT.sXfXpX8XS 3.; =.% 2 T e.t.s.e.L ,.f._._.f.s.s.q.0.1 3 K q >XaXiXfXfXI.<XsXtX6X4X:X&.qXsX-X, ",
"5 [ S & ; S.(..XA.^.] Z.:.S &XI.6.x (.L.< & o a 9.q.s.f.r.Y >.f._._._._.s.q.0.1 - d O.} L.Z.K.d i b L. X^.%X%X1.q ] x.M.",
"p 1.<.!.=.sXeX=X=X3.$XhXfXeX7XxX*.=XfXlX=.I + f q.I J J I >.>.r.s.s.I J H ! 0.1 9 :.m.zXsXiXtXT.q hXfXiXdXpXhX1.v sXlX1X",
"y W.1.2.K.3X7X&X-X3.jXxXaXpXfXcX8XjXfXhXA.M.% H 0.a + + s s.>.Y r.q.q + - J 0.q < %.vXxXfXqXtXaXI.jXxXfXaXtX5Xz 8XfX3X2X",
"6 5 _ _ Z L.(.u.< +.%XT.b.b.-X<X[.,X=X,XU =.+ H s.d.s.! q.d.,.Y r.d.! 0.y.s.q.1 ; x %X$X=X=X*X&X3.A.&X X:X-.p 5.*X2XY.$X",
"_ 3 B.L.6.b =XP.*.6XA.6X4XS.8XiXtX5X,Xp +.=.+ H f.wXrXoX`.).r.W e.f.oXoXrX}.s.1 9 o.<XtXaXiXiXl.A %XtXtXL. XpXc.iXiXuX*X",
"D.*Xh l b sXsX0XT.eXdXdXtXyXdXdXhXiXeX>X} M.* H f.{.{.`.).A.d.e.>.r._.].{.].s.1 1 -.vXaXdXsXaX%Xx jXeX8XtXxXlX2XhXxXuX7X",
"_ 7Xc o 1.sXfX7X&.b.eXdX6X8XdXdXeXhXaXhX&.w.% J f.f._._._._._.f.r.Q r.d.f.f.q.r < &.hXdXaXfX>XeX%X=X&X6XfXhXeXP.dXlXdX2X",
"% 4 & j M.T.+XM.&.I.P.[.b.=.[.[.v.[. Xm.9 ' @ s q.f._._._._._.f.f.r.T >.f.d.0.1 - i A.T.%XK.S.T.$.} F.M.x.P.} t Y.+X-.-.",
"_ D 6 O x , K.2.3.A.S.O..Xb.>X=X[.5X8Xu.* * > d 0.t.f.].]._.'.].).g.p.r.r.I J K &.[ &XqXtXjXtXtXA.4.+.(.B.+.XXq 2.X.k.5.",
"~ _ Z 8.U ;XD i.XXp.p.!.a.yXjXtXsXhXeX(., & n V P O.f.{.{.].{.XX{.'.}.E.W 2 - x.6X X6XsXiXvXtXfX&XyX/.Q.i./.!.%X.X/.W.p.",
"2.i D <.&X0XyXW.C.a.V.a.a.tXtXdX6X5Xb.U > : N V A I O.f.{.{.}.E.}.}.E.E V > % :.iX XhXtXiXhXtXtXT.6.~.XXp.a.!.C..X-XN.p.",
"i u N./.b.-X0X/.Q.a.a.Q.p.-XaXiX6X>XK * N N B V A V P ! _.}.E.R.E.}.R.M s < 9 I.aX.XlXsX8Xc.tXaX&XlX/.Q.p.!.~.B.<X<XQ.i.",
"5 | U U & N.Q.Q.N.!.W.a.i.B.4X4Xw.U I P C V V V V d d P 9.g.E M R.E C 2 > t w.K.,Xu.<X4XfXu.<X,Xu.^.-X^.W.4.< ..S.(.N.N.",
"+.D S.S.} 5.u.u.] ,X,X:X5.I.4X*.; + o.y.Y V p d p d V s P Q E M M M B < o q u..Xi u +.<X6X$X5.y *. X&X4X3X .C.3.N.8.<.*.",
"Q.2.4.N.} <.W.W.qX%X8X8X(.Z.eXeX} o s O.y.I * > d d d V d P R r.L V V 0 X & b &X&Xb zXtX6XiXsX X> pXeXqX8X7XZ u.<.p.C.V.",
"X.N.1.Z | 2.r./.&X:X<X8X<X8X8XeXU o q U 9.P o * p p p i A U O.,.Y Z Z u & % - *.I.v.dXtX0XtX6XtX(.:X6XtX6X9XXXB.X.N.1.5 ",
", k 0 # *.4.i.2.c.%X~.C.B.u.^. Xx X u A D u X & u u u u P 0.W G C Z A Z x d d 9 r z Z.=X,X&X:X.X=.=.(./.^.8.7.X.D  .6 _ ",
"D N.Q.~.1.<X4X<X<.-XpXpX0X^..X<Xb X q A A 0 X & q u u u f T L m 2 < < d O.O.o.; ; *.u. XfXsXsXhX(.S *.fXgXgXgXN././.8.p.",
"X. .X.8.1.<.i.Q.qX4X<X4X;Xq S eX} X u A A < . * u u y y d s u 2 & .   1 t.f.d.a r =.P.tXqXeXeXiX&X&.q $X6X,X9X^.X.W.V.D ",
"i p.p.<.X.<./.i.Q./.XX-XS.S.6X,XS o q A A 2 X 1 P P I Y L P L P V < O + i f b I b.c.xXtXtXeXeXtXI.:X%X4.:X<X/.5. .N.4.k ",
"6 Z 1.<...6.<.6.z C.~.V.N.Z.0X=Xb X i U U 2 o u W Q Q Q Q Q Q Q Q I > X   X 9 v.6Xb.<X8X8X6X8X8XL.v.6X(.5.S.u.5.4.X., 4.",
"] e 6 k | , *.*.S i L.5.C.*.d v.9 o I s.y.J o a Q Q Q Q Q T Q Q Q T P 1 o q +.K.-XU /.-X<X:X;X~.6.5. .K.Z., & % $., x ..",
"7.p.6 . i N.~.Q.S.2.+.%X~.8XtX:X0 i o.0.0.o.a s I R Q Q Q T T Q Q Q Q P < [ =X8XtX.XxXtXtXpXtXlX,X,XtX,X.X<., 4.1.X.4.Z ",
"D 9 5.*.x 2.8. .] U D N.Q.0XeX8Xc.&.b * - { K.' * L Q Q Q Q Q T Q Q Q Q T f p M.tXI.cXeXtXsX6XtX^.9X4X-XC.A D _ ] /.4., ",
"# * | | x  .& o ]  .V.p.1.L.3XqX X~.} p - [ :.P 2 T Q r.T f s V Y Q ,.r.r.s & :.4Xu. X5X5X<X4X=X1.S.%X6.u 1.p p 2.2._ # ",
"k $.:.2.&.6.1.6 O e v.x.x.5.-X<XZ.~.-X=XU x % s Q e.r.9.L * o + s T r.r.r.s + &.&.i u.u.=X[ S S.5.1.i.A.*.:.q 5 X.1.Z k ",
" .1.1.8.Z <.Q.7.x X.| D p.4X4XiX4XtX4X|.=.u.& q R O.T A K ' t o I e.d.9.A b O. .i i.jX8X,Xx.4X<Xi./.<.V.4.X.] 6.2.i.X.4.",
"t ..2.<... .X.7.| | p *.F %X8XqXXX<X-XQ.u.y.o 0 U U d + s [.&.* I t.s.I * x .X|.1.+.yX<XI.B.:X|.+./.N. ._ <.Q.X.X.2. .2.",
"h k  . ., D 2.i.d p.4.& > M.4X<X.X;XXXi.b *.@ i +.+.P # p &XL.*.b a t a i X.-X<.C.X.;X.XXX9X.XV. .0 i & 1.p.7.5.2.7. .<.",
"h k } _ z v x 0 ] X...6.i , D N.|  . .5.0 q O d +.*.] & , ' +...< X   o z x  .&.5.d +.] 6.y.5.+.5 & ; _ } S # j 3.] S { ",
"( @._ h. .X.7.8.p.<.1.1.2.5.2.[ _ _ Z k e x 0 0 S k i ; 0 ] D A 9 < O e k z ..S k j 8.i.8.8.1.| u | 6.8.V.1.+. .*.$.j.@.",
"g #.~ 5 j h | 7.3.2.| _ v S _ $._ _ t h ; 5 t e p w , ; , e Z k 0 5 & ; e t _ j j 5 _ _  .1.| # 5 4...8.2._ _ 5 / $.$.@.",
"~ 4 5 . # k _ _ j v S  .j j _ $._ k h e % k j k 9 e 9 ; , 0 e 5 e e = t k i e x _ 3 w _ k & @ | D S Z _ ~ 5 = . j _ v ( ",
"4 { j._ / l.j.$.@.%.#.#._ b #.;._ { %.l 5 t / c { { v j e / _ ` / b ; h { c { %.c v %.@ _ g &.#.z c { #.&.h | e l { @.j.",
"= 3 ^ ( / ) g ~ #.) ` ( { c ^ w l ` ` ( h ) l l @.) ) ~ ~ ( w w l ` h ( g c h.@.~ g D.j.g h ) ^ g @.@.( ) h.~ k ~ h ~ @.",
"4 h 4 g h w ) 4 @.) ~ g l @ h / 8 @.8 w 3 h ) w @.~ w l 4 8 ) c 4 ( h ) ` w h.l g 8 ~ g ) = g w 5 w w ( ~ 8 ~ ~ ^ ` 3 g ",
"#.{ @ @ @ 4 h.= 3 g ~ 3 @ 4 4 4 $ 8 = 4 . 4 ~ 8 4 4 @ o @ 3 ) 3 4 = . 4 4 $ g = 4 o @.4 h w = @ . 4 4 ( 4 4 = @ w 4 = w ",
"  @   w   . @   . g @.#.h     .   8 w . $ ) @.h .   ( %   l @ .   .   . 4 % . . .   .   g ) ; X   ~ . . . .   .   @ ~ 3 ",
"      9 .     = g   . 8 /         . @.` ; h $ . o o     . $   . .   . c %     = &     o X 3 = @       o .   ;   o ` 4 = ",
"                    . .       3 3 o   3 . .   $                       8               / =                   w       8 . ",
"                              - -         .           .                             .                   .               ",
"                                                                                                                        "
};
