/* XPM */
static char *ground[] = {
/* columns rows colors chars-per-pixel */
"50 50 204 2 ",
"   c #010101",
".  c #060709",
"X  c #07080B",
"o  c #0A0B0D",
"O  c #0C0D13",
"+  c #110E11",
"@  c #0F1014",
"#  c #0E1119",
"$  c #131215",
"%  c #191415",
"&  c #1E1816",
"*  c #14151B",
"=  c #1A1618",
"-  c #16181D",
";  c #1C1A1D",
":  c #231C1C",
">  c #171922",
",  c #1B1D25",
"<  c #1E1F28",
"1  c #221E22",
"2  c #1E2025",
"3  c #1F212B",
"4  c #252123",
"5  c #2B2424",
"6  c #22232B",
"7  c #29272B",
"8  c #2D2A2C",
"9  c #302626",
"0  c #322A2B",
"q  c #3A2E2C",
"w  c #3A312E",
"e  c #252933",
"r  c #272A34",
"t  c #2A2C35",
"y  c #2B2E39",
"u  c #322D33",
"i  c #392F30",
"p  c #2F3235",
"a  c #2F313A",
"s  c #343234",
"d  c #3B3333",
"f  c #3D3836",
"g  c #33333B",
"h  c #3A353B",
"j  c #36393F",
"k  c #3D3B3C",
"l  c #413635",
"z  c #443936",
"x  c #4A3A37",
"c  c #433C3C",
"v  c #4A3D3C",
"b  c #3F403E",
"n  c #46413F",
"m  c #4C413E",
"M  c #52423E",
"N  c #333642",
"B  c #3A3740",
"V  c #363943",
"C  c #3A3B44",
"Z  c #3C3E49",
"A  c #433D42",
"S  c #483E42",
"D  c #3F4143",
"F  c #3E414A",
"G  c #3D4352",
"H  c #444344",
"J  c #4C4342",
"K  c #4C4846",
"L  c #42444C",
"P  c #4C444A",
"I  c #42484E",
"U  c #4C4A4B",
"Y  c #534544",
"T  c #544A47",
"R  c #594A44",
"E  c #534749",
"W  c #544C4B",
"Q  c #5A4D4B",
"!  c #56514E",
"~  c #5C514E",
"^  c #434652",
"/  c #484652",
"(  c #464953",
")  c #4C4C53",
"_  c #4B4E59",
"`  c #554D52",
"'  c #4D5155",
"]  c #4E525C",
"[  c #555453",
"{  c #5C5453",
"}  c #5A5957",
"|  c #53555C",
" . c #5B5B5B",
".. c #604F4E",
"X. c #63524E",
"o. c #6A564E",
"O. c #635452",
"+. c #675655",
"@. c #655A56",
"#. c #6A5A56",
"$. c #645C5B",
"%. c #6B5D59",
"&. c #715D57",
"*. c #715E5A",
"=. c #5F605E",
"-. c #64615D",
";. c #6C625E",
":. c #74635C",
">. c #79665E",
",. c #5B5D62",
"<. c #5A5D67",
"1. c #5F6263",
"2. c #5C636D",
"3. c #636363",
"4. c #6B6462",
"5. c #666967",
"6. c #6C6866",
"7. c #61636A",
"8. c #66696B",
"9. c #6C6C6C",
"0. c #736662",
"q. c #7B6661",
"w. c #746A65",
"e. c #7C6B64",
"r. c #736D6A",
"t. c #796D6A",
"y. c #6C706D",
"u. c #76716E",
"i. c #7B726E",
"p. c #6A6E71",
"a. c #6E7176",
"s. c #6D737B",
"d. c #747473",
"f. c #7B7572",
"g. c #777877",
"h. c #7C7975",
"j. c #72767C",
"k. c #75797E",
"l. c #7C7C7B",
"z. c #816E66",
"x. c #84736A",
"c. c #83736C",
"v. c #827572",
"b. c #827A76",
"n. c #8A7C74",
"m. c #837D7A",
"M. c #8B7E7A",
"N. c #7F817E",
"B. c #84817D",
"V. c #8C837D",
"C. c #93847B",
"Z. c #767C83",
"A. c #7A7E83",
"S. c #867F80",
"D. c #7E8285",
"F. c #7E8489",
"G. c #848482",
"H. c #8B8582",
"J. c #8C8985",
"K. c #858788",
"L. c #85898C",
"P. c #8B8C8A",
"I. c #928B85",
"U. c #968A86",
"Y. c #928E8A",
"T. c #8F918D",
"R. c #95928D",
"E. c #99938D",
"W. c #8A8D91",
"Q. c #8D9092",
"!. c #949592",
"~. c #9A9692",
"^. c #969995",
"/. c #9B9B96",
"(. c #96999A",
"). c #9D9D9A",
"_. c #A2978E",
"`. c #A49790",
"'. c #A39A95",
"]. c #A19D9A",
"[. c #9EA19D",
"{. c #A2A39E",
"}. c #A8A49C",
"|. c #A4A5A2",
" X c #A9A6A2",
".X c #A5AAA5",
"XX c #AAABA6",
"oX c #A6A7A8",
"OX c #A7ADA9",
"+X c #ABAEAA",
"@X c #B1AEAA",
"#X c #ACB1AC",
"$X c #B1B2AD",
"%X c #BBB6AF",
"&X c #AFB5B1",
"*X c #B3B6B1",
"=X c #B5B9B4",
"-X c #B8B9B5",
";X c #B9BBB6",
":X c #BBBEB9",
">X c #BEC1BC",
",X c #C1C2BE",
"<X c #C3C5C1",
"1X c #C6CAC5",
/* pixels */
"j * ' ,.s.Z.1.Z.k.s.' a.k.a.D.F.N.' s.a.j.F.D.8 _ s.D.s.' F.D.j.s.K.' Z - Q.7.g.) D.A.F.L.p.@ L ( O ",
"Z - @ D 8.2.H 5.8.,.D 3.8.s.p.3.' ' d.8 H ,.' s @ ,.8. .F k.j.8.a.9.h $ % ; 7.) s A.) U  .B p L o s ",
"I Z.p.U k.K.T.=X*X#X5.(.#X#X#XV.g.5.#XT.>Xg.D.[ a.+X(.|.L..X&X=X+X#Xu.3.d 6.OXOX5.K.H D.A.a.7.A.a.W.",
"U F.D.,.8.Z.(..X.X#X9.j.!.[.}.[.J.1.[.|..X+X{.9.[..XR..XL.>XOX|.[.|.N.6.XXr.[.(. .s OX(.J.9. .g.l.G.",
"t | d.[ K.G.9.^.[.T. .T.T.9.(.[.B.1.{.R.D.N.!.$.(.{.{.[.-.^.[.!..X.X6.G.^.^.G.{.} R.[.[.P.9.9.L.F.!.",
",.8.L. .d.P.d M B.B.B.J./.).{.+X.X6.)./.} N.{.u.E.#X#X#Xu.5.^.R.!.|.B.I.+X.XT.{ J )..X+X+XY.g..X[.(.",
"A <.Z.d.XX-.7 J.=XOXJ.{.OX.X>X#X#XB..XG.n {.#XB.#X#XOXOXR.=X#X*XOX#XT.1X+X+XOX(.R =X#XOX XJ.N..X).L.",
"> _ L $ 8.;Xd.*X*X$X5.^.>X{.#X#X}.6.|.b 6.*X*Xu.#X#X#XOXN.>X#X[.XX#XP.*X#X#X#X#Xt.&X&XOX{.h.l.#XW.Q.",
"_ ,.,.P d g.3.S 4  .6.{ l. .b.P.E.! 8.9.B.U { f E.|..X).6.u.'.G.R.].r.Y.{..X{.{.@.I.h.{.}.u. .N.7.A.",
"< V | G.#X#XY.i.O.#X!.{..X|.$X#X#Xd.=X.X,X[.5 [ .X#XOX.X^.=X#X:XOX=XR.<X#X+XOXOXB.;XI.|..XL.R.[.|.Q.",
"_ ) <.g.#X+X[ m.#XXXB..X[.G.:X#X.Xr.+X[.}.-.[.;.#X.X.X.XG.:X#X#X#XOXB.T.OXOX.XOXh.$X#Xu.XXT.L.[.L.l.",
"6 V 5 8  .K 9 0.h.d.W T #.H c  .-.c i.i.-.f.i.8 3.l.D.d.m r.} C l.f.K w 3.d.l.g.J f.u.5.K s 8 h p H ",
"W.F.1 r.;X4.c ,X*X>X!..X=X^.Y.r.E.m.#X.X,X=X=X! .X*X=X=XV.x.R 9.*X=X^.{.=X#XXX=XR.>X*X*X=X^.l.V.{ $.",
"' p Z.d.l.9.~.=X).).B.[.*X[.;X).= l.*X|.=XOX.XN..X$X.X.X9.9 0.+X#X#XG.1XXX.X[.{.h.#X=XXX+Xf.^.XX`.9 ",
"@ j.| O f.+X].+X=XOXh.R.+X|. XW W [ #X.X#X{.XX-.{.#X#Xd.8 f.$X{.$X#Xd.k {..X+XOXu..XXX{./.h.3.XXE.0 ",
"8 { d : t.I.H.~.! h.} 6.~.;.0 Y.f.: } m.V.i.H.m B.T y.q : J.V.v.I./.;.W u.B.G.H 5 6.V.R.R.V.W 5 g.g.",
"q O.e.t.[.^.J.`.h.=XP.{.#XN.[.XX+XW R.).<X$X+Xm..X+X[..XB.*XOX=X#X#XP.(.:X.X/.~.f ;X*XXX[.(.5 P.oXP.",
"5 +.%.@.R./.H.4.|.XXl.{.*X}.*X#X{.f.XX.X+X#X+Xu..X$X|..Xd.*X#X|.#X*Xl.:XXX.X.X.Xu.#XXXOXT.K B.#X(.).",
"1 1 b.%.d Y.H f.-.I.u.f.{.{.[.N.v 4.E.[.|.|.|.R  X X.X|.r.`.|.!.{.XXr.V.|..X{.l.J I.{.R.-.b.w.{.).).",
"<.7.I k (.oXY..XOX#XH..X.X.X=X{.4.J.OX.X,X).OXH..XoXoX.XY.=X.X=X/..XP.<X.X+X.XG.c =X(./.>X(.T.=X[.Q.",
"( Z.= d XX#XJ.l.!..XB.[..X[.=X.X|.[ #X.X#X.X.Xi.#X.X.X.Xm.*X.XOXXX.XH.#X.X.X^.^.h..XY.#XXXG.G.OX+X(.",
"= O 8 A } 9.K d.d.3.K } d.} y.N.f 6 5.d.5.G.w.l J.J.B. .: I [ W B.G.d -.B.B.l.B.c E -.} =.f d $._ L ",
"R X.0 1 X.w.z.C.x.x.c..X>X[.1X=XY.9 V.~.1X*X$Xm.#X=X$XJ.x H {.XX*X;XE.XX=X1X*X=XB._.x.V.c.n.6.M.e.e.",
"E 1 #.M.`.B.>.n.>.z.o.|..X{.XX[.[.} H.P.$X~. Xm.{.+X{.#Xm.R.{.XX{.{.J.$XXX;X[.{.u.V.C.e.e.:.u.I.c.:.",
"0 S U.f.U.E.C.C.:.z.o.{. X{.>X{.{.d..XV.$X;X Xl.{./.{.{.B.#X|.XXXX$XR.$X Xh.{..XB.%Xe.z.x.*.v.R.V.e.",
"1 w z & Q w.#.x.z.%.M i.J.V.I.J.h.} b.I.m.m.B.~ I.J.J.B.T u.V.b.H.b.@.B.~.h.u.m.! b.n.e.O.: Q w.0.%.",
"&.e.M.-.w.e.%.'.{.{.f.)./.-.#X X Xw./.~.]./. X4.).|. X|.v.K [./.].f.1 M..X XH.E Q |.{.|.f.Q @.c.*.w.",
"c.+.%.O.o.e.C.{.Y.{.w.J..X}.}.[.].g.+X).-X@X{.u.).E.{.{.B.{.{.{.+X+Xh.*X).[.{.).T |. X/.^.X.;.#.*.Y ",
"9 Y 7 d x.e.:./.E.V.;.Y.E.E.}.E.i.$.{.[.].^.R.{ {./.E.J.w.}.XXE././.4.P.@X{.{.).@.J.R.~.C.*.X.O.Q J ",
"z ;.c.{ V.I.t.x.~.E.i.b.V.h.V.E.E.;.B.I.E.I.'.;.Y.{.].}.i.E./.V.E.m.d.Q I./.).].4.d H.'.'.H.@.r.+.*.",
"Y Q &.w.X.>.n. XI.'.i.w B.[.>X{.{.N.$X{.$X{.|.f..X X[./.R.#X{..X|..XH.P.{.).{.{.h.[ J R.E.M.#.*.0.S ",
"q &.>.#.X.e.%.b.n.x.;.I.[.T.@X[.I.f.[.{.*XR.{.w.{.XX{. XB.XX{..X|.{.G.+X{.[.[.{.r.).H.m.E.4.O.X.o.z ",
"+ 5 x h Y q 7 f Y Y l n T n K } ;.K w.u.;.r.w.z w.>.w.;.J { w.6.;.;.~ w.i.e.w.e.K 0.{ s n 4 w 0 % 0 ",
">.X.% d ~ U.c.M.t.V.i.E./.} R.$X+Xf.XX.X,X#X$Xi.#X@X#XXXH.+X+X XXX$XV.;X#X#X$X$XV.E.}.~.~ : O.~ Q { ",
"v 8 4.q o.:.E %.d :.:.[.{.b.l.{.!.B.{.[.#X{.{.b./.[.[./.m.XX].R.^.{.V.:X[.{.}.{.f.}.E.v.m 9 m ;.q.9 ",
"+ 0 Y 9 m % * %.+.o.n b.Y.B.M.B.f.W R.!.I.B.V.! V.I.J.B.{ G.E.m.R.I.-.u.G.J.J.h.K b.w.: M 5 f ~ v $ ",
"v #.;.+.$.+.5 5 $.W ~ h.Y.m.E.I.v.@.G.H.~.I.z.~ V.R.Y.-.& i.M.h.w.! Y m.m.g.c f.@.0.0.%.{ 5 ~ O.Y z ",
"A E %.W Y q.o.~ 9 Q R ~.|.Y./.E.c.-./.!.}.E.v.t.).XXE.E.6.i.V.V.v.T *.@XY.G.B.C.O.x.O.O.M Q R #...*.",
"1 Q +.x S X.Q q.>.% % H.^.J._.C.*.4.I.J.~.I.e.%./.[.).B.~ ;.~ v.c.%.%.E.E.w.I.V.m ~ z d v.X.~ X.~ Q ",
"t h ` v l S q +.O.%.5 z 0.#.+.#.$.d z i.#.O.w.l ;.:.6.@.q 8 Y T %.6.v #.#.w.w.+.4 $ d T T % J O.S ` ",
"B / _ E Q *.q.0.Q O.c Q O.S $.E S f O.P t.E A d X.*.*.` S { ` $.P S h #.#.%.O.v 4 X.*.q.Q S S { ) ( ",
"y Z , < 1 S Q +.Y S 0 h P ) E C h 0 P O.E A A 1 S Q E S i A O.P S A 5 u O.Y m : q ~ X.{ A 5 > ` P L ",
"> t 1 + ` S 7 g A J $ u A h h h 6 4 h V h h 8 + i h h u = h C g h g > h 1 % O c 4 d u V * : O g y Z ",
"< Z _ _ | Z ,.<.| _ C L / C _ <.L a F C 7.<.A N _ C Z ^ V ^ Z ' | / V s.P g ] _ s | | ] _ u g / V 2.",
"- 3 t g r V e ( V t 6 * A 3 ( e r r N r ^ t y * 3 Z r r a G Z N Z y r y C r 6 r < e y V t t y ^ 3 a ",
"Z t O X > G O < t , . * > # > > @ . r 3 < * O X > t , # o , * > > # X N - r e O . # V , * # * < @ > ",
"    - ,     - O r Z j       # ^ o y N 6 . * a   < .         ,     -     X y 7 > o 7   .     . * 6 $ ",
"      .     $   . X O     $ . O F . o o .         .   X o C o   . o     t O           o   e   + * O ",
"                  .       (                 .                         . o             .           o ",
"                                                .                                                   "
};
