/* XPM */
static char *ground[] = {
/* columns rows colors chars-per-pixel */
"60 60 212 2 ",
"   c #010101",
".  c #060609",
"X  c #090708",
"o  c #07080B",
"O  c #0A0A0C",
"+  c #110D0E",
"@  c #0C0D12",
"#  c #120F10",
"$  c #0F1117",
"%  c #131214",
"&  c #1A1515",
"*  c #13151B",
"=  c #1A181B",
"-  c #1C191B",
";  c #241D1D",
":  c #2A1F1D",
">  c #20201F",
",  c #1A1C23",
"<  c #181A25",
"1  c #241E22",
"2  c #281D20",
"3  c #1F2025",
"4  c #1E212C",
"5  c #242224",
"6  c #2B2424",
"7  c #22242C",
"8  c #2C2729",
"9  c #26282E",
"0  c #2B2A2C",
"q  c #332B2B",
"w  c #362B2A",
"e  c #36312E",
"r  c #3A312F",
"t  c #232632",
"y  c #252A34",
"u  c #2B2C34",
"i  c #2B2E39",
"p  c #332D32",
"a  c #392E34",
"s  c #2F3237",
"d  c #2E313B",
"f  c #353234",
"g  c #3B3332",
"h  c #33343B",
"j  c #3C353B",
"k  c #393839",
"l  c #3C3A3C",
"z  c #453836",
"x  c #40373B",
"c  c #443B3C",
"v  c #4A3D3C",
"b  c #47403E",
"n  c #4C413D",
"m  c #51423B",
"M  c #333642",
"N  c #363943",
"B  c #383A46",
"V  c #3B3C44",
"C  c #3A3E49",
"Z  c #443C42",
"A  c #493F41",
"S  c #3F4142",
"D  c #3E414C",
"F  c #444345",
"G  c #4D4443",
"H  c #4D4946",
"J  c #44444B",
"K  c #4B4449",
"L  c #46484B",
"P  c #4C4B4B",
"I  c #534543",
"U  c #544946",
"Y  c #5B4A46",
"T  c #564748",
"R  c #554C4C",
"E  c #5B4D4C",
"W  c #54514F",
"Q  c #5C514E",
"!  c #434651",
"~  c #464952",
"^  c #4B4B53",
"/  c #4A4D58",
"(  c #544C53",
")  c #5A4F53",
"_  c #4E5157",
"`  c #555353",
"'  c #5C5453",
"]  c #5B5856",
"[  c #54555A",
"{  c #57595C",
"}  c #5D5B5A",
"|  c #634F4D",
" . c #63524D",
".. c #625452",
"X. c #6A5652",
"o. c #635A55",
"O. c #6B5B55",
"+. c #675758",
"@. c #645C5A",
"#. c #6B5D5A",
"$. c #725C57",
"%. c #725E59",
"&. c #66615D",
"*. c #6B615D",
"=. c #73625C",
"-. c #79645D",
";. c #7C685F",
":. c #494F61",
">. c #545661",
",. c #585B64",
"<. c #5F6164",
"1. c #5E626B",
"2. c #5C6470",
"3. c #646464",
"4. c #6C6562",
"5. c #686867",
"6. c #6C6966",
"7. c #63656B",
"8. c #65686B",
"9. c #6C6B6B",
"0. c #746662",
"q. c #796561",
"w. c #746A65",
"e. c #7B6B64",
"r. c #726D6B",
"t. c #7B6E6A",
"y. c #6E706F",
"u. c #74716D",
"i. c #7B726E",
"p. c #656A73",
"a. c #6A6E73",
"s. c #646978",
"d. c #716E71",
"f. c #6E7275",
"g. c #6D7379",
"h. c #747372",
"j. c #7B7573",
"k. c #767876",
"l. c #7C7976",
"z. c #71767B",
"x. c #75797C",
"c. c #7C7C7B",
"v. c #816D66",
"b. c #84746C",
"n. c #89756C",
"m. c #837672",
"M. c #837A75",
"N. c #8B7C74",
"B. c #897C77",
"V. c #837D7A",
"C. c #917D72",
"Z. c #7E817E",
"A. c #8F8276",
"S. c #85817D",
"D. c #8B837E",
"F. c #91837C",
"G. c #97877E",
"H. c #757A81",
"J. c #7A7E82",
"K. c #7D8283",
"L. c #7D8389",
"P. c #838482",
"I. c #8C8682",
"U. c #868986",
"Y. c #8B8985",
"T. c #81868B",
"R. c #868A8B",
"E. c #8C8D8B",
"W. c #938B85",
"Q. c #968984",
"!. c #938D8A",
"~. c #998E8A",
"^. c #8E918D",
"/. c #94928D",
"(. c #9A938E",
"). c #8B8D90",
"_. c #8E9294",
"`. c #949492",
"'. c #9A9692",
"]. c #969995",
"[. c #9B9A95",
"{. c #94979A",
"}. c #959C99",
"|. c #9C9D99",
" X c #A0968F",
".X c #A39B95",
"XX c #A69B98",
"oX c #A29E9A",
"OX c #9EA19D",
"+X c #A2A39D",
"@X c #A9A49D",
"#X c #9EA3A1",
"$X c #A4A6A2",
"%X c #A9A6A3",
"&X c #A6AAA5",
"*X c #AAABA5",
"=X c #A7ADA9",
"-X c #AAAEA9",
";X c #B1ABA5",
":X c #B1AEA9",
">X c #ACB1AC",
",X c #B1B3AE",
"<X c #AEB4B0",
"1X c #B3B5B1",
"2X c #B5BAB4",
"3X c #B9BBB6",
"4X c #BCBEBA",
"5X c #BDC1BC",
"6X c #C2C3BE",
"7X c #C3C6C2",
"8X c #C5C9C3",
"9X c #CACFCA",
/* pixels */
"V 9 7 <.{ p.L.2.1.2.Z.f.1.P x.L.a.g.L.K.L K.g.g.x.g.K.a.9 1.s.L.H.f.P x.L.p.L.K.L.J >.* 3.P.7.J.[ L.f.L.H.T.L.% s a.L @ ",
"1.* = - K.K.g.8._ Z.x.f.2.Z.K.Z.K.H.R.K.S <X8.S [ L.K.8.P # 9.x.f.x.^ R.K.g.H.).K.S + O % 8.9.,.L #Xx.f.x.x.f.^ ^ B . f ",
"9 7.^ 3 ^ f.c.R.Z.OXE.P.5.f.Z.&XOX^.u.&.S OXOXW ).Z.k H 5.J }._._.}.] k.#XE.=X#X`.g G ; f k.{.K.3.a.9.k 7.z.{ S H.9.P L.",
",.J.g.8.S p.x.U.R.}.2X>X].K.&X&X}.`.I./.P OXOX+X>X}.K.OX5.|.&Xk.$X1X8.>X=X$X1X`.&Xk.k.` g -X{.|.h.L L _.J.c.R.{ 7.k.x.a.",
"V J.R.8.3.p.g.).+XOX>X=XU.<.K.}.+X>X@XD.P U.@XOX3X1X1X).`.#X&X$X$X-Xf.>X>X$X5X&X&Xh.k.[.%Xh.&X&Xr.u %X>X|.P.U.<.p.E.R.!.",
"s V 8.{ } c.K.k.4.`.^.U.y.u.OXE.3.].[./.F OX].U.l.U.J.S.r.`.|.}.|.[.F ^./.U.OXOXOX] E.`.].5.|.`.} j.{.}.[.U.V.5.J.T.J.).",
"<._ k.K.P h.+X;  .q /.j.'.I.I.|.`./.&X,X} @XOX+X4.( [.XXP.'.=X%X&X<XQ ` ^.Z.+X!.$Xr.M.$X$X_.OXg U !.oX%X%X%X;X6.$X$X#X`.",
"/ a.8.g.5.&Xu.- f &X>X>X+X&X-X=X-X5X=X<XZ.1X/.S.G E.-X*X`.>X-X=X&X>XM.>X-X&X9X>X&XP.7X>X=X=X-X!.z 1X=X=X=X$X$Xl.$X$X>XP.",
", >.p.( k c.c.E.Z.3X>X=X!.V.&X>X+X>X>X,X5.>X&X5.y.>X-XoX`.=X-X=X=X-XS.>X-XOX>X&X=XZ.3X-X=X>X=X>XV.+X-X-X+X@X'.`.>X>X_.K.",
"@ u u @ . 3.S.] k Z.S.Z.H ` `.U.} c.Z./.v u.L - G U.R.r.4..X|.`.`.U.K P./.S.I././.] I.[.}.`.`.E.@.j.`.`./.S.w.0 y.k.F f.",
",.H.s.d.5.G `.|.*.r @ Z.+X4./.`.u.].OX1X*.`._.^.`.@.] z j.+X=X-X-X1X0./.*X/.%X$X,Xm.*X-X-X-X&X-XD.!.D./.%X*X@Xk.^.{._.R.",
", u y h.c.>X>X%X0.Q w.2X>XOX&X=X`.-X2X>Xj.>X2X#X7X-XH 8 E.=X=X=X>X>XS.-X>X-X9X5X>XS.7X>X=X=X=X=XY.,X&XV.&X&X$X`.#X|.=XE.",
"^ k J <.K.>X-Xc.R '.>X-XOX&X$X|.I.<X,X<Xu.,X&XOX@X9.&.[.E.>X=X=X&X>X9.>X>XOX1X>X=Xk.OX>X>X&X&X&XS.>X<XM./.=X&XZ.&X|.H.x.",
"h 2.~ = { E.9.2 G @XOX].l.*.' B.L Z.^.Y.P W.|.[.j.S.(.k.L |.[.|.`.E.H [._.f.S.OX`.P e 9.{.`.OX].4.j.].OX5.Z.} 8 9.[ <.k.",
"g.p.V 2 &.`.' ; S.(.+X+X.Xl.+X|.9.H 5.@X@.'.'.E.OX|.[.`.6 k.$X$X&X*X=.n.Y - +X$X$Xu.M.`.#X|.$X+XS.W.[.$X{./.`.3.9.6 5  .",
"H.K.f S U.:Xr.A %X=X+X2X+X$X&X1X[..Xr.Q v >X=XOX6X-X>X@XU.>X=X=X-X>Xm m > Z.1X>X>XZ.2X>X&X+X+X&XE.>X>X>X>XOX-X3.OX>XQ R ",
"h 9 x.{ 8.W U.-X}.&X|.`.`.[.>X&X+X:X-Xf f 3X2XOX>X=X&XOX/.-X5X&X&X,X0 5 D.+X2X-X&Xk.2X&X&X&X`.&XS.[.=X*X$X1XI.`.&X,XC.; ",
"O 7.7.9 + .X%X$XOX&X3X-XE.V.-X>X$X.Xc o.- |.&XOX-XOX>XY.S.+X*X>XOXk f S.*X[.3X>X<X&.8 ].&X&X-X-XZ./.%X$X[.'./.' +X-XW.; ",
"5 K x & - i.M.D.u.M.H 9.} c I.M.#.g c.j.: : &.u.l.i.&.4.b w.b W G - e m.B.*.m.W.W.H Q H j.u.u.r q k j.S.V.I.P...6 G 3.8.",
"w  . .n.{ %XOX!.E.o.P.:X-X#X}.4XQ E.>X1X] S./.OX6X;X-X&X/.&X*X+X/.>X` >X*X&X7X>X>XS.8.2X&X&X+Xc.6 :X-X%X&X$X*Xo.k &X1X^.",
"q e.+.X.y.`.[.U.W.o.,X5X=X$X-X5X|.,X>X>Xu.>X+X+X<X1X5XOX+X&X5X&XOX<Xk.>X-X#X3X,X>Xk.7X5X>XOX+X&Xl.,X3X>X&X$X`.k +X-X`._.",
": : v Y z l.V.&.6 Q I.l.5.0.E.(.S./.E./.m !./.E.Y.^.^.l.=.Y.^.Y.E.I.H (.`.S.^.`./.P F.S.^.U.E.U.o.u.Y.S.!.' w } U.).x.P.",
"K = 3.h.&.c E.l.` [.u.[.[.i.OX+X#X`./.e Q /.[.|.>X+X+X/.u.OX&XOX+X*X6.(.+X`.-X$X$Xw.(.+X&X#X$X<.z Y.+XOXh.P.%X4.$X#X#XU.",
"2.T.u i k -X%X[.Z.OX&X=X+X+X&X-X>X$XOX^.P <X-X$X6X[.&X+X@X=X=X=X=X*XS.=X>X&X8X'.*XZ.6X>X&X=X&XY.r :XOXOX$X2X2X`.>X4X#X{.",
"! {.h X ] -X-X[.` *.OX&X].OX=X=XOX>X&X>X_ $X>X$X&X$X=X|.!.>X=X$X&X&Xu.>X=XOX2X-X=Xl.>X&X&X>X^.OXI.^.E.'.-X>XOXl.&X2X=X_.",
"@ < = q 9.c.K.5.` l.Z.Z.4.] Z.S.5.S.S.5.> y.Z.k.u.U.U.r.' /.U.P.k.3.5 h.k.3.u.U.S.b u.c.Y.h.h.c.( P y.9.3.k.P 0 c.K._ [ ",
"A v 2 + g : h.o.&.u.e.Q D.6.^.E.Z.].}.r.8 g j.u.OX/.U.F.w..XOXOXP.g v 5 Q o.=XOX}.o.W.|.+X*X+X+Xu.#.Q V.6.Q G.5 +.Y &.@.",
"j v a -.b ~.z %.A.=.;.B.;.+X>X+X*X>X$X=XW G XX+X6X&X&X|.$X&X-X+X@X(.z @.-X$X8X-X&XD.[.&X%X8X+X&XI.@XN.b.=.C.n.Y.I.C.v.-.",
"o.q v  .E..X@Xe.t.-.e.-.;.+X&X@X[.+X+X-X` $Xw.j././.[./.+X'.+XOX@X2X5.$X+X[.*X/.&XM.>X&X$X>X+X$Xc.*.n.F.-.;.n.w.I.W.0.=.",
"q q -.N.6.G..XF.b.;.;.n.-.W.&X+X+X<X&X&Xj.-X%X/.:X,X,X|.!.+X|.$X+X,X6.&X$XOX3X2X&XI.,X&X|.*.+X&XY.,XB.b.-.n.N.0.~./.m.=.",
"5 m n n & 0.n.b.e.n.b.;.=.w.'.+X!.[.[.(.' '././.~.`.!.V.u..X'.`././.z E./.Y.'.W./.*.(.[.>X&.(.!.*.l.Q.M.b.#.> Q j.B.0.w.",
"' v i.j.H o.*.*.n !./.E.&.j.'.' W Y.'.+XT V.Y.M.D.V.`.V...!.[.[.(.+X#.e D.l.S./.q q  .!.[.S.*.q o.S.!.'./.U -.o.-.=.| ' ",
"b.X.O.0.U  .e.q.@XY.[.OXS.r.OX-X+X@X+X@Xu.1X+XOX5X].+XOXc.|./.+X+X%Xm S.+X+X8X3XW.l 3X+X`.+X-XV.: %X$XoX|.[.z #.E =.v.q.",
"E q. .x G X.=.N.D./.(.+X/.[.[.*X/.*XOX+X*.-X>X^.*X>X*X/.!.OX'.+X[.%XS.+X@X!.>X,X+Xu.-X+XOX@X[.+XM.!.[.oX[.'.G.q.Q w...1 ",
"; w 6 + Q =.=.X.*.F.S.w.0.&.S.D.i.G.l.-.m D./.D.D.G.A.6.o.Y.I.S.m.l.U D.(.S.D.M.Z.G 6.E./.Y./.S.] ] l.A.M.%.%.Q n T 1 I ",
"v 0.b.N.] (. X~.' Q.*X@XoXM.A.+XS./.;X1X&.(.(./.+X'.+X+Xm.oX,X-X,X3X*.@X%XI.*X*XD.j.4.S.-X%X-X:XV.c ' :X;X,X;X4.N.N.#.%.",
"E U E =... .=.b.XX/.(.'.Q.6 c %X+X,X+X@Xi.,X>X[.,XOX+XOXW.+X+XOX@X&Xl.@XOXOX1X&X&Xc.c.+X+X|.OX$XY.` 8 P.[.(.'.m.E v.e.v ",
"w -.=. .Q | N.=.i.F.F.Q.i.j.[.|.W.*X+XOXu.,X>XOX>XW.+X(.'.+X,X.X&X%XM.+XOXOX,X+X+Xh.3X+X+XOXOX+Xl.!.Y.O.!.(.M.#.T -.O.r ",
"1 x  .| R #. .*.g i.B.-.q.u..X`.M.[.'..XW +X`.OX(.OX+XY.} &X/.E.[..X} '.[./.+XOX[.r.(..X[.[.[.OXj.&.[.V.@.u.&.o.#.E - +.",
"G 8 6 r I ; ' ' z q u.*.r.' r r.k e c.(.n i.S.M.S.Y.S.m.I Q.(.~.B.W.U 5.D.w.i.S.Y.b S.Q.(.!.Q.m.&.#.U h.r.; & % ` ; g E ",
"%.-.6 X q q.m.b.u.X.' I.b.|.+X`.v *X$X%Xu.,X=XOX5X+X+X*XD.+X+X+XOX@Xi.$X$X+X4X%X+XD.5X+X+X%X+X,X/./.+X/.D. .: o...E O.g ",
"v > @.Q g X.$.Y G n v 0.b..X+XoX9.l.+X+Xr.,XOX|.@X+X+X(.'.[.|.OX|.+Xr.+XOXI.$X[.+Xl.5XOXOX&X[.@Xm.[.(.W.-.v v b G B.$.: ",
"+ - G I g Y & X I R e.=...j.`..XS.F.I./.H [.|.`.OX!./.S.u./.'.(./.!.' `.'.I..X'.[.*.D.'.'./.`.!...i.Y.O.q ..r r X.X.v # ",
"r ` @.o.` @...6 # 6 6.4.5.@.!.~.t.m././.I ..l.V.D.!.B.t.b M././.V.- f v m.4.i.V.W w &.&.E.L c j.@.' -.u.Q } 6 5 E ..x a ",
"I ....=.x  .b.O.g ' I v -.(.[.$X'.+X[.A.Q @X+XOX;X(./.b.Q.OX,X[.'.W.e D.[.Q..X#.q -.,X[./.3.'./.=.N. .e.#.E n &.O.=.T O.",
"8 T +.| R Y E $.I m r  .v I.|.oXG.W.F.N.&.+X!.S.+XD.A.;.M.[.+X'.+X(.&.o.0.-.~.A.]  .@X(.M.6.Q.A.Q B.0.Y G | b.E Y X.E X.",
"0 a Y T ; z X.=.r =.#.& ; 9.[./.A.(.A.=.k ~.D././.Q.m.=.m.'.'.'.W.-.e  .U *.Q.Q v.Y !.D.F.(.Y.;.U 6 q & Q =.O.#.X.$.U  .",
"u f K K g j g 6 G Q U #.w ; b -.U Q Q =.8 n m *.o.Q ] Q G R +.@.} G 5 & c x ' ' 4.g Q m *.&.o.o.: * - c R c % q +.G Z F ",
"B ^ ! ( I | X.%.q.E ......#.+.T ( T T A j | +.K w.( A Z T #.#.q.E 0.q +.) ( 4.( Z a %.*.$.%. .I w U #.-.-.) ) I | ) ,.! ",
"t / N < u u T %.+.X.U A x j x ) Z +.x B 6 V ( E +.Z Z a a Z X.X.K c 8 k ( K #.Z V 1 Z A T ..I + : O.T %.+.I V 1 B ( / ~ ",
"M < 1 . # a Z A p j c R w u Z ( B j N Z 1 K A ) a Z j 0 q j x a j c 1 Z ( A V x Z 1 5 A a & @ I z c j Z j 1 # O u A k B ",
"= ~ >.Z B 1.[ ( J [ ^ P F l ^ { J K { V 6 N ! Z [ [ J l p ^ ( / ^ K 1 h >.Z ( [ h k / O Z u / ( f k J _ / u T 0 u ^ ^ >.",
"* , M B V B u M / V C B J h M 9 d D D C i C h i / D D N B C y 7 M D i C u M >.~ M i s.>.y y C C u ! ! N B / i h M i M ! ",
", u < i u t C < / C M y d @ u N 7 D 4 y , i B 9 D d 7 i * < C h 4 N y C C 4 :.M i < i M C * y 4 4 7 t C B t N M C D < y ",
"/ D @ @ @ < :.* , y M , @ , < < $ 4 < $ . * M 4 4 < @ o $ 4 C < < $ o < < * t < < @ ! , u 7 = @ . * < B < < * @ 4 < @ 9 ",
"  @   7   . O   . y ~ / u     o   4 9 o % B / u .   C #   s # .   .   . , %         . . y D = . . M . o . . .     # N , ",
"      3 X     * y   o 4 V         o ! D = i % . O O     . $   . o   o h %     * =     X . , = @       X .   =   O D , * ",
"                    @         , , @   - . .   $                       4               V *                   4 .     3 . ",
"                              * *         . .         .                                                 .               ",
"                                                                                                                        "
};
