/* XPM */
static char *char_down[] = {
/* columns rows colors chars-per-pixel */
"60 60 239 2 ",
"   c #010101",
".  c #060609",
"X  c #07080A",
"o  c #0A0A0C",
"O  c #110E0E",
"+  c #16110E",
"@  c #0C0D12",
"#  c #120F10",
"$  c #0F1118",
"%  c #141313",
"&  c #1A1614",
"*  c #1C1916",
"=  c #14151B",
"-  c #19181B",
";  c #1D1B1B",
":  c #221915",
">  c #231D1B",
",  c #291E1B",
"<  c #25211E",
"1  c #2C211D",
"2  c #33251F",
"3  c #1B1C23",
"4  c #181A24",
"5  c #251E22",
"6  c #1E2129",
"7  c #242224",
"8  c #2B2423",
"9  c #23252C",
"0  c #2A292A",
"q  c #2C2B2C",
"w  c #332622",
"e  c #352A25",
"r  c #3B2A26",
"t  c #332C2B",
"y  c #3C2D2A",
"u  c #363026",
"i  c #34312D",
"p  c #3C322D",
"a  c #262B31",
"s  c #272A36",
"d  c #2B2C33",
"f  c #332D33",
"g  c #2D3136",
"h  c #2E323B",
"j  c #343334",
"k  c #3B3332",
"l  c #33353C",
"z  c #3B3738",
"x  c #3C3B3C",
"c  c #412E29",
"v  c #44332E",
"b  c #48352C",
"n  c #413636",
"m  c #4C3631",
"M  c #433936",
"N  c #4C3935",
"B  c #443B3B",
"V  c #4A3D3B",
"C  c #523A35",
"Z  c #563E3A",
"A  c #593F39",
"S  c #3F403C",
"D  c #49433B",
"F  c #4D423D",
"G  c #554535",
"H  c #53423C",
"J  c #5A423D",
"K  c #5F503B",
"L  c #695337",
"P  c #363943",
"I  c #383B47",
"U  c #3A3C44",
"Y  c #473C42",
"T  c #3D424B",
"R  c #3F4A52",
"E  c #444445",
"W  c #4C4442",
"Q  c #4D4945",
"!  c #44434B",
"~  c #484649",
"^  c #4C4B4B",
"/  c #534543",
"(  c #5E4641",
")  c #554A44",
"_  c #5A4A45",
"`  c #52464A",
"'  c #544C4B",
"]  c #5B4D4B",
"[  c #57564D",
"{  c #5D514E",
"}  c #464954",
"|  c #444B54",
" . c #4B4C53",
".. c #554C53",
"X. c #4C535A",
"o. c #545453",
"O. c #5C5453",
"+. c #5B5956",
"@. c #54555A",
"#. c #5B5A5B",
"$. c #634A45",
"%. c #674B47",
"&. c #794E4A",
"*. c #63524D",
"=. c #6B5349",
"-. c #75554C",
";. c #635452",
":. c #695653",
">. c #645A55",
",. c #6C5B55",
"<. c #645C5A",
"1. c #6C5E5A",
"2. c #765D57",
"3. c #5F6158",
"4. c #656655",
"5. c #6D6D54",
"6. c #64625D",
"7. c #6A625D",
"8. c #73625C",
"9. c #79655D",
"0. c #7A695C",
"q. c #4C5662",
"w. c #565A62",
"e. c #665F61",
"r. c #5D6268",
"t. c #5C6470",
"y. c #646463",
"u. c #6C6562",
"i. c #6C6965",
"p. c #63656B",
"a. c #65696C",
"s. c #696868",
"d. c #6C6C6B",
"f. c #746662",
"g. c #736A65",
"h. c #7B6B64",
"j. c #7A6B67",
"k. c #736D6B",
"l. c #7A7663",
"z. c #70706E",
"x. c #74726C",
"c. c #7C726D",
"v. c #656A73",
"b. c #6A6E73",
"n. c #6D7276",
"m. c #747372",
"M. c #7B7572",
"N. c #767975",
"B. c #7B7A76",
"V. c #71767B",
"C. c #75797C",
"Z. c #7C7C7B",
"A. c #865754",
"S. c #8B6F4F",
"D. c #94744E",
"F. c #84675B",
"G. c #A37E57",
"H. c #886C63",
"J. c #85736C",
"K. c #8A776C",
"L. c #97776B",
"P. c #95766C",
"I. c #867872",
"U. c #837A75",
"Y. c #8A7C74",
"T. c #837D7A",
"R. c #A66C66",
"E. c #A67D72",
"W. c #78826B",
"Q. c #7E817E",
"!. c #A5845B",
"~. c #B38A59",
"^. c #97896F",
"/. c #888276",
"(. c #84827D",
"). c #8B827D",
"_. c #94857C",
"`. c #A98C6B",
"'. c #BB9364",
"]. c #A98378",
"[. c #B4887C",
"{. c #B59876",
"}. c #C29473",
"|. c #CEA678",
" X c #757B82",
".X c #7A7E82",
"XX c #7D8283",
"oX c #7D8389",
"OX c #838583",
"+X c #8C8682",
"@X c #8B8A85",
"#X c #84888A",
"$X c #8B8D8B",
"%X c #938B85",
"&X c #988B86",
"*X c #928D89",
"=X c #8E918E",
"-X c #979385",
";X c #94928D",
":X c #9A938D",
">X c #8D9093",
",X c #949592",
"<X c #9A9692",
"1X c #969995",
"2X c #9B9A95",
"3X c #959B9A",
"4X c #9C9D9A",
"5X c #B78E82",
"6X c #A6978C",
"7X c #BD9485",
"8X c #A39B94",
"9X c #A29E9A",
"0X c #9EA19D",
"qX c #A2A39E",
"wX c #ABA39C",
"eX c #B8A795",
"rX c #9DA2A1",
"tX c #A4A5A2",
"yX c #A9A7A4",
"uX c #A6AAA5",
"iX c #A9ABA5",
"pX c #A6ADA9",
"aX c #AAADAA",
"sX c #B2ACA7",
"dX c #ADB1AC",
"fX c #B4B3AD",
"gX c #AEB4B0",
"hX c #B7BAB5",
"jX c #C69A8B",
"kX c #C89E90",
"lX c #C9AB8E",
"zX c #C8A895",
"xX c #D6A899",
"cX c #C7B8A9",
"vX c #D6B9A7",
"bX c #E3B4A4",
"nX c #BFC1BD",
"mX c #CFC1B2",
"MX c #C4C8C3",
/* pixels */
"U 9 9 r.@.v.oXa.r.a.XXn.p. .V.oXn.n.oXXX~ Q.V.n. XV..Xb.a w.v.#XV.n.^ C.oXv.oXXXoXE #.= r.OXp. Xo.oXb.#X X#XoX% d b.} o ",
"p.= = - Q.XXV.p.X.XXC.b.r.Q.XXQ. XXX#XXXT dXr.S @.oX.Xa.^ % b. Xn.Q. .#XXXV. X$XXXT O . # a.b.r.~ qXC.V.V.C.n. . .Y . j ",
"9 a. .6  .b.C.$XN.0X$XOXa.n.Q.uX0X$Xx.y.T 0X0X[ $XC.x ^ s.! 3X>X=X3X@.N.rX$XdXrX;Xx Q > j B.3X.Xy.k.b.l p.V.@.U  Xa. .OX",
"w..XV.a.S b.C.#X$X3XhXdX1XQ.uXuX2X,X@X*X^ 0X0X0XaX1X3.s.x x.1XN.qX0XE $XrXrXdX3XuXN.N...k iX3X4Xn.~ E ;X.X.X$X#.p.n.Z.b.",
"U .X$Xa.p.b.n.$XqX0XdXiX#Xy.XX3XuXdXuX+X^ XX0X0XgX4Xo.: * z (.0X0XN.; +.0XuXnXuXuXm.C.2XyXm.uXpXd.f tXdX4XOX#Xy.v.#X$X>X",
"d U p.#.#.C.XXZ.y.1X=X#Xz.m.4X@Xy.1X3X-XS 3.+.^ ' ' t , , e ^ +.+.D 1 p [ i.2X0X0Xo.%X,X,Xs.4X,X#.M.3X3X1XOXT.a..X#X.X$X",
"r.@.V.Z.^ x.qX> =.t ;XN.,X+X@X4X;X;X0XqXM > & & + + w b b r > & & 1 v 1 * D @X%XuXg.T.tXuX=X4Xk / *X9XyXyXyXsXu.tXtX4X,X",
"} b.a.V.s.uXn.* i uXdXgXqXyXpXpXpXnX$X3.p w 1 1 1 2 m A A C w 1 1 r C v w x i.#XpXOXMXpXpXpXaX;Xm hXpXpXpXyXtXB.pXtXdXOX",
"3 @.v.X.x C.Z.$X(.hXdXpX*XT.uXdXqXdXN.i , r v m m m J $.$.J C m m Z $.A m w < #.0XQ.hXpXiXpXpXdXT.4XaXpXtXqX:X;XdXdX$X#X",
"$ s s # . e.(.+.j Q.OXQ.Q o.,X@X3.Z.d.6.8 , c Z J J $.$.$.( J J A A $.( A m v n Q Q ).2X0X1X,X*X<.M.,X1X;X/.x.0 z.V.E n.",
"w. Xb.z.s.W ,X4X7.p O Q.9Xu.;X,Xm.1X1X2XM , y $.$.$.$.$.$.$.$.$.$.$.$.$.$.$.( r ; D $X0XpXwXpXiXT.&X+X;XyXaXwXm.>X3X>X@X",
"3 f s n.Z.gXdXyXu.{ k.hXdXqXuXpX,XuXOX^ p m Z $.$.$.%.$.$.$.$.$.$.$.$.$.$.$._ m e 0 3.=XpXpXpXpX%XhXtXT.uXuXuX;XrX4XuX>X",
"} z ! r.Z.aXaXZ.] :XdXpX2XiXrX0X@XgXm.> w ( $.$.%.$.J J J $.$.$.( $.$.$.$.$.$.A b , 1 y.=X0XpXpXOXaXdXU.=XpXuXZ.uX4X XC.",
"l t. .- #.*Xd.5 W qX0X1XB.7.;.T.~ (.3.* w A $.$.$.$.J C C A J J C A $.$.$.$.$.C b c w e E Q.0X1Xu.M.1X0Xa.Q.3.d d.@.r.m.",
"V.v.U , y.<X{ , ).:XqXtX8XB.qX9X6.k j < r A J $.$.%.&.=.A C $.%.-.=.$.$.$.$.$.J N p r k o.XXqXtX).%X2XtX1X;X,Xy.s.8 7 ;.",
" X.Xf T OXdXk.Y yXpXqXhXtXtXuXgXN.k 1 y b C J $.$.=.L.E.=.A J 2.[.L.=.$.$.$.$.$.G 2 8 i.;X0XqXuX$XdXdXdXdX0XaXy.0XiXO.] ",
"l 9  X@.s.' +XaX3XuX4X,X1X2XgXaX(.+.M 8 c b A %.2.L.[.jXL.-.-.F.jX5XH.2.%.%.%.$.A , 8 C.uXuX,XtX(.2XpXiXtXhX+X,XiXdXY., ",
"o p.p.9 # 4XyXtX0XuXhXaX$XT.aXaX0X*X8 * 1 b A %.R.jXkXkXjX].2.F.jXkXjXL.-.$.%.%.A w + s.tXqXaXaXB.,XyXtX2X<X*Xo.qXyX&X7 ",
"5 ` n = * x.T.).x.U.` d.#.B +XB.7.k [ * , C ( =.E.jXP.H.jXkXE.E.kX5XF.F.H.-.$.J _ b w 8 ^ y.x.k t M M./.T.OX+X;.e E y.s.",
"y ;.*.K.+.aX0X*X@X>.OXfXaX4X4XhX{ (.d.> w J $.-.E.5X_ y E.xXxXxXbXL.w %.[.H.G J %.J N t D OXqXB.0 dXiXpXyXyXaX;.k aXdX>X",
"w H.>.:.m.,X1X@X%X>.fXhXuXyXaXnX+Xs.Q e b $.&.A.[.5X( y ].bXxXbXbXL.r -.jXR.A.%.J v p [ x.$XqXpXB.fXhXdXiXtX1Xj 4XaX,X>X",
"5 5 Y _ n M.T.6.8 [ +XT.i.u.%X,X6.q < b C $.A.R.[.7X-.Z 5XbXbXbXbXE.C 2.jXE.R.&.m > < >.#X$X@X@X>.x.@X(.$Xo.t <.#X,XC.#X",
"Y - e.V.7.x $XM.o.4Xm.2X2Xc.4XtX=Xi.Q < v H %.A.E.kX].].xXbXbXbXbXkXE.[.jXR.&.$.m > < x.uXqXtXr.M +XqX0XM.).yXy.tXtXrX#X",
"t.#Xa h z aXyX4XT.4XpXpXqXtXiXpXdXuXz.i 1 m C J R.jXxXbXbXbXbXbXbXbXbXxXjXH.J C m , x Q.pXpXuX@Xk fX0X4XqXhXhX,XdXhXrX3X",
"} 3Xl o ;.aXaX4Xo.u.4XpX1X4XuXaX0XdX,XQ.i 1 r C %.F.[.xXbXbXbXbXbXbXxX[.F.%.C r 2 z OX2XuXpX$XqX+X$X@X2XaXdX4XZ.uXhXaX=X",
"@ 4 - q d.B.Z.a.o.N.B.XXi.+.Q.Q.i.Q.(.y.* + 1 v m $.P.7XxXxXbXbXbXzX5XF.J C c : * 0 z.Z.+Xm.M.B.'  .z.k.y.N.^ 0 C..X@.@.",
"Y C 5 # z , m.,.<.x.j.*.).u.$X$XQ.0X2Xk.< o + : y Z %.F.[.xXxXxXxX[.0.%.Z r * + * k @X9XqXfXqXqXx.1.{ T.f.{ _.7 <.] 1.<.",
"z Y n 2.V &XV 1._.9.9.K.H.qXgXtXiXpX,XQ.i > * > v _ H $.`.jXxXzXxXL.J F _ p : * 7 D N.2XuXMXqXuX@XwXI.J.8.Y.K.@X@XY.H.f.",
":.t V *.@X8XwXj.j.0.J.0.0.qXqXyX2X0Xx.j 1 k M D [ 5.F G G.|.lXzXzX^.V K 5.) M v k < D Q.uXdXqXuXB.7.I._.9.j.J.j.+X&Xf.2.",
"t t f.I.i.%X6X_.J.0.8.J.0.%XuXuXqXfXd.> < M D F 3.5.D G G.|.zXcXzXK.M F 5.+.W F V < < N.4Xu.qXuX@XfXY.J.0.K.I.f.%X<XJ.f.",
"5 / H F & f.I.c.g.K.J.9.8.g.<X0X=X2X4.; < D D D 4.5.D G !.|.vXmXfX^.S K 5.3.F V M < < z.aX<.<X;Xi.B.%XU.J.,.5 ] M.T.f.f.",
"{ V M.x.^ <.1.8.W ;X;X*X<.M.<XO.D [ D q i D k i [ W.g.j.`.lXcXcXcX^.D D W.3.F D M < & i.4XT.<.e ;.T.%X2X;X` g.:.f.2.*.O.",
"J.:.,.f.` *.l.H.qX@X4X9XT.k.tXpXU.i 7 M V V t < [ ).-X0XwXaXsXfXmX-XJ >.W.5.Q D M < 7 m.2XqXiX(., yXqX9X4X<Xn 7.] 8.J.9.",
"] f.;.n / :.1.K.@X;X*X9X;X4X2XyX5.< > M V F ) 6.Q.-X/./.{.eXcXcXcX8Xl.l.W.4.D D M > < N.0XqX2X0XT.%X<XqX<X2X_.f.*.f.;.5 ",
"> y 8 # O.,.2.:.f.@XI.j.8.7.(.+X{ < < b ) ) l.:XqX-X5.*.~.|.vXmXfXwX8X@XW.4.) H M > > u.;X@X*X).#.+.U.).T.2.1.{ Y _ 5 Y ",
"Y f.J.U.O.:X8X:X] %XyXyX9XI.).qX4.< u S.P.U.M.j.g.7.) G D.{.lXcXcXqXc./.).^.!.-.M > % 6.sXyXaXdXT.B O.aXsXsXsXf.Y.Y.1.9.",
"] ) ] 2.;.*.,.I.8X:X:X<X&X8 D uXB.z G !.{.6Xl.D V M v m S.~.{.eXcX_.[ h.6X{.!.L M < i C.0X0X0XtX@Xo.0 T.<X*X8XU._ J.j.V ",
"f 9.8.*.{ *.Y.9.J._.).&Xc.M.4X4X/.B.4.G S.{.-.2 w b p b S.G.0.0.l.8.) 0.{.S.G e e z OX;XqX0X0XqXB.%X@X1.*X:XU.<.] f.,.y ",
", n :.*.` 1.*.,.j j.I.f.f.k.8X,XQ.2Xg.p G D.L e u p k H D.!.-.+.) ) =.S.!.K + * i Q :X4X0X2X4X4XM.y.4XT.6.j.1.<.:.] - :.",
"W 8 5 k ` > O.#.M t M.<.c.O.y d.S u B.B.u G L D.>.~ X.4.!.}.|.].s.9.!.H.4.x + D x.V Y.%X-X&X%XI.7.1.` m.k.> & & { > z ..",
"2.9.5 o t f.I.J.M.:.O.+XJ.9XtX,XV aXtXiXo.D L D.l.6.5.l.~.|.lXjXJ.^.`.W.X.a * 6.0X/.nXtXqXuXqXhX*X;X9X;X).;.> <.:.] :.n ",
"V > 1.O.n ;.2._ W Y V f.J.8X9X4Xk.M.9X9Xy.*X[ c -.~.~.!.~.~.'.'.'.^.l.r.R a * 3.4XB.hX0X0XyX<XqXU.2X<X%Xj.V B Y W U.2.5 ",
"# - Y ) p _ - o / ] j.9.;.M.<X4XOX+X@X:XQ ;X[ ; L !.{.{.'.'.{.{.!.W.r.q.R g * +.<X6.@X2X1X,X<X@X;.J.@X1.w ;.y p ;.,.Y + ",
"p { #.<.{ <.;.5 O 8 s.<.u.<.%X:Xj.U.&X:X` { x & j a.8XmX|.|.mXwXa.3.r.q.R a + ' ' t 7.<.@X~ V M.#.*.f.k.o.<.0 > ' ;.n f ",
"` ;.;.1.B *.J.:.k { _ V 9.<X<XtX:XqX2XY.[ 2X[ & g q.XX0XeXlX@Xy.T T X.X.| a * z t 9.fX2X;Xy.<X*Xf.I.;.j.,.] W 1.:.9.] :.",
"q ` :.*.` _ ] 2.W / y ] V +X4X9X%X%X%XJ.4.0X^ & g R X.a.tX8XQ ; # 6 R R R 9 & [ O.{ wX<XU.d.&X_.*.K.0._ Y *.J.] _ :.] :.",
"f f _ Y , B ,.1.k 8.1.* 1 d.2X;X).-X_.8.M _.Q & 7 x P T 6.u.[ z & ; l S z 7 & p j.] &X).).6X).0.) 0 t % ;.8.,.<.*.2.) *.",
"d h ` ` j n k 8 W ] ` 1.t > V f._ ] { 7.0 z < & < 2 u u * < ` W * & w q r > + j O.p { F 7.7.>.+.> = ; Y ' B & d :.W Y ! ",
"I } Y X.Y ] 1.9.f.{ ;.;.;.1.>.` ` ..` Y t y t t p b u 1 + < ` _ + & 2 y b p u u 8 0 1.2.2.1.O.( w ` ,.9.f.] ..` { ..w.} ",
"s  .P 5 f f Y 1.:.:.` V n z Y ..Y ;.n U - & e G G D p 1 + * / Z * * 1 p D G D < % - B Y ` ;./ # > ,.] 1.:./ Y 5 I ....} ",
"P 3 5 . @ v Y Y f z V ` f f Y ..P f f j % < 8 i t t 8 > * ; t 8 * > ; e i k u < ; % 5 Y k = O / V B n Y P 5 # @ f Y z P ",
"= } q.Y Y p.w...! @. . .E x } @.Y U Y d ; 7 q 9 j f 0 8 > t l l q q & 6 j 7 q j 5 9 Y o Y d  ...j l ! X.X.f / 9 f } ! w.",
"% 4 P I P P s P X.I I I ! P P 9 h U I g 9 q 9 7 l s q 9 0 s 3 3 9 d 3 a 3 9 x g 9 9 t.q.a s I P s ! } I I } P h I s P } ",
"4 h 4 s s s I 4 } I I a d @ d P 9 T 6 6 = 9 g 6 P a 3 9 % 4 l 9 4 d 9 g l 3 T a 9 4 s P I = s s 6 s 6 I P 6 P P I I 4 s ",
"} ! @ @ @ 4 q.$ 4 s P 6 @ 4 4 4 $ 6 = = . = h 6 4 3 @ X @ 3 P 3 = = . 6 = $ 9 = 4 @ } 4 d 9 - @ X = 4 I 6 4 = @ 9 4 @ a ",
"  @   9   . @   . 9 }  .d     X . 6 9 . = I | d .   I %   g $ .       . 6 =   .     X . s I * X   P . @     .     @ P 3 ",
"      6 X     = a   o 4 U         . | U - d % X @ o     . $   . .   X l %     = -     . . 3 = @       o .   -   . T 3 % ",
"                    o .       3 3 o   3 . .   $                       6             . U =                   9 .     6 X ",
"                              - -         .           .                                                 .               ",
"                                                                                                                        "
};
