/* XPM */
static char *char_down[] = {
/* columns rows colors chars-per-pixel */
"50 50 221 2 ",
"   c #010101",
".  c #060709",
"X  c #07080B",
"o  c #0A0B0D",
"O  c #0C0D13",
"+  c #110E11",
"@  c #0E1116",
"#  c #131215",
"$  c #1A1414",
"%  c #14151B",
"&  c #19181A",
"*  c #1C1A1C",
"=  c #231B1A",
"-  c #251C18",
";  c #31231F",
":  c #1A1B24",
">  c #1B1D25",
",  c #221E22",
"<  c #1F212A",
"1  c #252223",
"2  c #2B2424",
"3  c #22232B",
"4  c #2A292B",
"5  c #2D2A2C",
"6  c #352925",
"7  c #332B2B",
"8  c #3A2E2B",
"9  c #35312E",
"0  c #3C312D",
"q  c #252933",
"w  c #272A34",
"e  c #2A2C35",
"r  c #2B2E39",
"t  c #322D33",
"y  c #392F30",
"u  c #2F3239",
"i  c #343233",
"p  c #3B3333",
"a  c #3E3935",
"s  c #33333B",
"d  c #3A353B",
"f  c #36393F",
"g  c #3C3A3C",
"h  c #402F2C",
"j  c #45372E",
"k  c #413635",
"l  c #483834",
"z  c #433C3C",
"x  c #4A3D3C",
"c  c #543D38",
"v  c #3F403E",
"b  c #47433E",
"n  c #4C423E",
"m  c #58453B",
"M  c #343641",
"N  c #363943",
"B  c #3A3B44",
"V  c #3C3E49",
"C  c #433D42",
"Z  c #483E42",
"A  c #3F4143",
"S  c #3E414A",
"D  c #3D4352",
"F  c #444344",
"G  c #4C4443",
"H  c #4C4945",
"J  c #42444C",
"K  c #4C444A",
"L  c #42494F",
"P  c #4D4A4C",
"I  c #534544",
"U  c #584743",
"Y  c #544C4B",
"T  c #5A4D4B",
"R  c #55514B",
"E  c #5D514D",
"W  c #434652",
"Q  c #484652",
"!  c #464953",
"~  c #4C4C53",
"^  c #4B4E59",
"/  c #554D52",
"(  c #4E5154",
")  c #4E525C",
"_  c #555453",
"`  c #5C5453",
"'  c #575857",
"]  c #5C5B55",
"[  c #53555C",
"{  c #5C5C5A",
"}  c #634A45",
"|  c #654B46",
" . c #63524E",
".. c #6A544B",
"X. c #635452",
"o. c #675655",
"O. c #695350",
"+. c #645A55",
"@. c #6B5A55",
"#. c #645C5B",
"$. c #6B5D59",
"%. c #725D56",
"&. c #715E5A",
"*. c #5F605E",
"=. c #7E6245",
"-. c #636655",
";. c #64615D",
":. c #6C625D",
">. c #74635C",
",. c #78665F",
"<. c #4B5861",
"1. c #5B5D62",
"2. c #5A5D67",
"3. c #5E6263",
"4. c #5C636D",
"5. c #646463",
"6. c #6B6462",
"7. c #6C6966",
"8. c #636569",
"9. c #66696B",
"0. c #6C6C6C",
"q. c #736662",
"w. c #7B6661",
"e. c #746A65",
"r. c #7B6C64",
"t. c #736D6B",
"y. c #796D6A",
"u. c #6C706D",
"i. c #76726E",
"p. c #7B726D",
"a. c #646E74",
"s. c #6A6E71",
"d. c #6E7176",
"f. c #6D737B",
"g. c #747473",
"h. c #7A7572",
"j. c #7C7A76",
"k. c #74777A",
"l. c #75797E",
"z. c #7C7C7B",
"x. c #805F57",
"c. c #8A6D59",
"v. c #95795B",
"b. c #846C64",
"n. c #837468",
"m. c #83736C",
"M. c #9C796E",
"N. c #827572",
"B. c #827A76",
"V. c #8A7C74",
"C. c #837E7A",
"Z. c #8B7E7A",
"A. c #AA756D",
"S. c #A37E72",
"D. c #7F817E",
"F. c #9D8567",
"G. c #84817D",
"H. c #8B837D",
"J. c #93847B",
"K. c #B08D6B",
"L. c #767C83",
"P. c #7A7E83",
"I. c #867F80",
"U. c #7E8285",
"Y. c #7E8489",
"T. c #848482",
"R. c #8A8582",
"E. c #858887",
"W. c #8C8985",
"Q. c #85898C",
"!. c #8B8C8A",
"~. c #928B85",
"^. c #968A86",
"/. c #928D8A",
"(. c #8D9081",
"). c #8F918D",
"_. c #9B9287",
"`. c #94928D",
"'. c #99938D",
"]. c #8A8D91",
"[. c #8D9092",
"{. c #949592",
"}. c #9A9592",
"|. c #969894",
" X c #9B9A95",
".X c #96999A",
"XX c #9C9D9A",
"oX c #B88E81",
"OX c #A7978A",
"+X c #A49790",
"@X c #A39B95",
"#X c #A19D9A",
"$X c #9EA19D",
"%X c #A2A39E",
"&X c #A8A49C",
"*X c #BAAB9A",
"=X c #A4A5A2",
"-X c #A8A6A4",
";X c #A5AAA5",
":X c #AAABA6",
">X c #A7ADA9",
",X c #ABAEAA",
"<X c #B2AEA8",
"1X c #ACB1AC",
"2X c #B1B2AD",
"3X c #BCB3A9",
"4X c #AFB5B1",
"5X c #B3B6B1",
"6X c #B5B9B4",
"7X c #B8BAB5",
"8X c #B9BBB6",
"9X c #BBBEB9",
"0X c #C69B8D",
"qX c #CBAE95",
"wX c #D9AA9B",
"eX c #CFB8A0",
"rX c #E2B3A3",
"tX c #BDC1BC",
"yX c #C1C2BE",
"uX c #C3C6C1",
"iX c #C6CAC5",
/* pixels */
"f % ( 1.f.L.3.L.l.d.( d.l.d.U.Q.L.( f.d.k.Y.U.4 ^ f.P.f.[ Y.U.f.f.Q.) J & !.8.f.~ U.P.U.E.0.@ L ! @ ",
"V & O A 9.4.F 8.a.{ A 3.0.d.0.5.( ( g.5 F 1.[ i O { 9.1.A l.k.a.d.0.i # & * 8.~ i P.( P [ B i S o i ",
"L L.s.~ l.Y.`.6X6X1X8.XX1X1X1XR.h.9.1X).tXk.U._ d.,XXX=X!.;X5X5X:X1Xg.;.y 7.,X>X9.Y.F U.U.s.1.T.d.Q.",
"! T.Y.{ 9.l.$X=X;X,X0.k.[.=X;X XW.3.=X$X;X,X%X0.$X;X).=XE.9X1X=X$X=XG.9.:Xt.%X.X{ i >X.XR.s.3.k.z.R.",
"e [ g._ Q.Y.0.|.$X).{ ).).0.XX%XG.3.$X).T.D.|.#.XX%X$X$X*.|.$X{.=X;X0.T. X{.T.%X' `.XX%XE.0.s.E.U..X",
"1.9.Q.{ g.W.p m G.T.G.W.XX|.%X>X&X7.XXXX` D.%Xt.|.,X,X1Xi.6.{.{.}.;XC.~.,X;X).' n XX;X>X,X{.h.;X$X.X",
"V 2.L.g.:X;.4 W.5X>XW.%X>X=XtX1X1XD.;XR.F =X1XG.>X1X1X>X`.6X1X5X;X1X).uX,X,X:XXXT 6X1X>X-XW.G.;X.XE.",
": ^ J # 9.8Xg.5X5X1X7.|.tX=X1X1X&X0.&Xv 7.5X4Xi.1X1X1X1Xz.tX1X$X,X1X!.5X1X1X1X1Xy.1X5X1X#Xj.z.1X!..X",
"^ 2.{ K p z.5.Z 1 ] e.` z.' z.W.'./ 9.0.G.P ` p '.=X=X$X7.g.@XT./.#Xe./.=X=X$X%X;.J.j.&X#Xi.{ z.8.P.",
", f <.T.,X1X[.y.X.1X{.$X;X=X2X2X2Xg.6X;XuX$X2 _ >X,X>X;X{.6X1X9X1X6X`.iX>X,X>X,XG.6X`.$X;X!.{.$X=X].",
"^ ~ 1.j.,X,X` B.1X:XT.=X$XR.9X1X=X0.>X$X%X#. X7.1X:X;X;XR.9X1X1X1X,XT.).1X;X;X,Xj.5X1Xi.,XW.E.$XQ.l.",
"3 B , 5 { P 2 q.j.g.Y Y o.F F { :.z p.h.:.p.j.2 5.k.U.h.b t.' C z.g.H 0 5.d.z.k.G h.i.9.P i 5 d s F ",
"].Y., t.8X6.x yX5XtX{.=X6X|.^.t.'.C.1X;XyX6X6XR W.,X2X;XH.m.U 0.5X6X X%X6X1X;X4X`.tX5X5X5XXXz.R.` $.",
"( r P.g.z.t..X6XXX XG.$X5X$X8XXX& z.5X=X5XW.D.b - 0.t.k { 2 q.,X1X,XE.yX:X;X$X=Xj.1X6X:X,Xh.{.:X+X2 ",
"# k.<.+ h.,XXX,X6X,Xj.`.,X=X-XY Y _ 1X=Xj.6 ; 6 m ; ; j $ #.2X%X2X1Xg.v %X=X:X,Xi.;X;X&X}.z.;.:X'.7 ",
"5 ` y = t.^.R.'.R z.] 7.}.:.7 /.h.= ] C.j.8 c U | m m } c 6 p.j.^. X6.Y t.T.R.b 4 7.H./.`.Z.Y 5 j.k.",
"8 X.,.t.$X|.R.+Xj.6X!.%X1XG.$X1X,XY |. X5.l | } } } } | | j l #X1X1XW.XX6X;XXX|.a 8X6X:X=X|.7 !.-X].",
"2 o.&.+.`.XXR.6.=X;XG.XX5X%X5X,X%Xh.:X|.k c | | c c ..| } c 8 / 1X2XD.9X,X;X=X;Xi.,X:X,X).H z.1X.XXX",
", 2 B.:.i /.G h.#./.i.j.%X%X$XC.b 6.'.G.k h ..K.S...oXx.| | 7 /.%X:Xi.H.=X>XXXz.G /.%X!.6.j.7.%XXXXX",
"4.2.! g |.;X/.;X>X1XR.;X>X=X5X=X6.E.>X;XY l &.A.S.0X0X..x.m l 5.%X%X!.uX;X:X;XR.l 5X$X X6XXX`.6X$X].",
"Q L.% p ;X1XW.z.|.;XD.$X;X$X5X;X%X' 1Xk.0 } A.v.M.rX0X| A.| 8 ^.;X;XT.1X;X;X X|.j.=X/.,X;XR.T.>X>X.X",
"# O 7 C _ 0.P g.i.5.H ` g.] u.G.g 1 7.0.7 8 | 0XwXrXrX0Xb.l = H I.T.a #.R.C.z.G.g Y 5.' *.a i #.( W ",
"U ..7 1  .e.b.J.m.m.m.;X9X%XyX5X!.7 H.}.iX9 6 ..0XwXwXc.h $ R.,X5X6X'.,X5XiX2X5XG.OXm.Z.p.V.7.Z.w.m.",
"Y , o.Z.+XH.,.V.,.m...=X;X%X1X%X%X] H./.i.0 a R v.qXOXm n 8 H =X%X%XW.5X:X5X%X;Xh.H.J.r.b.&.h.~.m.>.",
"2 G ^.h.^.'.J.J.,.n... X;X%X8X;X$Xi.&XG.b v b -.v.wXOXb -.l 2 %X:X2X`.2X;Xj.%X;XD.3Xr.b.n.&.j.`.C.r.",
", p l $ R r.@.m.r.%.I p.~.H.~.!.j.] D.] 9 b b J.OX*X*X-.-.n 2 p.R.C.o.G.'.j.t.j.R V.C.w.X.= T r.q.$.",
"&.w.Z.:.q.r.@.XX%X%Xh. X X:.,X;X&Xe. X-.m -.H.>.c.eX*XG.G.m 2 {.#Xh.1 Z.;X;XR.T R -X%X-Xh.T o.p.&.e.",
"m.o.$.]  .b.J.%X/.%Xt.W.;X#X%X%X$Xj.;XD.=.F.6 v =.c.r.%.c.6 -.$X,X2Xg.5X X%X%XXXU -X=X X X .:.@.&.I ",
"6 I 2 a m.r.>. X_.H.6.~.'.`.%X_.p.:.%X$XG.m =.R F.K.e.F.9 -.;X'. X|.7.W.,X%X%XXX#.W./. XJ.&. .X.U G ",
"a :.N.` H.^.y.m.}.`.h.B.H.N.(.'.'.-.H.W._.D.b F.K.K.F.3.4 -. XJ.'.C.h.Y /. X#X#X6.p H.#X@XR.#.e.o.&.",
"I T %.q. .,.V.-X/.@Xp.0 T.$XtX%X%XD.2X%XtXH.4 a.eXJ.D <.4 T.%X;X=X;XW.!.%XXX$X%Xj._ G /.{.Z.$.&.w.I ",
"7 %.,.#. .r.@.V.V.m.:./. X`.2X$XJ.j.$X$X2XU.1 g _ -.* a 1 z.$X&X%X%XT.<XXX%X$X%Xt.#XR.C._.6.X.X.X.k ",
"+ 2 l k n 8 2 k I I a z R F G ] >.G e.i.7.b j j $ H - 0 j 9 :.7.6.:.R r.p.r.y.y.b e.` t b 1 p 7 $ 7 ",
"w...% d ` ^.N.Z.p.H.m.`. X' /.1X,Xh.;X{.`.] ' b _ i.] _ H _ R.%X:X2XR.5X,X2X1X2XH._.&X XT - +.T T +.",
"x 5 :.8 ..>.T $.p w.>.$X$XB.z.%X{.G.%XXX|.G.G.;.j.D.D.j.6.R.|.|.|.$XH.tX$X%X=X%Xj.&X`.B.x 8 x 6.,.2 ",
"+ 8 I 2 x $ $ $.o.X.x B./.T.H.H.j.Y `.{.~.G.H.R W.(.J.G.` T.'.B.`.~.;.i.E.W.R.j.G B.e.- n 2 k T x $ ",
"x #.6.o.+.o.2 1 #.T R B./.C.'.~.N.#.G.R.}./.m.` H.).(.;.& p.Z.B.e.R I B.C.j.b i.#.q.e.@.` 2 / X.I k ",
"C I o.T I w.o.E 6 T U '.-X/. X`.n.;. X{.&X/.m.y. X:X`.'.7.p.H.H.N.Y $.<X/.R.H.H.X.m. .` m T T @.E &.",
", } o.x Z O.T w.>.$ $ R.}.~.OXJ.%.7.^.W.'.^.,.$. X$X@XH.E $.E N.m.$.$.'./.7.^.H.b E l p m. .T O. .U ",
"e M / x z z y X.+.$.1 z q.$.X.@.+.9 b y.@.o.e.a :.e.e.+.7 7 Y U $.6.G @.$.r.e.o.- # p Y U * G  .Z / ",
"N Q Q Y U $.w.>.T X.z / X.Z #.K Z z  .K w./ C p T %.&./ Z o./ #.K Z a o.@.&.X.x 2  .$.b.U Z Z X.^ ! ",
"M V > , , Z X.o.I Z 7 d Z / / C N 7 K X.I Z C , Z X.I Z t B o.K Z C 4 e O.Z I = 0 ` X.X.Z 3 : P K W ",
": q , + / Z t d C K $ t Z M t a 3 1 d N d M 7 + d d M i $ d B i d d > d , & O k - i t M # = O s t V ",
": V ^ ^ <.V <.2.<.~ B J Q N ^ 2.J r V V 4.1.C M ^ M C W M W V ) ) Q M f.K s <.^ s ) [ [ ^ t s Q N 4.",
"% , r u q B 3 ! N r 3 % C 3 Q q q q N q W r r % < N q q u D S u N q q M V q 3 q > q r N r q s W < r ",
"V r O X : D O 3 q > X % : O : % @ . q < > % O X > r : # o > % : : % O r : 3 4 O . % M > : O % > @ : ",
"  . % >     % O q V M       @ W X r M 3 . % s   > .         <     &     X u 3 : O 3   .     X @ 3 @ ",
"      .     @   . o O     @ . @ S . o O   .         . X X B X   . o     e X .         o   3 . @ & O ",
"                  .       !                 .                         . o             .           . ",
"                                                .                                                   "
};
