/* XPM */
static char *char_left[] = {
/* columns rows colors chars-per-pixel */
"60 60 232 2 ",
"   c #010101",
".  c #060609",
"X  c #07080A",
"o  c #0A0A0C",
"O  c #110E0D",
"+  c #13100F",
"@  c #0C0D12",
"#  c #0F1117",
"$  c #141313",
"%  c #1B1613",
"&  c #1D1916",
"*  c #13151B",
"=  c #18181C",
"-  c #1C1B1D",
";  c #231D1B",
":  c #261C18",
">  c #25231E",
",  c #2A231D",
"<  c #35281D",
"1  c #161924",
"2  c #1B1C23",
"3  c #241E22",
"4  c #281D20",
"5  c #1F2129",
"6  c #242224",
"7  c #2B2523",
"8  c #2C2925",
"9  c #23242B",
"0  c #282829",
"q  c #2C2B2B",
"w  c #332522",
"e  c #342A25",
"r  c #3A2A26",
"t  c #30272B",
"y  c #332C2B",
"u  c #3B2C2A",
"i  c #34312E",
"p  c #3B322D",
"a  c #262934",
"s  c #2B2C33",
"d  c #332D33",
"f  c #2C3236",
"g  c #2E343B",
"h  c #343334",
"j  c #3B3333",
"k  c #32343B",
"l  c #3C363A",
"z  c #3A3938",
"x  c #3B3A3D",
"c  c #432E29",
"v  c #43312D",
"b  c #47382C",
"n  c #423533",
"m  c #4B3631",
"M  c #443933",
"N  c #4C3B34",
"B  c #41363B",
"V  c #433C3B",
"C  c #4A3D3B",
"Z  c #523A36",
"A  c #553D39",
"S  c #573D38",
"D  c #3E4139",
"F  c #4C4336",
"G  c #44423D",
"H  c #4C413D",
"J  c #55433B",
"K  c #5A413C",
"L  c #363943",
"P  c #373A46",
"I  c #3B3C44",
"U  c #443C42",
"Y  c #3A424B",
"T  c #3C4448",
"R  c #3F4A52",
"E  c #444344",
"W  c #4D4443",
"Q  c #4B4945",
"!  c #45454A",
"~  c #484549",
"^  c #4C4B4B",
"/  c #524543",
"(  c #5D4641",
")  c #544A45",
"_  c #594946",
"`  c #544D4B",
"'  c #5B4D4B",
"]  c #5D514E",
"[  c #54584A",
"{  c #434B54",
"}  c #464A55",
"|  c #4A4B53",
" . c #544D53",
".. c #4E5052",
"X. c #45525B",
"o. c #4A555D",
"O. c #555453",
"+. c #5C5453",
"@. c #5C5956",
"#. c #55575B",
"$. c #5C5B5A",
"%. c #604742",
"&. c #634A44",
"*. c #674E4A",
"=. c #63524D",
"-. c #6B5349",
";. c #73504B",
":. c #625452",
">. c #695653",
",. c #635955",
"<. c #6B5B55",
"1. c #645C5A",
"2. c #6C5E5A",
"3. c #775B54",
"4. c #725E59",
"5. c #5A634E",
"6. c #64635A",
"7. c #6A615D",
"8. c #73625C",
"9. c #7A645C",
"0. c #494F61",
"q. c #4D5A62",
"w. c #545C65",
"e. c #665F61",
"r. c #556169",
"t. c #5F6268",
"y. c #5C6470",
"u. c #646363",
"i. c #6B6462",
"p. c #63656A",
"a. c #686969",
"s. c #6C6C6B",
"d. c #746662",
"f. c #7B6B64",
"g. c #786A66",
"h. c #726D6A",
"j. c #74716D",
"k. c #7C726D",
"l. c #656A73",
"z. c #6A6E73",
"x. c #716E71",
"c. c #6E7276",
"v. c #747472",
"b. c #7B7572",
"n. c #7C7A76",
"m. c #737778",
"M. c #757A7C",
"N. c #7C7C7B",
"B. c #886944",
"V. c #95734A",
"C. c #85655C",
"Z. c #956555",
"A. c #977259",
"S. c #8A6C63",
"D. c #84736C",
"F. c #89746B",
"G. c #977569",
"H. c #867873",
"J. c #837A75",
"K. c #8B7C74",
"L. c #837D7A",
"P. c #987C71",
"I. c #A57C72",
"U. c #7E817E",
"Y. c #B2895A",
"T. c #96826A",
"R. c #8F8276",
"E. c #84817D",
"W. c #8B827D",
"Q. c #94857D",
"!. c #A88677",
"~. c #B39377",
"^. c #C2955F",
"/. c #C79C6A",
"(. c #CB9F74",
"). c #CEA374",
"_. c #757A81",
"`. c #7A7E82",
"'. c #7D8283",
"]. c #7D8389",
"[. c #838583",
"{. c #8C8682",
"}. c #868A85",
"|. c #8B8A85",
" X c #83878B",
".X c #8B8D8B",
"XX c #938B86",
"oX c #988B85",
"OX c #938D89",
"+X c #8E908D",
"@X c #94928D",
"#X c #9A938D",
"$X c #8C8F93",
"%X c #949592",
"&X c #9A9692",
"*X c #969995",
"=X c #9B9A95",
"-X c #959B9A",
";X c #9C9D9A",
":X c #B58E81",
">X c #A9998B",
",X c #BB9386",
"<X c #A29993",
"1X c #A29E99",
"2X c #9EA19C",
"3X c #A2A39E",
"4X c #ABA29B",
"5X c #B2A190",
"6X c #9EA3A1",
"7X c #A4A5A2",
"8X c #A9A6A3",
"9X c #A6AAA5",
"0X c #A9ABA5",
"qX c #A6ADA9",
"wX c #AAADA9",
"eX c #B2ADA8",
"rX c #ADB1AC",
"tX c #B2B3AD",
"yX c #AEB4B0",
"uX c #B7BAB5",
"iX c #C4988A",
"pX c #CA9F91",
"aX c #D0AC8C",
"sX c #CAA795",
"dX c #D6A899",
"fX c #E2B69A",
"gX c #CCB5A5",
"hX c #E2B3A4",
"jX c #E3B8A1",
"kX c #BFC1BD",
"lX c #D7C2AB",
"zX c #D7C7B7",
/* pixels */
"I 0 0 w.$.l.].l.y.l.'.c.p.^ M.].z.c.].].^ '.c.c._.m.'.l.a r.z. XM.c.^ c.].l.].'. XE w.* p.[.p.`.#.[.z.].`.].].* h z.} @ ",
"t.* * - '.`.m.p...'.M.z.y.U.'.U.'._. XU.E qXy.D o.].U.$.D @ p.t.#.$.T U.`.m._.$X'.I O . @ s.s.w.! 6XM.m._.M.m.^ | L X d ",
"a p.| 5 ..z.M..Xm.2X.X[.a.v.U.9X2X+Xj.6.T 2X2X` +XN.h 7 8 h .X~ % 6 6 $.6X+XqX6X%Xl W : k b.-X'.p.s.z.z t.m.#.I `.a.~  X",
"w.`.m.p.T l._.[..X2XyXrX%X'.6XqX-X%X|.@X^ 2X2X}.N.s...V > ` a.y ; % , $.M.v.}.}.9Xb.n. .j qX%X;Xv.~ E $X`.'.}.#.p.c.M.z.",
"L `.$Xa.u.z.c.+X3X2XrXqX}.t.[.-X7XrX3XQ.^ '.2X@.q 8 8 e u w 7 r c c r w 6 6 E L.7Xv.N.=X9Xv.9XqXz.t 9XwX;X[.[.p.l..X.XOX",
"s I p.#.@.M.'.M.i.*X+X}.s.v.;X|.u.*X2XOXQ U.6.z : : w v m w : v S Z m w : : y ] a.D s.|.*Xu.=X%X1.b.-X;X;X[.L.a.`.].`.$X",
"p.O.m.N.^ v.3X; =.e @Xb.&X|.|.;X@X@X9XtX$.@.> r m S K K K Z b S %.&.K S b v r : & + i E.9X+X2Xj W OX1X9X7X0XeXi.7X9X;X%X",
"} z.l.m.u.9Xv.& h 9XrXrX3X9XwXqXwXkXqXyXv.U.G p u N &.&.&.K S K &.&.&.%.S S m < 6 : p @.U.;XqX@Xm uXwXqXwX7X7Xb.7X7XyX[.",
"2 w.l. .x N.N..X[.uXrXqX@XE.9XwX3XrXwXrXs.3X}.h & v &.&.&.( ( &.&.&.&.&.&.&.U S v b v > G }.qXrXL.7XqXqX7X3X#X@XrXrX+X].",
"# a a @ . u.E.@.h U.[.U.W O.%X}.$.U.E.&XV $.h ; w m &.&.&.&.&.&.&.&.&.&.&.&.%.S Z Z v % i v.&X+X,.b.%X%X#XE.j.8 v.m.E c.",
"w._.z.x.u.W %X-X7.p o U.1Xi.@X%Xj.*X3XtX2.` & e N K &.&.&.&.&.&.&.&.&.&.&.&.&.S S Z c & h }.0XwXW.XX{.@X0X0X4Xm..X-X$X}.",
"2 d a x.N.tXrX8Xi.] g.uXrX3X9XqX*X0XyXrXj.O.% r K K K K K &.&.&.&.&.&.&.&.&.&.%.K S b % h }.qXqX|.uX7XL.9X9X7X%X7X;XqX$X",
"| L ! w.[.wXwXN.' &XrXqX=XqX6X2X|.yXrXqXi.O.% u S Z Z m m K &.&.&.&.&.&.&.&.&.&.( S v ; h U.3XqXE.wXrXL.+XqX9XM.9X;XM.M.",
"k p.| ; $.OXh.7 / 3X2X*Xn.7.+.K.Q U.|.s.y j w m &.C.C.%.m K &.K S %.&.&.&.&.&.%.K Z v < e Q a.}.i.b.*X2Xu.U.6.q a.o.p.m.",
"c.l.L ; e.*X] : E.#X3X7X<Xn.1X;Xh.Q 6.$.; w c S ;.I.(.C.S K &.K S %.&.&.&.&.%.S S m m c r > G |.W.XX=X7X=X@X%Xu.s.7 4 +.",
"_.].h I [.wXx.U 8XwX3XuX7X7X9XuX=X1Xh.V 4 V w n ;.I.sX!.S.3.*.C.S.3.&.&.&.&.&.%.S m c w i [ j.-X.XrXrXrXrX2XwXu.3X0X] ' ",
"k 9 M.w.a.O.|.0X-X9X;X@X=X&XrX9X1XrXwXj 8 @.& v 3.P.iXiXiXS.3.I.!.C.;.*.%.%.%.%.%.Z u ; i b.}.2XE.=XqXwX8XtX{.OX9XtXP.; ",
"o p.p.9 O =X0X3X3X9XuXwX.XE.wXwX7X1XV :.& Q & _ G.3.;.!.pX,X!.3.;.S.G.3.&.S S %.%.S m r p E a.=Xn.*X7X4X;X&X%XO.3XwX{.3 ",
"3 ! x & & k.L.W.j.n.Q h.$.G E.U.1.n N.h.: $ : C.~.%., C.dXdXiX( w S.iXS.;.U S %.%.S S m p 7 h y u z b.L.L.W.{.:.7 ~ u.s.",
"u >.-.F.#.7X2XOXXX1.[.wXwX2X2XuX] .X7Xn.i e c C.iX*.r S.dXhXsX*.r G.iX:XI.Z.Z.&.%.Z m < p @.b.j.7 rXwXqX9X7XwX:.z 0XtX$X",
"t S.,.>.v.%X*X|.XX1.tXkX9X3XrXkX;XtX2X6.> e Z G.iX3.S I.hXhXdX3.S I.dXpXiXI.Z.;.%.U c % d L.7X7Xn.tXuXrXwX7X%Xz 1XwX%X$X",
"4 4 V _ n b.L.u., ] [.n.i.h.XX&XE.@X|.b.i j w C.pX:X!.pXhXjXdX,XI.iXpXdXiXZ.;.( %.S c % q s..X}.,.j.|.[..X+.y $.}.$XM. X",
"U = u.b.7.V .Xn.+.&Xj.=X=Xk.2X3X7X=X@Xh ) @.i 8.:XpXhXhXhXhXhXhXhXdXsXiXI.;.A A S m c t ~ [.3X6.M {.3X3Xb.[.7Xi.7X9X6X}.",
"y. Xa g z 0X9X;XN.2XqXqX3X3X9XrXqX7X2X.XQ %Xv.] / I.hXhXjXhXhXhXhXdXiXI.;.&.A S m w c e.|.2X7X.Xj yX;X=X3XuXuX%XwXuX6X-X",
"} -Xl o :.qXwX*X+.6.E.}.U.U.}.}.U.+XE.+XD U.E.[ j 3.!.sXfXhXhXdXdX,XP.-.J S Z m v > ^ .X0XwX.X;X{..X.X=XwXwX2XN.9XuXqX$X",
"@ 1 = t s.N.`.a...$.h i 8 > i 8 8 i i > $ q D 5.k.] F G.dXdXdXdX,X3.b Z S S m , 8 7 O.v.|.v.b.N.` | x.h.6.m.^ q N.`.O.#.",
"U Z 4 @ z ; b.,.$.@.D p < < < < < < < < < < p g.#X<.F A.pXsXdXsX:XH > b ) J b : 8 G {.;X3XrX3X3Xj.2.] L.h.] Q.8 ,.' 2.1.",
"B U n 8.C oXN 8.R.R.=X!.Y.B.B.V.Y.V.B.V.V.Y.T.~.4X!.Y.Y.(.aXsXsX~.=.y [ 6.J j & i 1.;XqX6XzX3X0X|.4XK.D.3.K.F.|.XXK.f.9.",
",.y C =.|.<X1XS.k.K.&X5X)./.^.^.^././.).).).~.~.R.T.Y./.aXaXgXeX>X-.F [ 6.) p & q [ tX9X9XrX3X7XN.2.H.Q.8.f.F.g.L.oXd.9.",
"t y d.H.s.XX<XQ.D.[ V k.uXaX/.^./.).fXjXjXsX4Xk.J J [ !.lXlXlXgX>X7.C J F H z & q 7.tX9X;Xi.3X9X|.tXK.D.9.F.H.g.#X&XH.8.",
"4 / J H $ d.H.k.8.=.p [ Q.T.V.V.T.~.fXfXfX5XW.:.j u H oXzXzXlX5XT.,.H H J [ F > 7 W #X<XwX1.#X@Xi.n.XXH.D.<., ` b.L.d.d.",
"*.C b.b.Q ,.7.8.Q |.U.5.D 8 : < < B.).).(.A.] / C v F &XzXzXgXR.' Q H H ) 5.[ > O > =.@X;XE.1.e :.E.XX*X@X) g.,.d.4.*.+.",
"D.>.<.d.) =.k.S.3X|.=Xj.z 8 x E F -.B.B.B.J p z F n C k.>X>XoX7.H V M M F 5.5.8 > 8 uX3X=X3XqXL.: 8X7X1X;X=Xn 7.' 4.k.9.",
"O.d.:.M / >.<.F.|.@X@X#XL.|.}.@XH.[ , > : & % i N F C _ ] ] ] / N n u u F 5.5.> 8 [ wX7X2X3X=X3XL.XX=X1X=X=XQ.f.=.g.:.3 ",
"3 u 7 O O.4.8.>.7.|.H.f.i.7.L.|.k.6.j e & D D p y n H H H H H H C v u r p 5.5.> > i s.|.@X|.@XE.@.#.J.W.K.3.3.' C _ 4 U ",
"C d.D.H.+.#X<X#X=.XX9X8X3XJ.R.3XE.|.2X0X=.Q.k.G & e C H H H H H V n r u D 5.5.> 8 5.6.E.wX8XeXrXL.V +.eXeXrXwXi.H.H.4.f.",
"' _ ' 4.+.:.2.F.<X#X&X&XoX7 V 0X3XtX3X4Xb.tX2XQ + 7 M E ! ~ ! ! U n u t M [ [ > q @.n.3X1X2X2X7X|.O.8 L.&X@X<XL.*.D.f.V ",
"u d.8.:.' =.K.8.k.oXK.oXD.k.=X;XXX0X3X=Xj.tX2XQ + , p T X.{ { X.{ l u u b 5.[ 8 i O.uX3X3X2X2X3Xn.OX|.1.OX#XH.1.' 4.3.d ",
"4 B =.*.' 4.=.<.j k.H.d.d.j.<X*XL.=X&X1X[ 1X|.Q + 8 T ..q.o.q.o.o.^ E V x D D Q 6.@.#X;X;X;X;X;Xb.u.;XL.6.g.2.,.<.' - <.",
"U t 3 v W ; @.@.B t k.1.k.+.u s.z y n.#XW k.j.G + f { o.r.r.r.r.r.r.q.o.T > > $.{.H R.XXoXXXXXH.i.2./ v.h.; = %  .; l ` ",
"4.9.7 X t d.H.k.k.>.+.{.b.1X7X%XC wX7X0Xh.uX-XQ $ g X.q.r.q.q.r.r.r.r.q.T - 8 U.3XE.yX6X6X9X2XuX.X%X3X@XW.=.; ,.>.+.>.j ",
"C 3 1.' n >.4._ W H S 9.F.<X;X1Xh.b.1X;Xs.tX+XQ $ g X.q.r.o.R q.r.r.r.q.T 2 8 j.3Xn.zX2X7X7X=X3XH.<X#XXXg.C C U U H.4.4 ",
"@ & / / j _ % o W ' f.8.>.b.&X1XW.|.|.@XW =X@XQ $ f X.q.q.T f R q.r.r.R Y - 7 s.&X7.|.&X&X%X#X.X:.b.W.2.w :.p p >.>.C + ",
"d +.1.,.O.1.>.3 O 7 a.u.i.1.XXOXg.J.oX#X/ :.s.V # z R q.q.q $ g R q.r.X.Y - > 6.O.t 7.1..XE C b.,.:.d.j.+.$.7 3 ' :.B d ",
"/ :.:.4.B :.D.<.j +./ C d.#X=X7X#X3X&XR.] 4X@XQ + f { X.{ 9 $ g X.q.q.R Y 2 > ) y d.eX=X@Xu.#X@X8.K.:.f.<.' U 2.>.8.' >.",
"t ` >.=._ _ ' 3./ / u ] C {.;X1XXX@XXXD.7.3XE.D $ f R R Y 6 $ f R R R R P - > 7.:.=.4X&XJ.h.XXR.=.H.d._ W =.F.' &.>.' >.",
"t d _ _ ; V <.4.j 4.4.% : s.=X@XR.oXQ.8.z XXE.F + > D z j & O 8 z z T D y & > V D._ XXW.W.>X|.9._ 7 t % +.4.3.1.=.4.) =.",
"d P ~ U j z j 7 W ' ` 2.y ; C d.) ] ] 8.8 V z i % , e e , % O , r y e e , % & V i.j ] W 7.6.,.,.; = - U ` V $ d ,.W U ~ ",
"P U U #.U =.>.9.8.=.:.:.>.1.,._ | ' U ~ n C t e p b N p , % O < F F F F r % & x U h 4.4.4.3.-.( t / 7.d.4.=.+.U +. .w.0.",
"a 0.P 3 d d U 4.,.=./ V j l l  .U ] B I 4 3 % u F F F p , % % p F F F F b > ; i l 3 I U U =.U + 4 <._ 3.4.U U ; U  . .U ",
"P 2 3 . @ v U U d l j V t 0 d U d d d d = y ; q q y e 6 : ; & 7 e e 7 i p 6 & q z = 2 B t % @ / N V B U L 3 = o s U z P ",
"1 } 0.U U p.w. .! | U L d q l U k d U s - 9 0 0 h d 0 6 : q s s q q $ 5 i 9 h x 7 q x o h 9 U | k k ! o.| s _ t k } U w.",
"* 2 P P P P s L } I P d d q 0 2 a s g s 6 s 9 6 k s s 9 0 0 2 1 9 s 6 a 2 9 P k a 2 } U 2 9 P L a } } P L } L L P a P } ",
"1 s 1 a s a P 1 | Y L 9 9 o 9 s = h 1 2 = 5 s 2 k a 1 6 * 1 s 9 1 a 5 a f = I 9 2 1 9 9 k * s a 3 a 9 P P 9 L L P R 1 a ",
"| } # @ @ 1 0.* 1 a g 5 @ 1 1 1 # 5 1 * . * L 5 2 2 @ X @ 9 I 5 1 # . 5 * * 9 1 1 @ } 2 s 9 * @ X * 1 P 3 1 * . 5 1 @ a ",
"  @   9   . . . . a } | s .   X . 5 9 . * P } s .   P $   f @ .         9 *   . .   . . s P * . . P . X X   . .   @ x 2 ",
"      5 .     * a . . 2 I         . ! Y = s * . o o     . #   . o   . k $     = =     . . 2 * $       X .   =   . Y 2 * ",
"                    X .       2 2 o   2 . .   #                       6             . I *                   9 .     6 . ",
"                      .       = =         .           .                                                 X               ",
"                                                                                                                        "
};
