/* XPM */
static char *char_up[] = {
/* columns rows colors chars-per-pixel */
"60 60 229 2 ",
"   c #010101",
".  c #060609",
"X  c #090708",
"o  c #07080B",
"O  c #0A0A0C",
"+  c #120E0D",
"@  c #14110E",
"#  c #19130F",
"$  c #0C0D12",
"%  c #120F10",
"&  c #0F1117",
"*  c #141214",
"=  c #1B1513",
"-  c #1B1916",
";  c #14151B",
":  c #1B1B1B",
">  c #19191C",
",  c #221A16",
"<  c #241D1B",
"1  c #291E1B",
"2  c #25211E",
"3  c #2B211E",
"4  c #171923",
"5  c #1B1C23",
"6  c #241E22",
"7  c #281D20",
"8  c #1F2025",
"9  c #1E212B",
"0  c #232224",
"q  c #2B2423",
"w  c #2D2925",
"e  c #23252C",
"r  c #292629",
"t  c #26292D",
"y  c #2B2A2C",
"u  c #332522",
"i  c #382723",
"p  c #342A26",
"a  c #3C2B26",
"s  c #332C2B",
"d  c #3B2D2A",
"f  c #34312E",
"g  c #3C312D",
"h  c #3F382D",
"j  c #262C32",
"k  c #272A36",
"l  c #2B2C33",
"z  c #332D32",
"x  c #2E3239",
"c  c #343234",
"v  c #3B3432",
"b  c #33353C",
"n  c #3C353B",
"m  c #37393A",
"M  c #3C3B3C",
"N  c #402E2A",
"B  c #42332E",
"V  c #4A332F",
"C  c #433533",
"Z  c #4B3632",
"A  c #443A35",
"S  c #4D3935",
"D  c #40373B",
"F  c #433C3B",
"G  c #4A3D3B",
"H  c #523B36",
"J  c #553E39",
"K  c #583F3A",
"L  c #44413D",
"P  c #484338",
"I  c #4A423B",
"U  c #54423C",
"Y  c #5A423D",
"T  c #353742",
"R  c #353A43",
"E  c #3A3C44",
"W  c #3B3E49",
"Q  c #453D42",
"!  c #384045",
"~  c #3D434C",
"^  c #3E4B53",
"/  c #454444",
"(  c #4D4443",
")  c #44444B",
"_  c #4A4648",
"`  c #4C4C4B",
"'  c #534543",
"]  c #5E4641",
"[  c #544B44",
"{  c #584947",
"}  c #544C4B",
"|  c #5B4D4B",
" . c #4F544C",
".. c #545444",
"X. c #55534C",
"o. c #5D514E",
"O. c #5B5E4B",
"+. c #464954",
"@. c #4B4C53",
"#. c #554C53",
"$. c #44525A",
"%. c #4C575B",
"&. c #4A555D",
"*. c #555353",
"=. c #5B5453",
"-. c #5C5956",
";. c #54555A",
":. c #57595C",
">. c #5D5C5A",
",. c #604742",
"<. c #634A45",
"1. c #624F4D",
"2. c #63524D",
"3. c #605D4D",
"4. c #635452",
"5. c #6A5652",
"6. c #645A55",
"7. c #6C5B55",
"8. c #675758",
"9. c #645C5A",
"0. c #6C5D5A",
"q. c #725C57",
"w. c #725E59",
"e. c #5D624E",
"r. c #5C6452",
"t. c #636B55",
"y. c #64625D",
"u. c #6A615D",
"i. c #606E5F",
"p. c #73625C",
"a. c #79655D",
"s. c #7C685F",
"d. c #677159",
"f. c #68745B",
"g. c #6C7B5E",
"h. c #494F61",
"j. c #4E5B62",
"k. c #565A63",
"l. c #665F61",
"z. c #5F6267",
"x. c #546068",
"c. c #5C6470",
"v. c #646463",
"b. c #6B6562",
"n. c #686866",
"m. c #6C6966",
"M. c #63656B",
"N. c #65686C",
"B. c #6C6C6B",
"V. c #746662",
"C. c #796561",
"Z. c #736965",
"A. c #7B6B64",
"S. c #736E6B",
"D. c #7B6E6A",
"F. c #6E7D61",
"G. c #6B756A",
"H. c #73716D",
"J. c #7C726E",
"K. c #656A73",
"L. c #6A6D72",
"P. c #716E71",
"I. c #6E7275",
"U. c #6D7379",
"Y. c #747372",
"T. c #7B7573",
"R. c #757875",
"E. c #7C7976",
"W. c #71767B",
"Q. c #757A7C",
"!. c #7C7C7B",
"~. c #857169",
"^. c #85736C",
"/. c #89756C",
"(. c #867872",
"). c #837A75",
"_. c #8B7C74",
"`. c #837D7A",
"'. c #768569",
"]. c #778575",
"[. c #7E817E",
"{. c #8F8276",
"}. c #84817D",
"|. c #8B827E",
" X c #94857D",
".X c #849378",
"XX c #757A81",
"oX c #7A7E82",
"OX c #7D8283",
"+X c #7D8389",
"@X c #838583",
"#X c #8C8682",
"$X c #8B8985",
"%X c #81868B",
"&X c #858A8A",
"*X c #8C8D8B",
"=X c #938B85",
"-X c #978A86",
";X c #938D89",
":X c #8E918D",
">X c #94928D",
",X c #9A938D",
"<X c #8B8D90",
"1X c #8E9394",
"2X c #949592",
"3X c #9A9692",
"4X c #969995",
"5X c #9B9A95",
"6X c #959B99",
"7X c #9B9D99",
"8X c #A0968F",
"9X c #A29994",
"0X c #A29E99",
"qX c #9EA19D",
"wX c #A2A39E",
"eX c #ABA39C",
"rX c #9DA2A1",
"tX c #A4A5A2",
"yX c #A9A7A4",
"uX c #A6AAA5",
"iX c #A9ABA5",
"pX c #A6ADA9",
"aX c #AAAEA9",
"sX c #B2ADA8",
"dX c #ADB1AC",
"fX c #B1B3AE",
"gX c #AEB4B0",
"hX c #B7BAB5",
"jX c #C6C8C2",
/* pixels */
"E t e k.>.K.+XK.N.c.oXW.N.@.Q.+XU.U.&XOX` OXU.U.XXU.OXL.t k.K.%XXXU.` Q.+XK.+XOX+X) k.; z.%XM.XX;.@XU.+XXX%X%X* x B.+.$ ",
"z.; ; 5 [.OXU.M. .OXQ.L.N.Q.OXQ.XXXX*XQ.~ dXN.M ;.W.H.k.` * L.XXK.B./ OXoXW.Q.<XOX! + X % n.B.z.) rXQ.I.Q.Q.I.@.@.E . z ",
"t N.@.8  .L.!.*X].qX:XOXN.I.!.uXqX:XH.v./ 6XqXX.@X` - c n./ 7X<X}. .w -.rX*XiXqX>XM ( < n R.6XOXv.L.L.m z.W.;.M XXB.` %X",
"k.oXU.N.E K.Q.%X&XqXgXdX2X@XuXiX5X2X$X;X` qXqX:X}./ 2  .` R.@Xv.E.M q v.%X[.*XR.:XH.R.#.v aX1X7XY._ / 1XoXoX<X-.M.I.Q.L.",
"E XX<XN.N.L.U.*XwXqXdXiX&Xz.OX5XuXdXwX$X` &XrXn.M g a p y s f U Y Z a g f f h d  .>.R.5XuXY.uXuXP.y yXaX7X@X&Xz.K.&X*X;X",
"l W N.-.-.Q.oX!.b.4X:X&XB.H.qX&Xv.4X5X;X/ $XH.P , i V i , = , d H H B 3 = # = # v v T.*X4Xv.7X2X>.T.6X7X7X@X`.m.oX%XoX<X",
"M. .R.!._ Y.tX< 2.s >XT.3X$X#X7X>X4XuXaX9.m.f p N Z Y V N N N J Y ,.U V a N N a p < L :XuX:XqXv ' ;X0XuXuXyXiXV.tXuX7X1X",
"+.L.K.U.n.uXY.- f uXdXdXwXiXpXpXaXhXiXqX-.X.3 a H Y ,.K H H J Y <.<.,.Y H H V N d w m.qXaXpXaX>XC hXaXpXpXtXwX!.yXtXgX@X",
"5 k.K.#.M Q.!.*X}.hXdXpX>X}.uXdXwXdXuXR.q B H Y ,.,.<.<.,.,.,.,.<.<.<.,.,.,.Z 3 v O.qXuXpXiXiXdX`.0XaXpXuX0X,X>XdXgX:X%X",
"& k k $ . y.}.-.m !.@X[.( *.2X$Xr.B.y.P 2 B Y <.<.<.<.<.<.<.<.<.<.<.,.,.Y Y Z i v m H.>X4X4X2X:X9.T.2X4X>X}.S.w I.R.) B.",
"k.XXK.P.n.( 2X7Xu.g + [.wXu.>X2XY.v.w u N H <.<.<.<.<.<.<.<.<.<.<.<.,.J Z H H H A < ( >XdXuXuXaX|.;X#X;XyXiXwXR.:X6X*X<X",
"5 z k U.!.gXdXyXb.o.S.hXdXwXuX4XB.} 3 u V U ,.<.<.<.<.<.<.<.<.<.,.Y Y H H K K Y Z = / :XdXpXpXpX$XfXyX`.uXuXuX2XrX7XuX<X",
"+.n ) z.!.dXaX!.{ 3XdXiXqXuXrXB.q 3 N Z V Y ,.<.<.<.<.<.<.<.<.<.,.J H Y ,.,.<.<.Z = m :XpXiXiXpX}.dXdX).:XaXiX!.uX7XXXQ.",
"b c.@.: >.*XB.7 ' wXqX4XE.u.=.0.0 f u N H Y ,.<.<.<.<.<.<.<.<.<.,.Y J ,.<.<.<.<.H u , ` R.:XqX4Xb.T.4XqXn.[.>.w B.;.z.R.",
"W.K.M 7 l.3Xo.1 }.,XwXtX3XE.0X7Xb.f = i Y ,.<.<.<.<.,.,.<.,.<.<.<.<.<.<.<.<.<.<.Y V p , ` &XwXwX|.=X5XuX4X2X2XM.n.q 7 4.",
"W.+Xc ! @XdXP.Q yXaXwXhXuXwXuXhX3Xy.- 1 Y ,.<.<.<.,.Y ,.<.,.Y <.<.<.<.<.<.<.,.U Z p g [ B.4XwXuX*XdXdXdXdXqXyXn.tXaXo.} ",
"b e XX:.n.*.$XaX6XpX7X2X5X5XdXuX5Xm.2 3 H Y <.<.<.J H Y Y J H Y <.<.<.<.<.<.Y H N # F #XqXtX2XuX}.5XuXaXyXfX#X2XyXgX_.< ",
"O M.M.t % 5XyXwXwXuXhXpX*X!.dX>Xv.I u d J Y <.<.<.Y J Y Y J K ,.<.<.1.<.<.<.,.H a # * }.uXuXaXaXE.2XyXwX5X2X3X*.wXiX=X6 ",
"0 ( D = - D.`.|.H.E.( S.>.F #X-.2 1 B H J Y ,.<.<.<.,.J H Y ,.,.<.<.<.<.<.<.<.K B = 2 M S.S.Y.v p F T.}.`.|.#X4.q / v.B.",
"d 4.1./.;.aXqX;X=X6.@XfXaX7X6XqXg F p N H K Y ,.<.<.<.Y K ,.<.<.<.<.<.<.<.<.<.Y V p p =.Y.7XqXE.q dXaXiXuXuXaX4.M yXgX*X",
"p D.8.5.I.2X5X$X=X9.fXhXuXtXiXhX5Xn.< 3 H J J Y <.<.<.<.,.<.<.<.<.<.<.<.<.<.Y Y H Z g 2  .*XuXuXE.dXhXdXuXtX2Xb 0XaX2X1X",
"1 6 Q ] C T.`.y.3 X.$X`.m.n.=X,X[.-.- 2 V J J K Y <.<.<.<.<.<.<.<.<.<.<.<.Y Y U V p g P v.#X*X@X-.T.$X}.;X*.p 9.&X:XQ.@X",
") : l.Y.v.F ;XT.=.5XY.3X3XJ.7XuXwXv.w 3 V H U J K Y <.<.<.<.<.<.<.<.<.,.,.Y J H B < L $XrXrXtXy.A $XwXwXY.#XyXb.tXuXrX%X",
"M.%Xk x v aXuX7X!.qXpXpXwXtXiXpXdX*Xn.L 3 N H J K Y <.<.<.<.<.<.<.Y Y Y Y J V u g L &XqXiXiXuX$Xv sXqX7XtXhXhX2XaXhXrX6X",
"+.1Xc O 4.aXaX4X*.n.wXpX5X5XiXpXqXaXqXi.# 3 Z U Y Y Y ] ] Y ] ] Y U J U U J B = m -.dXuXuXuX:XqX#X:X*X4XaXdX5X!.uXgXdX2X",
"* 4 > y B.!.[.N.*.T.R.[.n.-.[.[.n.}.[.L @ 2 B U 3.[ Z S P Z S A A B S ..3.P i # w v B.[.$XY.T.!.#.` H.B.v.R.` y Q.@X;.;.",
"Q H 7 % v 1 Y.8.y.H.D.o.|.m.>X*X!.:X}.L # < g ..d.U g B B g C B h h P r.e.S u = f A ).7XwXsXwXwXH.7.o.`.Z.|  Xw 4.| 0.9.",
"n Q v C.I -XA p.{.a.s./.A.eXdXwXiX@X` m d p g ..d...B P e.O.e.e.U P B r.t.P p p v f -.4XuXjXwXuX$XeX_.~.p._./.$X=X_.A.a.",
"8.s G 2.;X9X0X~.D.s.~.s.s.wXwXuX5Xy.- 3 A C g [ r...P O.g.F.F.F.d.[ P e.e.A d G f = M :XuXaXwXwX!.0.). Xa.s./.S.#X-XV.p.",
"s s V._.m.=X8X X^.s.p.~.a.=XuXuXwXG.- q A C a C P ..e.d.g.F.F.F.g.t.O.U P g B G g = L *XwXn.wXuX#XfX_.~.A././.V.;X,X(.p.",
"7 ' I I = V.(.^.Z.^.^.s.p.p.3XwX$Xy.- 3 G C g g B ..g.F.g.g.F.F.F.F.t.P i u p A g 2 f H.5X9.,X;Xb.E.=X(.~.7.q } T.`.C.V.",
"o.G J.T._ 9.0.u.( >X>X;X9.E.,X=.X.-.: 2 A G A B B ..g.F.F.'.F.F.F.F.t.P u , 2 h A g f w =.Y.9.p 4.}.=X5X2X[ S.4.V.w.1.=.",
"~.8.7.V.[ 2.~.~.wX|.7X7X|.S.qXaX9Xm.- 2 B P P C g ..g.'.'.'.'.'.'.'.t.P 3 , , a A A p @ M :XuX).6 yXrX0X7X5XC 0.| u.~.C.",
"o.C.4.C ( 5.u./.$X>X,X7X>X5X7XuX>Xm.- , p B G C g ..F.'..X.X.X.X.X'.t.P u 2 3 u a p 2 @ P :X7XwX).;X5X0X5X3X XZ.2.A.4.7 ",
"< s q + =.w.p.6.u.$X(.A.V.u.).$XJ.=.= = 3 d C P I e.F.'.'.'..X'.'.'.d.P P u u 3 3 3 , 3 ` ).>X}.-.-.`._.`.w.w.o.G { 7 ( ",
"Q V.^.).=.,X8X,X2.=XyXyX0XE.{.eX}.-.- = 3 u d I t.f.F.F.'.d.'.d.t.'.'.'.e.h 3 3 2 # 2 9.3XyXaXiX`.F =.sXsXsXsXp.)._.0.w.",
"1.{ | w.4.4.w./.0X>X,X3X-Xw F yXwX}.L w 2 2 2 P e.d.'.g.g.'.'.'.'.'.'.e...w - 2 3 3 ` >XwXqXqXtX$XX.y @X5X,X8X`.1.~.D.G ",
"d a.p.4.| 2._.p.D. X X-XJ.J.7X7X=XqX}...# + @ 0 A O.'.]..X'..X.X'.'.d...h - @ @ f ` qX5XqXqXqXwXE.;X#X9.;X,X_.9.| p.7.g ",
"7 D 1.1.} w.2.8.v D.(.V.C.H.9X2X).5X>XH.3 2 + < M ..d.G.].].].].'.'. ./ w - * y *.r.,X0X5X5X7XqXR.v.5X`.9.S.y.6.8.| : 8.",
"( r 7 g ' < -.-.F p J.u.S.=.g B.M f !.$XP P = t ~ $.$.%.k.j.j.j.$.%.^ ^ m - 2 r.`.I _.=X,X=X=X).0.0.{ Y.S.< = * *.< v | ",
"q.p.q X s V.(.^.J.6.o.#X^.0XrX2XG aXtXyXS.v.- j ^ ^ j.j.j.&.j.%.$.j.j.j.! : f }.tX|.hXuXtXtXwXhX>X>XwX>X|.2.1 8.8.| 8.C ",
"G 6 9.o.v 5.w.{ ( G G V.^.0X7X0XZ.).tX7Xn.y.> j ^ j.x.x.x.x.x.x.x.x.j.^ ! : f E.wXE.hXqXwXyX5XwX(.3X,X=XA.G A / I (.w.7 ",
"% - ' ' v { = O ( | A.C.4.T.3X0X`.#X$X,X( *.- t ^ j.j.j.j.^ ! $.j.j.x.j.! > s R.3Xy.#X5X3X2X3X$X4.T.#X0.p 4.d g 5.8.G % ",
"v o.9.6.*.9.4.7 + q m.v.b.9.=X,XS.(.,X;X' v = y ^ $.$.^ ^ t : ! $.$.^ +.! : 2 b.*.s u.9.*X/ G T.9.2.V.H.*.9.q 6 o.4.D z ",
"_ 4.4.0.D 1.^.q.d =.] G a.3X3XtX,XwX3X{.o.=.- j ^ $.^ ~ b M X.m R ! ^ $.! - w } f a.sX7X2Xv.3X;XV.(.2.A.0.| ( 0.5.p.{ 7.",
"s { 8.1.} { | q.' U z =.G #X7X0X=X=X=X^.9.r.> t ^ ^ ^ j 2 -.}.M ; ! ^ ^ ! ; w Z.=.2.eX,X).Z.;X{.2.).C.{ ( | ~.| | 5.{ 5.",
"z z { { < G 5.w.v p.7.= 1 B.5X,X{.,X Xp.M ..= 0 M E b 8 - y.#XC * w ! ! c - q I ~.{ ;X|. X,X#XA.{ q w = 4.w.7.9.2.w.[ 2.",
"z b _ Q c n v w ( | } 0.s < F V.[ | o.u.w q @ , p p u - * v } w @ 2 s f 3 = < / 9.g o.I u.u.9.2.1 ; > / } F = z 8.' F ) ",
"T Q Q h.{ | 8.w.p.2.4.6.4.8.8.{ #.{ Q D q d u u u u u , # C | s @ - u u u u w f l s w.p.w.w.1.' p ' 0.p.C.| #.' | #.k.+.",
"k h.T 6 z l { w.8.5.' Q C F D #.Q 4.D l = q P B u u u = # p | p @ 1 u p a S h - - < n Q ' 4.' % < 0.{ w.8.' Q 6 W #.#.+.",
"T 4 6 . $ C Q Q l n Q { z l Q #.E T z 7 @ q g f 3 q 1 = * q z > = < < q s f p < 6 ; 6 G z = $ ' S A D Q T 6 * o z Q n W ",
"4 +.k.Q E M.;.#.+.#.@.` / M @.:.Q Q ) l : 2 y r c z r 0 6 l M z y w = 6 l 0 f f < r T O n l @.#.b b ) ;.&.z ' l x +.Q k.",
"; 4 T W T W k T $.W W E Q b R e x W ! x 5 t 0 0 c l l e e l 0 4 e t 5 k 8 t m k e 5 h.@.e k W T k +.+.T T +.T T T k W ~ ",
"4 k 4 k l e W 4 +.W T k x $ x R 9 ~ 9 e ; 8 l 8 b e > e * 4 l e > l e l x : E e 9 5 t x W ; k j 5 e 9 W T e T T W ~ 4 k ",
"@.+.& $ $ 4 h.* 4 k T 9 $ 4 4 4 & 9 > ; . & x 9 5 4 $ o $ 5 b 5 ; & o 5 ; & e ; 4 o +.5 k e ; % O 4 5 W 9 4 ; O e 4 $ t ",
"  $   e   . $   . t +.+.l .   o . 9 e o & W @.j .   R *   x & .         0 $ . .         k ~ ; X   T . . .   .     $ R 5 ",
"      0 o     ; j   o 5 E         o +.E 4 k ; o O O     . &   X o   o b *     ; >     o . 5 ; *       O X   >   o ~ 5 ; ",
"                    o o       5 5 O   5 . X   %       .               9               E ;                   9 X     8 o ",
"                      .       > >         X           X                             X                   X               ",
"                                                                                                                        "
};
