/* XPM */
static char *char_right[] = {
/* columns rows colors chars-per-pixel */
"60 60 236 2 ",
"   c #010101",
".  c #060609",
"X  c #07080A",
"o  c #0A0A0C",
"O  c #110E0E",
"+  c #15110F",
"@  c #0C0D12",
"#  c #0F1117",
"$  c #151413",
"%  c #1A1614",
"&  c #1B1916",
"*  c #14151B",
"=  c #18181A",
"-  c #1C1B1B",
";  c #231A16",
":  c #231D1C",
">  c #291E1B",
",  c #28211E",
"<  c #35291C",
"1  c #1A1C23",
"2  c #181A25",
"3  c #241E22",
"4  c #281D20",
"5  c #1E2024",
"6  c #1E212B",
"7  c #242223",
"8  c #2B2423",
"9  c #23242B",
"0  c #2A2829",
"q  c #2C2A2C",
"w  c #322623",
"e  c #342A25",
"r  c #3A2A25",
"t  c #332C2C",
"y  c #3B2D2A",
"u  c #35312D",
"i  c #383328",
"p  c #3C322D",
"a  c #262A34",
"s  c #2B2C33",
"d  c #332D32",
"f  c #3B2F31",
"g  c #2D3238",
"h  c #353334",
"j  c #3B3332",
"k  c #3C3936",
"l  c #33343B",
"z  c #3C353A",
"x  c #36383B",
"c  c #3B3B3D",
"v  c #422D29",
"b  c #44322D",
"n  c #48342E",
"m  c #413535",
"M  c #4C3632",
"N  c #443A34",
"B  c #4B3B35",
"V  c #443C3B",
"C  c #4A3D3C",
"Z  c #523A36",
"A  c #553E39",
"S  c #583F3B",
"D  c #3E4336",
"F  c #47423C",
"G  c #4D433C",
"H  c #53423A",
"J  c #5A423D",
"K  c #644D3B",
"L  c #353942",
"P  c #383A46",
"I  c #3B3C44",
"U  c #433B41",
"Y  c #3D424A",
"T  c #3F4C54",
"R  c #444344",
"E  c #4D4443",
"W  c #4C4946",
"Q  c #43444B",
"!  c #4A464B",
"~  c #4C4B4A",
"^  c #534543",
"/  c #5D4641",
"(  c #554946",
")  c #5B4A44",
"_  c #52464A",
"`  c #554D4B",
"'  c #5C4D4B",
"]  c #54534B",
"[  c #5D514E",
"{  c #444B54",
"}  c #464A56",
"|  c #4A4C53",
" . c #554E54",
".. c #46525A",
"X. c #4C545C",
"o. c #545453",
"O. c #5C5453",
"+. c #585758",
"@. c #5D5C5A",
"#. c #614742",
"$. c #634A45",
"%. c #684D49",
"&. c #63524D",
"*. c #6E524C",
"=. c #72554D",
"-. c #635452",
";. c #695653",
":. c #645A55",
">. c #6B5B55",
",. c #645C5A",
"<. c #6C5D5A",
"1. c #745D58",
"2. c #5F6258",
"3. c #65625D",
"4. c #6A615D",
"5. c #666A58",
"6. c #746A52",
"7. c #74625C",
"8. c #79655D",
"9. c #7C685F",
"0. c #494F61",
"q. c #4D5A62",
"w. c #565A63",
"e. c #525C64",
"r. c #665F61",
"t. c #5A6269",
"y. c #5C6470",
"u. c #646463",
"i. c #6B6463",
"p. c #6B6966",
"a. c #63656B",
"s. c #65686B",
"d. c #6C6C6B",
"f. c #6F6F6F",
"g. c #746662",
"h. c #736965",
"j. c #7B6B64",
"k. c #726D6B",
"l. c #7A6C68",
"z. c #74726B",
"x. c #7C726D",
"c. c #656A73",
"v. c #6A6E73",
"b. c #6E7275",
"n. c #6D7379",
"m. c #747472",
"M. c #7B7573",
"N. c #767875",
"B. c #7B7976",
"V. c #71767B",
"C. c #757A7C",
"Z. c #7C7C7B",
"A. c #86663F",
"S. c #895A56",
"D. c #8A6C48",
"F. c #97754C",
"G. c #85675A",
"H. c #876C63",
"J. c #84736C",
"K. c #89766C",
"L. c #99756B",
"P. c #867873",
"I. c #837A75",
"U. c #8B7C74",
"Y. c #847D7A",
"T. c #917D72",
"R. c #A3776E",
"E. c #7A836F",
"W. c #7E817E",
"Q. c #A9845A",
"!. c #8F8276",
"~. c #84817D",
"^. c #8C827D",
"/. c #94857D",
"(. c #B28F65",
"). c #AD8678",
"_. c #B2877C",
"`. c #C0935D",
"'. c #C8986F",
"]. c #C8A37A",
"[. c #D2A474",
"{. c #757A81",
"}. c #7A7E82",
"|. c #7D8283",
" X c #7D8389",
".X c #838483",
"XX c #8C8682",
"oX c #8B8985",
"OX c #83888B",
"+X c #8B8D8B",
"@X c #938B85",
"#X c #988B84",
"$X c #938D89",
"%X c #8E908C",
"&X c #94928D",
"*X c #9B938D",
"=X c #8C8F93",
"-X c #949592",
";X c #9A9692",
":X c #969995",
">X c #9B9A95",
",X c #959A99",
"<X c #9B9D9A",
"1X c #B58F82",
"2X c #A6978A",
"3X c #BC9285",
"4X c #A29B94",
"5X c #A29E99",
"6X c #9EA19D",
"7X c #BCA588",
"8X c #A2A39E",
"9X c #ABA39C",
"0X c #B6A79A",
"qX c #9DA2A1",
"wX c #A4A5A2",
"eX c #A9A7A4",
"rX c #A6AAA5",
"tX c #A9ABA5",
"yX c #A6ADA9",
"uX c #AAADA9",
"iX c #B2ADA9",
"pX c #ACB1AC",
"aX c #B1B3AD",
"sX c #AEB4B0",
"dX c #B7BAB5",
"fX c #C4998B",
"gX c #CD9F91",
"hX c #D1A788",
"jX c #C7A494",
"kX c #D5A798",
"lX c #C4B3A5",
"zX c #D9B7A7",
"xX c #E3B4A4",
"cX c #E6BEAB",
"vX c #D7C5B5",
"bX c #C3C7C3",
/* pixels */
"I 9 9 t.+.c. Xy.s.s.|.n.s.~ C.OXv.n. X|.~ |.n.n.{.n.|.c.q t.c.OXC.V.Q V. Xc. X X XR +.* u.OXa.}.+. Xb. X|. X X$ h c.{ @ ",
"a.* * 5 W.|.V.s...|.C.c.s.C.|.C.{.|.OX|.Y yXs.c +. X|.s.~ @ c.{.b.C.o.OX|.V.C.=X|.Y + X O a.d.w.! qXC.n.C.C.n.| | L X d ",
"9 a.| 5 o.c.Z.+XN.6X%X|.s.m.|.rX6X%Xz.3.R 6X6X] %XC.q u ~ q u.m.+X|.c u.,X%XrXqX-Xk E : h Z.,X Xu.v.d.z t.V.+.c {.d.! OX",
"w.|.V.a.Y v.C..X+X6XsXpX-X|.rXrX<X-XoX$X~ 6XqX8XyX+Xk - $ - , h -XN., u.qXyXpX-XrXm.Z. .j yX-X<Xm.Q Q =XZ.|.+X+.a.m.{.v.",
"L }.=Xs.u.b.b.+X8X6XsXyXoXt.|.<XwXpX%X3.q ] p.3.m.u.N ; ; ; ; p ,.W > F p.+XdXrXrXb.C.>XeXm.rXrXv.d eXpX6X.X.Xu.c.OX=X$X",
"s I s.+.+.C.|.C.u.-X%XoXf.z.6XoXu.-Xu.0 + - & ; ; : r b n b b r : , v w , o.6X6X6X+.@X-X:Xu.<X-X@.M.:X:X<X.XZ.d.}.OX}.+X",
"u.o.V.Z.W m.8X: *.t &XN.-XoXXX<XW.@.F < , > > > , w M S S S H n < r B < & W 6X$XwXz.I.wXrX%X6Xj ^ $X5XrXrXeXiXh.wXwX<X-X",
"} n.c.V.u.rXm.& u rXpXpX8XeXyXyXW.k , b b n n n Z A J #.#.#.#.J M A J i = 3.dXyXuX~.bXyXuXyXuX&XB aXuXyXyXwXwXN.rXrXuX.X",
"1 w.c. .c Z.Z.+X~.dXpXuX+X~.rXpX+Xz.E w r Z S U J J #.$.$.$.$.#.J / #.Z p F @..XyX~.dXyXuXyXyXpX~.5XuXyX8X8X*X&XpXsX=X.X",
"@ a a @ . u.~.+.h W..XW.W O.-XoX@.m.` : w Z #.$.$.$.$.$.$.$.$.$.$.$.$.$.J e : 3.;XO.oX<X<X-X-X$X:.M.-X:X&X~.z.0 m.N.R b.",
"w.{.c.f.u.E -X<X4.p O W.8Xi.&X&X@.~ b v M S #.$.$.$.$.$.$.$.$.$.$.$.$.$./ w & p.pXB.tXeXyXtXyXuXXX$XXX$XeXtX9XV.=X,X+X+X",
"1 d a V.Z.sXpXeXi.[ z.dXpX6XrXyXz.7 > Z J #.$.$.$.$.$.$.#.#.#.#.$.$.$.$./ w = Z.pX~.bXpXuXyXyXyX+XaXeXY.rXrXwX-X8XqXyXOX",
"| z Q w..XpXuXZ.( 4XpXyX<XyX6X6Xu.8 ; M J $.$.$.$.$.$.$.J Z Z S #.$.$.$.J < % f.yXN.,XpXuXyXrXyXY.uXpXY.&XyXrXZ.rX,XZ.C.",
"l y.| - @.+Xk.7 G 8X6X-XB.4.[ h.h , < M S #.$.$.$.$.$.$.%.K Z Z #.$./ #./ e : o.B.W i f.,X,X6X-Xi.I.:X6Xp.W.3.q k.X.t.V.",
"n.c.I 4 r.-X[ > ~.*XwX8X4XZ.XXR : r v M Z S U $.$.$.$.=.L.L.J Z #.J Z J / Z p 8 h ` Y.-X<X<X8XwX.X@X>XwX-X-X-Xu.p.8 3 -.",
"{.}.h I .XaXk.U eXuX8XdXwX8X+X@.j r r n Z J %.$.$.%.=.L.'.fXG.=.$.%.=.*.#.B e h W 3.dXpXrXwX8XrXoXaXuXpXpX6XyXu.8XuX[ ' ",
"l 9 {.+.d.] oXuX,XrX<X-X>X>XyX-Xi.8 > b S #.#.$.$.=.R.fXgXkXfXL.=.G._.L.#.w & ,.:Xd.dXyXrXrX-XwX~.>XyXeXeXaXXX&XrXaXT.> ",
"o a.a.a O <XwX9X8XrXdXyXoXY.uXpXN.7 ; n S #.#.%.S.L.1XfXL.L.fXfXL.H.G.H.G.H 8 ~ m.+.8 -XrXwXuXuXB.>XwXwX>X;X&X+.5XuX@X: ",
"3 ! V % = l.Y.^.m.B.E k.@.V ^.N.^ + > M S #.#.*.L.fXgX_.H H 3XkXfXG.e =.1XS.b : 7 i O.W M.m.z.j t k M.!.Y.XXXX-.0 R u.a.",
"y -.&.K.+.tX6X+X@X:..XsXuX6X+XC.i , r Z S J S.S._.gXkX_.B Z 3XxXxXH.e =.1X1.e F 2.p.p.dXrXwX8XZ.8 pXyXrXyXwXuX-.m uXsX=X",
"w H.:.;.b.-X>XoX@X3.aXdXeXrXoXW , v n Z J $.S.R.'.kXkX_.J $.3XxXxXL.M G._.) & u.qXV.bXdXpX6XrXwXB.aXdXpXyX9X-Xl 5XuX-X-X",
"3 4 U / m M.Y.3., [ oXB.p.i.Y.3.k w r B S J %.S.R.gXkXfXR.).kXcXxXfXL._.fX) $ 2.%X] /.~.+X+XoXOX:.m.oX~.+Xo.t @.OX=XC..X",
"U 1 a.M.r.V +XB.o.<Xx.>X>Xx.<X8XB.u 8 n Z S S #.L.fXjXkXkXxXxXxXxXxXkXjX_.) 0 z.wXk.*X8XrX8XwX3.N XX8X8XM.XXwXi.qXrXqXOX",
"y.OXa g k tXrX5XB.6XrXyX8XwXeXyX<XN.W e r Z A S =.H.1XkXxXxXxXxXxXxXkXU.K O.W.~.eXW.bXuXyXyXrXoXj aX6X>X8XdXdX-XpXdXqX,X",
"} =Xh o :.tXuX:Xo.i.<XyX:X>XyXyX6XuXN.h t $.H n Z #.L.fXkXxXxXkXzXjX_.J % W *X%X%Xp.:X%X%X%X~.<XXX-XoX>XyXpX>XZ.rXsXuX-X",
"# 2 = q d.Z.~.a.+.N.Z.W.p.@..XW.p.~.m.W : o.V , n U =.G.fXkXkXkX7X!.H , + & i D u - u u u u W m.| ~ b.k.u.N.~ q C..XX.+.",
"U A 4 O k : m.:.,.z.l.[ ^.i.+XoXE.<X,Xk.8 8 k , n J Z %.).hXhXjXtXE.b < < < < < < < < < i k 3.:Xk.>.[ Y.g.[ /.0 :.' <.,.",
"m U m g.C #XC 1./.9.6.U.j.9XsXwXeXpXwXyXc & u N ' 5.H J Q.[.'.7X9X).Q.Q.Q.D.A.F.Q.D.F.F.Q.4X8XrXoX9XU.J.7.T.K.oXXXT.j.8.",
";.t V &.+X4X9XH.l.9.H.8.9.8XrXwX<X8X+XZ.u , 8 G 2.E.G H (.hXhXhXlXjX].(.Q.F.D.Q.`.`.`.[.7X*X>X8XB.<.P./.8.9.K.g.XX#Xg.8.",
"d e g.U.i.@X4X^.J.9.8.J.8.@XrXwXwXpXm.u , < p G 2.5.G J 2XzXcXcXcXzX9XK.J i < D.[.`.].vX;XF o.>XoXaXU.J.j.K.K.h.$X;XP.7.",
"3 ^ G G % h.P.J.g.K.J.9.7.h.>X5X$X>Xu.- ; < F F 5.E.] H K.2X1XjXvX7X!.G.6.K K D.F.D.D.E.k.k 3.oXp.B.@XI.J.>.7 ' M.Y.g.g.",
"&.C x.M.W :.<.4.E &X&X+X>.N.;XO.' oX5.& ; < i F 5.E.O.G ^ ] [ !.vX/.J D.(.(.Q.6.F < , , R p.,.e -.Y.@X;X-X( h.:.g.<.%.O.",
"J.;.>.g.( &.l.j.9XoX>X6X^.k.6XuX4X9Xp.- & r b G O.5.` G G [ J.4XvX/.H K D.F.G.H e , @.] u.-XyXY.> eX8X5X<X>XN <.' 7.l.j.",
"' g.-.m E ;.7.K.oX&X&X8X$X<X>XrX*XyXd., , e n F G W C G H z.0XvXvX/.F F G G F 0 q W 6X<X;X8X>X8XY.@X>X8X>X;X/.g.&.g.-.4 ",
": d 8 O O.1.7.>.4.oXI.l.7.4.~./.x.@X4.F , , , N V C N ^ J.2X0XvXvX/.M , , , 8 p W k z.oX-XoX$X^.+.+.I.^.I.1.1.[ C _ 4 ^ ",
"C g.J.P.O.*X;X*X&.@XeX9X8XB.^.8X~.&X0XaXN % , p N B p / *XlX0X0XvX!.N , O % i N.^.N.i.Y.uXeXtXaXY.C O.uXiXiXiXi.U.P.4.1.",
"' ( ' 1.-.-.1.J.5X-X*X;X#X8 F eX9XpX8X8XF & i G G p y N p.Z.W.n.N.@.p , + k N.%XwXZ.Z.wX5X6X6XwXoXo.q Y.>X&X4XY.' J.l.C ",
"y g.1.-.[ &.U.7.J./.U.#Xx.x.<X<X$XeX8X>X] D D ] F p k k { ..T 0...Q h : % +.iX8X8Xm.dX6X6X8X6X6XB.$XoX>.$X*XP.:.' 7.1.y ",
"4 m ;.-.` 1.&.<.f l.P.j.j.z.>X;XE.<X;X6XW z.W 0 x Y | ..X.e.e.q.e...T 0 & ] 8X6X8Xh.*X5X>X>X>X8XM.u.>XY.,.z.4.:.<.' = :.",
"U e 4 f E : +.O.V q m.<.k.O.y d.z u E.;XF z.F $ g ..t.t.t.t.e.t.t.q.{ s $ F h.~.oXG U.@X*X@X@XI.4.<.^ m.k.: = $  .: j ' ",
"1.8.4 X t g.P.l.x.;.[ XXP.5XwX-XC uXwXrXk.uX+.% g ..q.y.t.e...q.t.e.T a & @.dXyX9X~.vXqXqXrXwXdX&X$X5X&X!.&.3 -.-.' <.f ",
"C 7 ,.[ m >.1.' E E C g.J.4X<X5Xk.M.8X5Xk.eXo.& g ..e.e.e...Y Y e.e.T s & ` 5X>X8XB.dX<X6XwX>X8XP.;X>X$Xl.V C C E P.1.> ",
"O = E ^ u ) % X E ' j.7.-.M.;X5XY.XXoX&XW &X] $ g ..q.e.q.Y 5 s q.q.{ s & ` ;X*X>X3.XX:X>X-X-XoX:.x.XX<.w -.y h -.>.U + ",
"f [ ,.:.O.,.-.4 O 8 i.u.i.r.@X$Xj.P.*X&X^ O.k $ g ..q.q.T Y & 7 ....T s & k z.Y.] t i.,.oXR C M.,.&.g.k.O.,.8 3 ' -.U z ",
"_ -.-.<.V ' J.1.f [ ^ C 8.;X>XwX;X8X>X!.O.;X] & g T ..T ..x * 5 T T T s % ] *X4.y 8.aX<X-Xi.>X$X7.P.-.j.:.' C r.;.7.' >.",
"q _ ;.-._ ) ' 1.^ ^ y O.C XX>X5X/.#X@XJ.5.6XW $ 9 L Y D c u $ - x c D 5 % V #X/.O.[ 9X;XI.i.$X!.&.U.j.( ^ &.K.' ' *.' -.",
"d d / ) : C >.1.j 7.<.% > d.>X&X^.*X/.7.N ^.F $ , < q i i , + + , r u : + N U.[ l.) #X^.@X*XXXj.( 8 t = O.1.1.,.;.1.^ &.",
"s l | U h z j 8 E ' ` <.e : C g.^ [ [ 7.0 V , + < b F D M r + % < i N i e 8 t R i.j [ G 4.>.:.O.: * - U ` V $ d -.E U R ",
"P U U X._ ' <.8.7.-.-.-.-.<.;._ ! _ ! V m ' f $ i G G G H i % % w v F H F < & h I f <.<.>.1.[ ^ e ^ <.1.j.-.O.U '  .w.U ",
"a 0.L 3 d q U 1.-.;.^ U z V z ! V _ j d 3 d t 3 y u i t i i < 8 8 w e t i , 8 u d 3 d m m ^ V O : >.' <.;.U U > P  . .} ",
"P 2 1 . @ b U U d z U _ d d U U q 0 d q * j d t 3 3 3 - & , 7 1 7 7 % 8 t 0 7 0 d % 1 f 3 $ o m p V m U P 3 * o s U z P ",
"2 ! w.U U a.w. .}  .| | R z | o.I h U s - 0 h s L z d q , g l h l d % 9 l q k I 0 0 z O l 3 U ! d x Q X.X.s / q l | Q w.",
"* 2 P P P P s L } I Q P U L L 9 g L L g 9 l 9 q I L l s s g 9 2 s g 6 g 9 s Q L a 9 0.Q 3 9 l L s Q } P P } L l L a P Q ",
"2 s 2 a a a P 2 } Y P a g @ s L 9 P 2 a 2 s P 9 P g 2 s * 1 L g 2 L a P I 1 X.a a 2 s g P * a a 3 a 6 P P 6 L L P Y 2 a ",
"| Y # @ @ 2 0.* 1 a L 1 @ 2 2 2 # 2 2 $ X 2 L 2 6 2 @ X # 3 I 6 2 # X 6 2 # a 2 2 X } 2 s 6 * @ @ * 1 P 2 2 # @ 6 2 @ a ",
". @   9   . o   . 9 } } s .   X   9 9 . * P } s .   P $   g @ .   .     3 # .   .   X   a Y * .   L . . . .   . . @ x 1 ",
"      5 X     * a . . 2 I         . } I - g # X o o     . #   . X   X g $     * =     X . 1 * $       @ .   -   o Y 1 * ",
"                    X .       1 1 @   1 . .   @                       9             . I *                   6 .     1 . ",
"                      .       = =         .           .                                                 .               ",
"                                                                                                                        "
};
